<svg width="19" height="20" viewBox="0 0 19 20" fill="none" xmlns="http://www.w3.org/2000/svg">
<path d="M0.948719 1.08975H0.576924V1.46154V8.89744V9.26923H0.948719H8.38462H8.75641V8.89744V1.46154V1.08975H8.38462H0.948719Z" fill="white" stroke="#DCDCDC" stroke-width="0.74359" stroke-miterlimit="10"/>
<path d="M4.29486 2.20524H1.6923V4.80781H4.29486V2.20524Z" fill="#999999"/>
<path d="M4.29478 5.55145H1.69222V8.15401H4.29478V5.55145Z" fill="#999999"/>
<path d="M7.64094 2.20529H5.03837V4.80786H7.64094V2.20529Z" fill="#999999"/>
<path d="M10.6154 1.08986H10.2436V1.46165V8.89755V9.26935H10.6154H18.0513H18.4231V8.89755V1.46165V1.08986H18.0513H10.6154Z" fill="white" stroke="#DCDCDC" stroke-width="0.74359" stroke-miterlimit="10"/>
<path d="M13.9617 2.20536H11.3591V4.80792H13.9617V2.20536Z" fill="#999999"/>
<path d="M0.948719 10.7564H0.576924V11.1282V18.5641V18.9359H0.948719H8.38462H8.75641V18.5641V11.1282V10.7564H8.38462H0.948719Z" fill="white" stroke="#DCDCDC" stroke-width="0.74359" stroke-miterlimit="10"/>
<path d="M10.6154 10.7564H10.2436V11.1282V18.5641V18.9359H10.6154H18.0513H18.4231V18.5641V11.1282V10.7564H18.0513H10.6154Z" fill="white" stroke="#DCDCDC" stroke-width="0.74359" stroke-miterlimit="10"/>
</svg>
