<svg width="25" height="25" viewBox="0 0 25 25" fill="none" xmlns="http://www.w3.org/2000/svg">
<path d="M1 0.5H0.5V1V11V11.5H1H11H11.5V11V1V0.5H11H1Z" fill="white" stroke="#999999" stroke-miterlimit="10"/>
<path d="M5.5 2H2V5.5H5.5V2Z" fill="#999999"/>
<path d="M5.5 6.5H2V10H5.5V6.5Z" fill="#999999"/>
<path d="M10 2H6.5V5.5H10V2Z" fill="#999999"/>
<path d="M14 0.5H13.5V1V11V11.5H14H24H24.5V11V1V0.5H24H14Z" fill="white" stroke="#999999" stroke-miterlimit="10"/>
<path d="M18.5 2H15V5.5H18.5V2Z" fill="#999999"/>
<path d="M1 13.5H0.5V14V24V24.5H1H11H11.5V24V14V13.5H11H1Z" fill="white" stroke="#999999" stroke-miterlimit="10"/>
<path d="M14 13.5H13.5V14V24V24.5H14H24H24.5V24V14V13.5H24H14Z" fill="white" stroke="#999999" stroke-miterlimit="10"/>
</svg>
