<svg id="map" xmlns="http://www.w3.org/2000/svg" viewBox="0 0 818.56 561.92">
  <path id="MN" d="M473.43,94l-1-.8-1.3.7-.3,1.3-1.1-.3.4,11.6-.7,1.2-3.9,1.8-3,4.3-.1,2.8,1.5.1,1.8,2.5-1.2,2.9.1,3.4-.8,1.2.6.8v3.2l-.4,2.1,3.8,3.5,2.7.2,1.9,2.2,2.4.7,1.8,1.2,1.1,2.8,4,3.1,2.1.4,2.3,2.9.7,1.4-.2,3.2.8,2.2-22.9,1-9.5.3-12.5.2-15,.2H413v-6.9l.1-28.7-.5-1.1-2.6-1-2.4-3.9.2-.8,2.3-1.7,1.3-1.7.3-2.3.1-2.9-.5-1.8-.1-3-.9-.9-1.7-5.1-.1-3.5.6-2.4-1-1.4.3-2-.5-6.1.1-3.4-2.2-5.5-.6-3.4-1-1.9.4-3.6L404,62l.5-1.9-.5-1.4,1-2.4-1.2-2.5-.5-3.6,9.5.1,17.7-.1-.1-7.4,2.6.2,1.7,1.5,2,7.9-.2,2,1.4,1.2,2.1.3h2.2l.3.9,5.3.4.7,2.2,4.3-.7v-.9l3.4-1.1,2.9.3,3.4,1.5,1.2-.1-.9,1.6,2.7.2,2,4.4,1.3-.6V61.9l2.7-.2.8,1.8,1.9,1,2,.1,1.1,2,1-.3v1.2l4.1-.9,2.2-2,2.5-1.4,1.8,2.7,2.4-.6.3.5,5.6-.6,1.5.4.5,1.1,1.6.7.7-.6,4.4-.2-6.2,3.9-7.4,3-2.6,1.7-5.5,5.3-3.9,4.9-8,7Z"/>
  <path id="IL" d="M542.33,187.1l.1.2h0l.5.7,1,11.1.3,3.1.9,10.2.5,6.8,1.4,15.9-1.2,1,.8,1.7-1.1,1.6,1.4,1.5.1,1.4,1,.5-.4,2,1,1.4-.2,1.8-1.1.7-.5,3.1-1.5.8.2,1.3-1.4,2.9-1.2-.4-.7,1.9,1.1.8-.7,1.9-1.1.5.7,3-1.2.1,1.2,1.8-1.8,3,1.5,2.4V273l-3,.6-1.4,1.1-1.6.4-.3,2.6,1.5,2.1-.5,1.6h-1.7l-5.7-2.5-1.6.4-2.1,3.2.8,1.5-.9.1-1.1-1.6-.4,1.4-1.4-.8-.1-1.1-2.5-3.7,1.4-2.2-1.7-2.7.5-1.3-.6-1.7-1.1-.5-2.6-2.5-1.7-1-.9.8-1.4-1.8-4.1-2.7-1.8-2v-3.4l1.1-2.9.9-1.4-.4-2.3,1.3-1.9v-.9l-1.5-.8-3.8-1.2-1.3,1.9-1.8-.9-.9-2.6.4-.6-.7-2.7-1.2-1.6-2.3-1.7-1.6-.9-5.2-5.3v-1.3l-1.1-.9.1-1.5-1.2-2.3-.3-4,1.1-2.9.7-.4v-4l2.5-.9,1-.7.2-2.8,1.8-2.4.1-3.3-2.6-3,.8-3.2,2.9-1.1,2.8-.3.8-1,1.9-.3,1.7-1.4.2-2.9,1.8-1.5.4-2.1-.2-2.5-.2-1.6-3.5-2-.4-1.9-1-1.2-2.6-1.6.1-.7,3.1-.2,14.8-.8,5.9-.3,4.1-.3,11.6-.9,1.4-.1h0l.1.6v1.1l-.1.9-.1.7.1,1.2h0l.4.9.3.5.8,1.2.1.2.2.2.6.6.2.4.4,1.1.1.3.3.8.2.6v.1l.2.3.5,1.5h0Zm-4.9-1.1h0l.1-.1-.1.1-.1-.2.2.5Zm0,0Z"/>
  <path id="NE" d="M420.53,204.1l1.7,6.1-1,2.7,1.3,1.8.4,1.5.8,1.2,1.2,3.8,2.3,1.7v1.2l1.2,1.2-.3,1.5,1.6,1h-13.9l-12.1-.1-11.7-.2-13.3-.3-16.3-.6-9.8-.4L329,224.9l1.2-19.9-13.7-.9-15.7-1.2,3.3-39.6,20.4,1.6,14.2,1,22.9,1.1,22,.8.4,1,3,1.5,3.5,2.3.9-.1,1.7-1.9,2.1.6,5.4-.5,1.3.5,1.3,1.5,2.1.2,4.2,2.4-.3.7,1.5,2,2.3.3.9.9-.4,2.2.7,1.2.2,2.2,1.1,1.1v1.3l2,1.4L417,190l1.5,2.2-.9,2.3.5,2.8,1.4.6,1,.9-.2,1.4.8,1.4Z"/>
  <path id="CA" d="M122.73,316.7l-.2,1.1-1.9,1.6-.3,4.5-.7.4-.3,2.3-2.1,2-1.6.2-.6,2.1.7.8-1.1,3.4.3,1.1,2.4.6.5,2.6-1.6,2.7-1.6.3-1.7-.2-39.5-4.6v-1.1l-.5-2.2-.9.2.5-3.5h0l.3-.4-.1-5.1-1.9-4.8-2.9-3.8-.6-1.2-2-1.8-2.4-3.4-.9-.6-1,.8-1.6-.5-1.3-1.5.9-1.1-1.1-4.1-3.6-.9-1,.3-2-1.4-3.8-3-.4-2.4-3.7-4-2.4-.3-2.5-.9-1.9-1.5-2-.8-5.3-.9-.2-1.6-1.8-1.7,1.2-1.9-.2-1.4.9-1.5-.7-1.5,1.7-4-1.7-1.2-1.7-2.3,1.2-2.9-1.7-1.6-1.6-4.1-1.6-1.2-.3-2.6-1.3-2.2v-2.4l-.9-.6-1.4-4L18,247.9l-.8-2,.2-3.4.9-2.9.8.9,1-.8,1.3-2.7-.4-2.7-.8-1.2-2.4-.1-1.6-1.7-1.9-4.4.6-2.3.2-3.3-.7-1.1,1.3-4,.1-.9,1.8-.2-.3,2.1-.2,2.3,1.3.8,1.7,2.7.7.5-.4-1.4v-3.2l-1.8-2.9h0l.8-2.1-1.3-1.8,1.6-.3,1.3-.5-1.4-2.4-1.6.2-.6,1.7.5.9-1.1.8-.2,2h-.8l-1.4-2.2h-.7l-1.2-2.5-1.6-1.1-1.2.2,1.8-2.6.2-2.3-1.1-1-.1-3.1-2.3-3.1-.9-3.1-2.9-5.3,1.3-2.6-.4-4.7.2-1.8,2-3.2.3-5.7-2.1-6.3-1-.8L3,160l.5-.9-.1-2.7,2.2-3,3.9-4.2,1.5-2.7v-2.4l1.3-1.4,1.8-3.8.4-2.1-.1-4-1-1.2.9-1.1,1-2.8,9.6,2.8,4,1.2,12,3.3,14.4,4.3,14.3,3.9,4.6,1.1-7,27.5-6.4,24.1-1.5,6.1,4.7,7.1,2.9,4.4,41.2,62,15,22.6-.5,2.2.9,2.6,1.1,1.3,1.1,5.5,2.6,3.5-2.3,2.2Zm-70.8,5.7,3,5-1.2.1-.9-1.2Zm2.1-8.6,3.4,2.3.2,2.2-2.1-1v-1.9Zm-16.4,0,2.1,1.6-1.8-.6Zm5.9-13.8Zm-15.9-4.3,1.5-.3.7,1.2Zm3,1.5,3.4.2.6,2.1-2.6.2Zm16.2,14.6Zm-10.7-14.7,2.5,1,2.7,2h-2.7l-2.2-1ZM17.73,214l-.1.3Zm.4.9Z"/>
  <path id="IN" d="M542.93,188l1.4,1.3,2.4.5,2.3-.8,4-2.6,2.7-.3,14.2-1.4,5.4-.7,7-.8.2,1.3,2.9,24.3.3,3,2.2,19.9.4,3.9-1,1.1,1,1.3-.2,1.8,1.2.2-.1,1.9-2.7.5-2.6,2.1-1.4-.8-2.6.5.4,2.8.2,1-2.3,1.9-.6,1.5-1.4,2.4-1.2-.2-1,2.3-.3,3.4-3.6.3-1.4-.8-.3-1.7-1.7-.8.9.7-1.8,2.2-.9.2.3,2.3-3.1,1-1.4-1.8-3.6,2.1-.2,2.1-3.8-1.6-2.3-.7-.9.8-1.5-1.2.4,1.9-1.3,1V264l-2.5.6-1.1-.9-.5.8.6,1.6-1.8.3-1.2-1.8,1.2-.1-.7-3,1.1-.5.7-1.9-1.1-.8.7-1.9,1.2.4,1.4-2.9-.2-1.3,1.5-.8.5-3.1,1.1-.7.2-1.8-1-1.4.4-2-1-.5-.1-1.4-1.4-1.5,1.1-1.6-.8-1.7,1.2-1-1.4-15.9-.5-6.8-.9-10.2-.3-3.1Z"/>
  <path id="AR" d="M444.33,325.8l.1-6.6-3.3-21.9,7.9-.1,21-.6,3.8-.1,21.5-1,15.8-.9.3,1.7,1.2.5.1,1.6-3.8,4.6-.8,1.8,10.2-.7,1.2,2.3-1.7.2,1.2,1.1-1.8,1.3-2,.5.4,1.6,1.2.4-1.4.8.6,1.6-1.2-.8-.9.9.3,2.4-.2.1-.6-1.7-1.3,1.2,1.6.7-1.1,2.6,1.5,2.3-1.7.4-.4,1.9-1.4-.2-.2.9,1.1,1-.8,1.7-1.8.7-1.1-.6.6,2.4-1.8.4,1.7.7-1.3,1.2-.3,4.4-2.7,1,.3,1.2-1.5.9-.1,1.1-1.5-.4,1.5,1.8-1.7.1,1.4,1-.3,1.2-1.5.2-1.6,1.2,1.3.6-.9,1.5,1.3,1.6-2.2-.1-.2,1,2,.8-.8.6-1.4-.9-.9.9,1.5,1.1-1.5.9.8,1.3-.8,1.2,1.9.9-.3.8,1.1,4-1.8.8,1.3.8-.7,1.2-4.8.2-10,.4-32.4.8-.2-10.5-2.3-.8-3.3,1-1.6-1.8Z"/>
  <path id="LA" d="M523.43,409.8l1.5,2.9,1.5,1.1,1,2.2.4,2.2,1.6.8-1.6.7-.5.6-.3.2-.1.1h0v.6l-.4.2h-.2l-.1.1-.1.3h0l.3.4h0l-.3.1h0l-.4-.3-.5-.1-.5.1-.4.3v.1l-.3.4.4,1.1,1.9-.3.7,1.7,1.6-.4.1-2.2,1.6-1.8,1.9.7-1,.7,1.3,1.8,1.5-1.8.8,1.3-1.5.9,1.2.4-2.2.6,1.5,1.5-1.5-.5-.6,2.7-1.7-1.3v1.5l-2.2.3,1.1,1.1-1.4.5.9,1.1,1.2.1,1.2,2.1,3.3-.3,1.4,1.4.6-.7,1.6,1.7.6,1.7-.7,3.5-2-1.7-2.7,3.2,1.6-3.8-1.7-.1-1.3-1.6-2.8-1.3-3.6-.3-6.2,5-2.4-4.2-1.5-.8-.7,1.2-2.1-.1.2.9-1.7,2.7-1.7.6-.2,1.1-2.7-2.6h-2.3l-3.2-1-.3-1.3.2-.3v-.2l.1-.3,2.7,1.9-.3-1.8-1.6-1.1.1-.3-.1-.3-.2-.1H501l-1.5,1-.5-2.4-1.8,1-1.2-1.2-.5-2-1.6.1.3-2-1.9-.2-2.5.8.8-2.3-1-.1-3.8,2.1-1.5-.3,1.7,2.7-3.6,1.8-5-.9-5.8-2.2-4-1.1-5.1.2-4.5.7-1.6,1-1.5-2.5,1.1-1,2.7-5.4-.3-3-1.1-.8.4-1.4.7-.8-.7-1.9,1-1.1,1-3.3,1-1.5.6-4-.9-1.2.4-1.8-1.1.2v-1l-1.5-1.6-.5-4-1.3-.2-.9-1.4.7-2.1-2.3-4.1-2-1.7-.2-13.7-.2-6.5,32.4-.8,10-.4,4.8-.2-.6,1.7.8.4.4-1.6h.8l.3,1.7-1.1,1-.3,1.7,1.7.5-1.4,1.8.5,1.1,2-.6-1.4,1.3.1,1.8,1.9.1v1.9l1.2.2-1.4,2.4-.7-.4-1.9,1,.1,1.3,1.8.1-.3,2.1-1.8,1.2.2.8-2.6,1.5-.3,1.8.8.2-1.3.8v1.8l-1.6-.4,1,2-1.1.2.2,3.3-1.1-.2,1,2-2.1.3,1,1.7-.6,1.2L494,404l-1.2.9,15.2-.8,15.1-1,1.4-.1-.3,3.4-.8,1.3Zm-7.2,31.2Zm-6.3,1.4Zm3.2-1Zm15.5-9.6Zm11.9-11.1Zm-7.8.4,2.4-2.2-.5,1.4,1,.9Zm-1.8-1.5Zm-30.4,17.7.1-.3Zm-12.9-4.4,1.5-.9,1.4.1,2.3,1.3-.8,1.3-1.4.3-3.2-1.7Z"/>
  <path id="IA" d="M448.83,216.1l-8.5.2-17.4-.1-.4-1.5-1.3-1.8,1-2.7-1.7-6.1.6-2.5-.8-1.4.2-1.4-1-.9-1.4-.6-.5-2.8.9-2.3L417,190l.5-1.4-2-1.4v-1.3l-1.1-1.1-.2-2.2-.7-1.2.4-2.2-.9-.9-1.3-3.3-1.5-1.6,2-4.3-.1-1.9,1.1-1.3-.6-2.1-1.4-.3.7-3.1-1-2.1h16.6l15-.2,12.5-.2,9.5-.3,22.9-1,.2,2.7,2.3,2.1-1.5,2.4.7,4.5.6.4.6,2.6,1.7,1.2,3.4.7,1.3,2.6-.1.7,2.6,1.6,1,1.2.4,1.9,3.5,2,.2,1.6.2,2.5-.4,2.1-1.8,1.5-.2,2.9-1.7,1.4-1.9.3-.8,1-2.8.3-2.9,1.1-.8,3.2,2.6,3-.1,3.3-1.8,2.4-.2,2.8-1,.7-2.5.9v4l-.7.4-1.6-.5-1.6-2.6-1.6-1.3-5.4.4L460,215.7Z"/>
  <path id="TN" d="M594.73,285l8.2-.8,8.9-.9.2-.4,3.1-.3,13.2-1.8,10.7-1.5.1-.5,4.3-.6-.4.6.1,2.3-.6,1.3.8,1.4-1.4-.3-1.6,1.5-1.5,3.8-.7.5-2.2-.8-2.8,1.9-.6,1.6-1.4,1.3-1.5-2-2,1.5-.5,1.7-1.3-.3-1,3.6-1.4-.1-2.4,1.5-3.6,3.8-2.6.2-1.7.4-2.7,2.3-.9,1.2.3,2.1-1,1.2-2.2-.1-.8,1V316l-4.7.6-13.6,1.7-2.1.2-19.6,1.8L544,322l.1.2-15.9,1.3-9,.6-8.8.5.2-.9,1.4.2.4-1.9,1.7-.4-1.5-2.3,1.1-2.6-1.6-.7,1.3-1.2.6,1.7.2-.1-.3-2.4.9-.9,1.2.8-.6-1.6,1.4-.8-1.2-.4-.4-1.6,2-.5,1.8-1.3-1.2-1.1,1.7-.2-1.2-2.3.7-1.7,1.3-1-1.9-2,2.7-.5-1.3-1.1,1.2-.6-.3-3.2h.8l1.1-.1,21.3-1.6.3-.8-.8-2.8h3.4v.6l11.5-1.2,8.2-1,4-.3,7.9-.3,5.1-.4,3.5-.7,4.7-.3Z"/>
  <path id="OR" d="M66.63,67.5l1-.6,4.6.6,3.9,2.2.1,1.3,1.6-.4,1.9.3,4.5-.6,1.5,1.3,4.1.6.7-.6,4.4-.3,2.7.2,1.7-.9.5.4,3.7.3,1.7.6,2.2-.8,5.1,1.2L135,77.7l1.3,3.9,2.1,1.2,1.1,3.5-1.7,1.8-2.4,3.4-1.5,3.1-2.1,2-.2,1.7-2,2.6-1.7.4-2.2,3.6-1.4.9-.6,1.6.4,2.9,1-.2,1.6,1.1.7,1.4-1.4,1.7.3,1.3-2.2,3.8-7.9,35-23.4-5.3-18.6-4.8-4.6-1.1-14.3-3.9L40.93,135l-12-3.3-4-1.2-9.6-2.8L14,125.3V122l.7-3.7,1.4-2.3.2-1.8-.9-1.8.1-2.1,2.2-2.7,2.6-4.8L24,98l2.3-4.5,2.4-5.4,1-3.2,3-7,.4-2.2,3.5-6.6,1.2-4L40,59.5l.3-2.4,2.2-5.3V48.5l.9,1.6,2.2-.3.3.6,2.7-.6.9.1.2,1.8,1.7,1.3,2.4-.2L56,55.6l.5,2.6-.9,6,.9,1,5.3,3Z"/>
  <path id="ME" d="M797.53,97.1Zm-5.2,3.3Zm3.4-8.1,1.2-1.9,1.4,2-1.9,1.1Zm-26.1,13.9-2.8-9.3-2.5-7.8-3.8-11.4,1.7-1,1.4,1.6.6-1.5-.7-1.8.4-.8,2.2.4-1.8-2.2,1.3-3.4,2-2-.7-1,1.6-2.4-1.1-1.2-.5-1.9.5-1.8-.9-.7.5-3.3,1.4-1.8-.7-5.5,5.9-17.3,2.7.3.8,3.1,2.2.7,3.6-3.3,2.5-.7-.2-1.4,1.1-.4,5.1,1.8,1.4,1.5,1.5.3,6.5,21.1,1.3,5.1,2.9.5,2.1-.6.8,1.5-.8.9,1.6,1.5-.2,2.3,1.9,2,1,.4.3-1.4,1.9-.1,2.9,3.6.9.4.6,1.9-1.8,4-1,.8-.9-1.5-1.1.6.8,1.1-1.3,1.9-1.1.3,1.2.9-.7,1.3-1.5-1.4-.9,1.1-.6-.9-.5,2.8-1.9.8-.2,1.7-1.1-1-1,.5.1,2.4-1,1.2-1.3-.2L801,86l1-1.3-1.2-.6-1.6,1.4,1.5,3.1L800,91l.9,1.8-.7.4-.7-2.2-1.6-1.6.5-1-1.5-.9-.7.5-.8-3.6-.6,1.7-1.6.5,1.1,1.1-.5,2.3-.2,3.1,1.1,2.4-1.4.3-.3,1.3-2.2.8V96.8l-1.2,2.9-.8-.7-.4,1.6-1.4.1-.3,1.8-1.2,1.1-1.3-1.2-.7,1.7-1.9,1.1v2.4l-2,1.1.4,1.9-.3,1.7-1.5.9v2.4l-.9,3.5-2-.8-.5-2.1-2.7-1.6-.6-3.4ZM803.43,90Zm-.4-1.5Zm-1.6,2.1Zm0-1-.1-1.4,1.7,1.1-.5.9Zm-5-.1Zm3.6-3.3Zm-5.4,3.5.2-2.6.6.1-.1,2.5Z"/>
  <path id="GA" d="M587.53,318.3l13.6-1.7,4.7-.6,11.2-1.4,8.1-1.3-.4,1.5-1.4,1.2-1.1,1.9.1,2.2,2.8,1,2.5,2.2,2.1-.4,1.5,2.3,1.6,1.7.8,2.2,2.3,2.1.7,1.4,4.7,2.4,1,.9,1.1,2.2,1,.6,2.3.9,2,2.1-.5.9,3.4,2.6.2,1.2,2.6.8,2.3,1.5.6,2.4,1.1.8.6,4,2.3,1,2,1.6.4,1.7,1.2,1.6-.4.9,1,2.4,1.8.1,2.3.9.5,1.3-2.4,3.3-1.2,2.2.3,1.9-.4,2.2-1.3,3.2.3,3.2-1.6,1.7.1,2.3-1.1,1,1.6,1.1-.4,2,.4,2-2.7.2-3.4-.8-2.9-.2-.9.7-.1,2.3,1,1.8-.1,4.3-2.1.3-.8-1.2-.5-2.7-15.6,1.1-16,1-13.2.9-.9-.7-.8-2.6-1.3-2.1-.8-2.1-1.2-.9-.4-2.3.6-5.2-.5-1.5-1.3-1.4-.6-3.1,1.1-3.5-.2-.8-.2-1.3,2.5-2.9-2-1,.4-2-.7-1.6-1.3-1.3-1.4-3.7-1.2-1.8-4.3-15.1-3.7-13.4-2.8-10-.7-2.4Z"/>
  <path id="KY" d="M577.63,251.4l.6-1.5,2.3-1.9-.2-1-.4-2.8,2.6-.5,1.4.8,2.6-2.1,2.7-.5.1-1.9-1.2-.2.2-1.8-1-1.3,1-1.1,1-.9,1.9,1.2,2-.8,2.9,1.4,2.1,3.9,2.2.5,1.4-.5,1.8.3,1.6,1.9,1.6.3.8-1.2,1.3-.6,2.2.6,1.6,1,2.2-.9,1.4-2.2,2.2-.6.8,2.9,2,.5,2,1.4.4,1,.1.8.6,2.2-.6,2.6,3,3.2-.4.6,3.4,2.9.4,1.7,2.8,1.3.1.7h2.6l-5.1,6.1-2,1.1-3.3,2.8.2,1.4-2.1,1.8.1,1.6-2.9,1.1L620,279l-6,2.4-2,1.5-.2.4-8.9.9-8.2.8-3,.1-4.7.3-3.5.7-5.1.4-7.9.3-4,.3-8.2,1-11.5,1.2v-.6h-3.4l.8,2.8-.3.8-21.3,1.6.6-2.6,2.3,1,.9-2-.7-1,1.2-1.3-1-.5,1-3.1-.6-.4-.8-1.5,2.1-3.2,1.6-.4,5.7,2.5h1.7l.5-1.6-1.5-2.1.3-2.6,1.6-.4,1.4-1.1,3-.6v-1.2l-1.5-2.4,1.8-3,1.8-.3-.6-1.6.5-.8,1.1.9,2.5-.6v1.3l1.3-1-.4-1.9,1.5,1.2.9-.8,2.3.7,3.8,1.6.2-2.1,3.6-2.1,1.4,1.8,3.1-1-.3-2.3.9-.2,1.8-2.2-.9-.7,1.7.8.3,1.7,1.4.8,3.6-.3.3-3.4,1-2.3,1.2.2ZM521.53,294h-.8l-.6-1.1,1.4-.4Z"/>
  <path id="ID" d="M144.53,160.5l-19-4-9.3-2.1,7.9-35,2.2-3.8-.3-1.3,1.4-1.7-.7-1.4-1.6-1.1-1,.2-.4-2.9.6-1.6,1.4-.9,2.2-3.6,1.7-.4,2-2.6.2-1.7,2.1-2,1.5-3.1,2.4-3.4,1.7-1.8-1.1-3.5-2.1-1.2L135,77.7l-.1-2.2.8-1.1-.3-2.7-.7-1.2.5-1.5,6.9-30.7,4.3-18.3,12.5,2.7-4.1,19.5,2,4.9,1.1,1.4v2l-1,.6,1.1,2.1-1.5.1,2.3,2.3v1l2.4,1.2.8,2.4,1.1,1.3.8,2.8,1.4,1.2-.3,1.8,3.5,3.1-.1,1.4,3.9.6-1.4,3.9-2.1,3v2l-.9-.2.2,2.1-.6.6,1,1.3v1.8l-1.8.5-1,1.2.5,2.2-.9.4-.4,1.6.6-.2,2,2.6,1.1-.2,5.3-3.3,1.5,2.6-.4,3.5.6,2.9,1.1,2.9,1.5,2-1,1.8.2,1.7,1.3,1.8,1.4-.5,1.7,2.2.6,4.2-.2,1.5,1.8,2.2,1.4-2.3,4.2.8,1.1.8.8-1.6.9-.5,2.5,1.4,3.3-.3.5,1.2,1.8-.7,2.5.8.1-1.3,2.3-2.6.9.6,1.1,2.3-.3.9,2.1,2.3-2.5,16.7-5.1,31.8-15.9-2.6-.5-.2-23.3-3.9-3.2-.7Z"/>
  <path id="AL" d="M549.63,416.4l3.3-.8,1,.2-3.4.8Zm.9-2.4Zm3.5-3.6Zm-9.3-29.7.5-24.6.1-4.9.6-27.1-1.8-1.9-.1-.2,21.8-1.7,19.6-1.8.7,2.4,2.8,10,3.7,13.4,4.3,15.1,1.2,1.8,1.4,3.7,1.3,1.3.7,1.6-.4,2,2,1-2.5,2.9.2,1.3.2.8-1.1,3.5.6,3.1,1.3,1.4.5,1.5-.6,5.2.4,2.3,1.2.9.8,2.1-9.6,1.2-9.1,1-9.5,1-15.2,1.3-.4,2.7,1.9,2.2,2.3,1.2.3.9-.7,2.4,1.4,1.4-.9.6-1.3,2.6-5.3,1.5-2.1.2,3.2-1,.1-.5-2.7-2.1-.6-1.5.4-1.3-.7-2.1-1.3-.4-1.3,3.6-.2,3.7-2.2-1-2.3.4L545,387.7l-.4-3.8Zm3.6,33.5Z"/>
  <path id="FL" d="M651.83,456.7l-.5.2-.2-.3-.1-1.4-2.5-3.2.1-2.6-1.1-3.8,1,1.1.7-1.4.8-4.4v-3.1l-.5-2-1.5-2.9.5-1.1-1.4-1.6-1.2-1.5v-1.4l-3.3-.1-.9,1-1-2.5-1.4-.3-1.2-2.4-3.3-1.5-.6-2.9-2.3-.8-2.1-3-5.4-2.3-1.7-1.1-2.2.9-1.9-.3-1.4,2,.6,2.1-1.9-.4-1.4.6-1.8,1.7-4,2.4-.3-.9-1.2,1.5-2.1.2,2,1.7,3.5-2,.4.1-4.4,2.6-3.2-1.4-2.2.6-1.4-3.2.4-1,.7,3.2,1-.4-.1-1.4-2.1-2.6-1.4-.3-1.9-1.6-1.9-.6-3.4-2L589,412l-5.3-1.3-5.7-.1-4.6,1-4.1,1.2-2.3.3-3.7,1.2,1.3-2.6.9-.6-1.4-1.4.7-2.4-.3-.9-2.3-1.2-1.9-2.2.4-2.7,15.2-1.3,9.5-1,9.1-1,9.6-1.2,1.3,2.1.8,2.6.9.7,13.2-.9,16-1,15.6-1.1.5,2.7.8,1.2,2.1-.3.1-4.3-1-1.8.1-2.3.9-.7,2.9.2,3.4.8,2.7-.2,2.3,8.3,3.4,8.5,2.5,4.9,4.6,7.4,5.1,6.3,3.4,3.6,1.2,2.3-.9,1.1.2,3,1.2,3.1,4.2,6.3,1.7,3.4,1.8,3.2,3.9,6.5,1.7,3.9.2.5.5,4.1.1,2.9.3,6.5.5,4.3v4.1l-1-1.4-.7.7-.9,3.7.8,2.8-.9,1.5,1.4-.3,1.4-4.2-.1,2.2-1.9,5.4-3.2,4.5-1.6,1.2,2.6-3.2.5-2.9h-1.8l-3.5,1.7-1.2-.6-1.4,1.2-3.2.9-1.9-1.8.3-3.1-3.8-5.5-1.1.1-.9-1.5-1.5-.3-3.3-1.4-.6,1.1-1-1-1.9-3.3-1.1-3.9-1.8-2.4-3-1.6-.6,1-1-2.9.7-.6.3-2.1-.8-3.6-1.6,1,.8,2.4-.6.5-1.5-.2-3.8-4.8-1.6-2.7-3.8-4.1-.3-1,1.7-2.2,2.7-5.2-.5-1.2-1.4-.1.6,1.8-1.5-.3-.3-2.3-1.8-.8-.6.9-.5.7,1.7.5,1,1.7-.5,2.2-1.4.4.4,1.1Zm4,58.5Zm20.4-1.7.9-2,4.9-3.7,2.7.7,1.3,1.4-2.6,1.4-.3-.4-4.6,2.4Zm11.9-4.6,3.1-2,.5.4-2.7,1.8Zm-15.5,5.6,2.2-.9-.3.9Zm-2.8,0Zm22.9-8.2Zm1.6-1.3ZM662,473.6l2.1,3.6-.3.2Zm-49.5-54.8Z"/>
  <path id="MO" d="M505.93,257.3v3.4l1.8,2,4.1,2.7,1.4,1.8.9-.8,1.7,1,2.6,2.5,1.1.5.6,1.7-.5,1.3,1.7,2.7-1.4,2.2,2.5,3.7.1,1.1,1.4.8.4-1.4,1.1,1.6.9-.1.6.4-1,3.1,1,.5-1.2,1.3.7,1-.9,2-2.3-1-.6,2.6-1.1.1v-1.5l-1.4.4.6,1.1.3,3.2-1.2.6,1.3,1.1-2.7.5,1.9,2-1.3,1-.7,1.7-10.2.7.8-1.8,3.8-4.6-.1-1.6-1.2-.5-.3-1.7-15.8.9-21.5,1-3.8.1-21,.6-7.9.1-.2-10-.1-7.2-.2-23.6v-5.9l-.1-5.3.3-.8-2.9-.9-1.9-1.9.2-1.9h-.8l-2.6-2.9,1.3-2.6.8-.4,1.4-2.4-.8-1.5-1.6.4-2.6-.8-1.6-1.8-1.6-1,.3-1.5-1.2-1.2v-1.2l-2.3-1.7-1.2-3.8-.8-1.2,17.4.1,8.5-.2,11.2-.4,17.3-1.1,5.4-.4,1.6,1.3,1.6,2.6,1.6.5-1.1,2.9.3,4,1.2,2.3-.1,1.5,1.1.9v1.3l5.2,5.3,1.6.9,2.3,1.7,1.2,1.6.7,2.7-.4.6.9,2.6,1.8.9,1.3-1.9,3.8,1.2,1.5.8v.9l-1.3,1.9.4,2.3-.9,1.4Z"/>
  <path id="MS" d="M548.33,413.8v.4h0l-1.8.7-1.6-.5-2.5.3-3.1-.7-2.6.7-5.6,2.7-.4,1.4-1.3.2-1.6-.8-.4-2.2-1-2.2-1.5-1.1-1.5-2.9v-2.1l.8-1.3.3-3.4-1.4.1-15.1,1-15.2.8,1.2-.9-1.1-1.5.6-1.2-1-1.7,2.1-.3-1-2,1.1.2-.2-3.3,1.1-.2-1-2,1.6.4v-1.8l1.3-.8-.8-.2.3-1.8,2.6-1.5-.2-.8,1.8-1.2.3-2.1-1.8-.1-.1-1.3,1.9-1,.7.4,1.4-2.4-1.2-.2v-1.9l-1.9-.1-.1-1.8,1.4-1.3-2,.6-.5-1.1,1.4-1.8-1.7-.5.3-1.7,1.1-1-.3-1.7h-.8l-.4,1.6-.8-.4.6-1.7.7-1.2-1.3-.8,1.8-.8-1.1-4,.3-.8-1.9-.9.8-1.2-.8-1.3,1.5-.9-1.5-1.1.9-.9,1.4.9.8-.6-2-.8.2-1,2.2.1-1.3-1.6.9-1.5-1.3-.6,1.6-1.2,1.5-.2.3-1.2-1.4-1,1.7-.1-1.5-1.8,1.5.4.1-1.1,1.5-.9-.3-1.2,2.7-1,.3-4.4,1.3-1.2-1.7-.7,1.8-.4-.6-2.4,1.1.6,1.8-.7.8-1.7-1.1-1,8.8-.5,9-.6,15.9-1.3,1.8,1.9-.6,27.1-.1,4.9-.5,24.6-.1,3.2.4,3.8Zm-1.7,3.2Zm-4.5-.2Zm-3.6.8Zm-3-.2Z"/>
  <path id="NJ" d="M744.53,186.3l.1,2.6.6,5.9-.2.6v.2l-.2.8-.4,1.4-.4,1.5-.2.5-.2.5-.1.1-.3.1.4-.1h-.1l-.3.2h0l-.9,3.1-2.4,2.9-1.5,5.5-.9,1.2-1.5.4.3-4.5-2.3-.6-1.5,1-.9-1.1-3.2-1.3-3.1-2.5h0l-.1-.5v-.1h0V204l-.1-.1.2-.6h0l-.1-.2h0l-.1-.1-.3-.1h-.1l-.1-.1h-.1l.2-1.1v-.1l.1-.1V201l1.1-2.5-.2-.1.3-.3,3.4-2.3-.2-1.2,1.2-1.6.7-.8,3.2-2.8-.6-.5-3.4-2.5-.6-1-1.5-.1-.6-2.4-2.2-.8-.2-1.4-.1-2,.8-.4.4-1.8-1.6-1.8,1.6-2.7,1.2-2,.2-2,1.7-2.1,7.5,2.7,5.6,1.6v1.7l-.1.7-.2,1.4-.1.4-.2,2.3-.4.8-1.8.8.2.8-.4,2,.1.7,1.9-.3,2.7,1.1.3,3.1v.6Zm-.9,14.1.2-.6-.2.5Zm.2-.6Z"/>
  <path id="NV" d="M60.83,195.9l6.4-24.1,7-27.5,18.6,4.8,23.4,5.3,9.3,2.1,19,4,14.2,2.9-3.8,19.3-3.3,17.3L142,249.2l-2.2,11.6-2.9,15.8-2.4,3-1.4-.1-1.5-2.9-4-.8-2,1.2-.3,1.8.8,2.2-.8.4-.5,3.9.4.8-.8,2.1.6,3.8-.2,3.1-1.4,1.1-.3,1.9-15-22.6-41.2-62L64,209.1l-4.7-7.1Z"/>
  <path id="SC" d="M654.43,347.2l-2.6-.8-.2-1.2-3.4-2.6.5-.9-2-2.1-2.3-.9-1-.6-1.1-2.2-1-.9-4.7-2.4-.7-1.4-2.3-2.1-.8-2.2-1.6-1.7-1.5-2.3-2.1.4-2.5-2.2-2.8-1-.1-2.2,1.1-1.9,1.4-1.2.4-1.5,4.9-2.4.3.3,2.2-1.8,3.5-1.9.5.3,4.8-.6,16.1-1.7.2,2.1,1.5-1.5,1.9,1.8,1.1,1.1.1,2.4,3.7-.6,14.1-2.1,11.3,8.2,10.1,7.2-2.6,1.5-3,3.8-1.8,3.4-.7,2.3.1,4.1-1.3,1.5-.9,2.3-2,.4-.7-.5-1.3,1.8.9.8-2.1,2.4-1.8,1.3-.4,1.5-1.6,1.9-3.2,1.5-1.8,1.9-2.4.7,1.1,1.3-.4,1.5-2.6,1.7-1.5-1.2-.7.8,1.8,1.2-.6,1.2-2.4,2.1.1.8-2.3-.9-1.8-.1-1-2.4.4-.9-1.2-1.6-.4-1.7-2-1.6-2.3-1-.6-4-1.1-.8-.6-2.4Z"/>
  <path id="WA" d="M72.83,6.5ZM69.63,0Zm76.8,20-4.3,18.3L135.23,69l-.5,1.5.7,1.2.3,2.7-.8,1.1.1,2.2-22.5-5.4-5.1-1.2-2.2.8-1.7-.6-3.7-.3-.5-.4-1.7.9-2.7-.2-4.4.3-.7.6-4.1-.6-1.5-1.3-4.5.6-1.9-.3-1.6.4-.1-1.3-3.9-2.2-4.6-.6-1,.6-4.8.7-5.3-3-.9-1,.9-6L56,55.6l-2.2-2.8-2.4.2-1.7-1.3-.2-1.8-.9-.1-2.1-1.5-2.3.6-1.5-2.1-1.1.7,1-2.1,1.3-4.7.3,1.1-1.1,3.9.8.2,1.7-2.7-.3-2.1,2.1-1.1-.6-.8-1.9.3-.5-1.9.6-1.4,3.4-.6-1.8-1.4.1-.8L45,33.1l.5-5.3-.7-1.6.6-3.7.2-4.1-.3-1.5L44,15l-.2-1.6.9-4.2,1.4-2.6-.6-1.2,2,.9,1.8,2.2,1.6.9,2.8,2.9,3.6,1.1,1.2,1,2,.4,2.3,1.2,1.3-.6,1.1,2.1,1.6.2.1,2,.9-.8-.3-1.4,1.6-.2-.6,1.9,1.2-.9-.8,1.7.3,2.2L67,24.8l-1.2.7.3-1.6-1.3,1.7L61,28.9l-1.2,1.7,3.6-3.6,3.3-.8.5-1.1,2.3-1.8.5-1.6.8.9-.4,3.2-.9,2.9-1,1.1-1.3,4.4-1.1,1.1-.8-1.6-.5,1h0l.8.7-.8,1.1-.9-.6-.8-2.5-.5,1.9,1.9,1.9,2.2-2.1.9-1.4.9,1.3,1.9-1.1.2-1.2-.2-3.5,1.2-.3-.9-1.2,1.2-1.2L72,25l1.1-.8,2.2-2.8-1.2-2.3.1-2-2,1.3.4-2.2,2.3-.2-1.4-1.9-.1-1.6-1.5.2.2-1.9,2.5,1.4.1-1.8,1.1-.4-.6-1.3.4-2.1-2.3-1.1.1-2.5-.6-1.1,1-.6,12.6,3.6L97.83,8l10.3,2.7,15.3,3.8,8.4,2.1ZM67.93,32.9l1.5-2.6-.1,1.9.7.7ZM66.13,5.4Zm2.1.4Zm1.7-1.4ZM74,21.2Zm-4.5-5.5,3-2.8.7,2.5L72,15l-1.9,1.2,1.1.1.4,2.2,1.8,2.3-.1,1.6-1.2.4-.3-1.6L70.53,20l.5-2.4ZM66,7.2l2.1.1,2.1-1.2,2,1.6-1.1.5.2,1.2-1.1,2.3-3.7-2.2Zm6.7,2.9Zm-.9-.9Zm.7-.6Zm-3.3,20.8Z"/>
  <path id="ND" d="M403.33,50.2l.5,3.6,1.2,2.5-1,2.4.5,1.4L404,62l.6,1.3-.4,3.6,1,1.9.6,3.4,2.2,5.5-.1,3.4.5,6.1-.3,2,1,1.4-.6,2.4.1,3.5,1.7,5.1.9.9.1,3,.5,1.8-.1,2.9h-9.1l-14.9-.3-19.9-.8-17.5-.8-14.9-.9-11.7-.8-14.5-1.2,1.5-17.7,1.7-19.8,1.8-22.1,13.9,1.1,10,.7,14.3.9,13.8.7,10.7.4,13.7.3Z"/>
  <path id="WY" d="M307.43,124l-3.3,39.3-3.3,39.6-13.1-1.1-18.3-1.9-30.2-3.6-11.6-1.6-21.3-3-7.9-1.3,3.2-19.6,5.1-31.8,2.5-16.7,1.6-10.2,4.8,1,22.1,2.9,8.1,1.3,26.1,3.2,9.6,1.1.2-.1,18.3,1.8Z"/>
  <path id="OH" d="M585.73,211.8l-.3-3-2.9-24.3,17.6-2.9,1.9-.3,5.9,2,2.2,1.3,1.2-1.7,3.6,2.7,2.1.7,3.1-1.5,3.3-2.2h4l3.3-3.4,2.5-3,3.7-2.4,1.5-.6,5.1-3,2.1,12.6,1.1,6.8.3,1.7.9,5.2-1.6.6-.4,1,1.4,1.8.4,3-1.3,5.1.2,3.4-1.1,3.1.7.8-.4,2-.8.2-3.5,5.2-2.4,1.2-1.2-1.1-1.3,1.6v1.3l-1.5.2-1,2.1.4,1.6-.9.9.8.7-1.7,3.1-.1-1.2-1.8-1.6-1.1,1.3-.5,2.7-1,1.3,1.2,3.6-1.6.7-.1,2.5-3.2,1.4-.8-.2-.4-1-2-1.4-2-.5-.8-2.9-2.2.6-1.4,2.2-2.2.9-1.6-1-2.2-.6-1.3.6-.8,1.2-1.6-.3-1.6-1.9-1.8-.3-1.4.5-2.2-.5-2.1-3.9-2.9-1.4-2,.8-1.9-1.2-1,.9-.4-3.9Zm27-29.4Zm-1.7-.6Z"/>
  <path id="VA" d="M718.83,253.5l-.8-.9-2.1.4-1.5-.5-1,.8,4.6.9.4,1.7,3.1,1.4.3,1.1,2.4-.7-.2-1.1,3.7.3,1.5-.6,3.5,6.8-3.9.8-6.5,1.4-5.7,1.3-13.1,2.6-15.8,3-16.9,3-2.1.4-12.6,1.7L643,278.8l.4-.6-4.3.6-.1.5-10.7,1.5-13.2,1.8-3.1.3,2-1.5,6-2.4.6-2.3,2.9-1.1-.1-1.6,2.1-1.8-.2-1.4,3.3-2.8,2-1.1,5.1-6.1-.3,1.2,2.8,3.4h1l1.9,1.3,1.8-.4,2-1.6.7-1.4L648,265l1.7-1.2,2.3-.6,1.4-1.3-.4-1.6,1.5.9,3.6-2.8.8,1.1,2.4-2.2-.6-1,1.4-1.5-1.3-1.1.4-1.6,2.3-4.1,1.5-3.4.1-1.7,1.4-1.8-.4-.6,1.4-2.8v-3.3l1.9.5,1.2,1.7,2.6.4,1.2-2.4,1.5-5.7.6-1.3,2.1,1.4.8-2.6,2.5-2.1.5-2,1.7-2.5-.5-1.7.8-2-.5-2.3,8.9,5,.9-4,2.3-.1,1.9,1.3-.7,1.7,1.3,1.2,3.3.3.2.8,2.1.6,1.6,1.3.2,1.3.1.8-.9,2.5-.6.3-.4.2-.4-.3-.2,1h0l-.2,1v.3l-.1.3L703,231l.1.2.1.2.1.3.2.4.3.2.1.3.1.1.3.1h0l.4-.1h.1l1-.5h0l.2-.4.1-.1h0l.6-.1h.1l.1-.1.1-.1.1-.4.1-.1v-.1h.1l.3.2.2.1.1.1.1.5-.1.8h0l.5.4.1.1.7.5v.1l.1.1-.1.2.9.4.6.4.6.1h0l.7-.2.6-.1,1.9-.1h.2l1.6,1.3.1.1.6.7.1.1,2.1.8.5.1.3.1,1.1.4.3.2.1.1-.7,1.7.9,3.4-.9.7-1.9-.7-.5.5-1.6-2.2-2.4-.9-3.3-2.6-.4.4,2.2,1.3,1.5,1.7,1.9.7,2,2.3,3.6.2,1.6,3.3-.2,1.6-2.5-1.4-.3.8,1.8,1.5-2.1,1.1h1.7l2.4,2.3-.6,1.6-1,1.3-1.1-1.1-2.7-1.3Zm6.5-15.2Zm-.4-2.1-.8.2Zm11-3.9-1.3,3.9-1-.1-1.3,2.9.1,3.5-1,4.9-.8,1,.2,2L730,252l-1,.3-1.7-2.4-.1-1.5.4-6,1-3.1,1.3-2.3-1.2-.4,1.1-1.4.5-1Z"/>
  <path id="HI" d="M287.12,513.47l-1.1.9-2.1.1-1.2-.9h-4.1l-.4-.9-2.7-4.4,2.8-.2,2-2.2,1-.3,2.4,3.6-.1,1.4,1.9,1.1Zm29.6,30.7,1.3-2,1.1-.3,1.7-2.3.1-1.1-1.3-2.2.4-2.4,2.4.7,2.7,2,.8-.1,5.4,2.3,3.4,3.2-.1,2.2h1.6l.5,1.9,3.1,2.2-.1.9-2.9,2.6-2.9,1.5-3,.2-1.2,1.1-2.7,1.5-1.8,3.2-1.3,1.1-1-1-2.9-1.3-.8-1.7.7-4.2-.7-2.8ZM298,521.47l1.3-.6,1.7.4,1.7,2-.6.9-2.4.6-.8-2.4Zm6.6,7.3,2.4-1.5.5,1.7-2.2.3Zm.1-7.7.6-1.6,1.4-.6,2.2,2.8,2.7-1.1,6,3,.3,1.4-1.2,1.3-2.9.6-3.1.9-1.3-.5-.3-3.4-3.2-.8Zm-11.3-3.5.9-2.3,7.3,1.1,2.9.1-1.7,1.8-1.4.3-4-1Zm-54.1-15,.2-.7,3-2.3-.1,2.1-1.6.6L240,504Zm8.4-3.4,1.1-2.2,3.2-1.6,3.9.2,1,1.4-.8,1.9.1,1.7-2.2,1.8-2.9-.5Z"/>
  <path id="MI" d="M556.13,121.4Zm1-2.7,1.2-.1.2,1.5Zm1.9-6.2Zm1.1-.9Zm-13.7.8Zm-15.2-36.1Zm-22-7.3.9-1.2,4.4-2.7,3.6-2.6,1.6-.5-3,3.8-4.2,2.3,1.2.3L511,69.8Zm55.9,35.5Zm-2-.1Zm11.8-2,.9.6,3.3.7-.4.9h-1.5Zm8.2-5.7Zm-7.5,3.6Zm-.8-.2Zm-27.3,10.2Zm14.6-1.2.5-3.3.9.1.5,2.8Zm-1.3-2.6Zm-65.6-10.9,5.2-2.4,2.2-2.5,2.4-.9,3.1-.4,2.5-1.4,1.6-1.9,2.3-.7.7-1.6,2.9-2.7,1.1-.5,1.9-2.6,3-1.9,2.7-.7,2.3-.1,1.4,1.2-3.3.7.3.9-3.4,2.9-1.8,3.8-1,1-.3,2.8.5,1.4,2.6-3.5,1.3-.9-.3,1.3,3.7-.4,3.7,1.6,1,1.7,2.8,3.6,1.9.5,2-.3,1.1-.9,2.1,1.7,1.2-.9,1.2.7-.3-2.1,1.8,1.4,1.4-1.8,1.6-.7,2.7-2.2,3.4-.7,5.4-.4,2.9-1.7,4-.8-.8,1.5v3.4l3.6,1.1,2.2-1,.6,1.3,1.8-.7.4-1.2,2.3-.3,1.6-.8v2.2l.9,3.6-1.4.2-.3,1.1,1.7-.3,1.4.8-.5.8,3,1.6,1.4-.6-1-1.6,3.3-.2,1.7,1.9-1,1.6-1.4-.5-1.5.4-1.6-.5-3.1.2-3.5,1.4-2.8-1.7-1.8.4-.2,3.8-1.3-.6-2.6-2.3-4.7-1.2-2.6.3-1.6,2.6-3.2.4-.2.9-1.9-.6-2,.2-1.6,1.3-.3,2.3-2,1-1.4,1.9-1.1.3.8-2.7,1.3-1.5-.8-.8-.8,1.3-1.9-.3-.5,2.8-2,.5-.2-2h-1l.2,2-1.5,1.1-3.3,8-1.5,2.2.1,1.4-2.2-1.4,1-3.3-.8-.9-.7.9h-1.9l1.1-3.1-.7-1.1.6-2.2L531,109l-2.5-.3-1.1-.7.4-1.9-5.8-1.5-1.5.7-2.3-.4-4.4-2.1-14.3-2.9-1.7-3.3-2.2-.3ZM553,140.8h0l.1-.5h.1l.7-.7.1-.2.1-.1.3-.8v-.1l1.5-3.8.2-4.4-.4-2.7,1.9-.9-.1-3.3,1.2-.1.6-1.3,1.7.2.7-2.1,1.4-2.8h1.3l-1.1,1.1.9,1.3-.7,4.6.9,1.1,1.2-4.5-.1,2.5-.8,2.2.7.1,1.4-3.8v-3.7l-.4-3,2-1.9,2.4-.4,1.6-.8-1.9-.6-1.3-2.5,2-3.4-1-.5,2.9-.1.3-.9,4.6,2.2,1.8-.5,1.6.4,1.8,2.4h2.7l1.6,1.1,3,1,1.4-.3,1.8,1.5-.3.5,2.5,4.1-1.9-.7-.6.9.3,1.5,1.9,1.2,1.1,3.2-.1,4,.3,3.4-2.8,2.6v3.4l-1.2,1.4-2.1.4-.9,1.5-.2,3.4.8,1.4,3.1,1,1.6-1.6.1-.3.2-.4.2-.2h.1v-.1h0l.3.1.5-3.5.4.8,1.8-2.9,2.9-1.2,1.7-1.3,2.7,1.2,1.7,2.5,1.3,4.8,1.3,3.1.8,4.2,2.3,4.6-.5,1.1.3,3.2-.4,3.2-2,2-.6-1.5,1-1.5-1.1-.3-1.3.9.5,1.8-1.1.6.1,1.7-.5,2.1-2.3,1.6-.3,1.1.3,2.9-.5,1.3-1.8,2.3-1.3,2.9v1.1l-1.9.3-17.6,2.9-.2-1.3-7,.8-5.4.7-14.2,1.4-2.7.3,2.8-3,1.5-4.6,1.5-2.9.9-3.3h0l.1-.7.1-.4v-1.2l.1-.7v-.5l-.1-.9.1-.5.1-.5v-.4l-.1-.3v-.3l-.1-.6-.7-4.3-.6-1.9-2.4-4.3-2.7-5.8.1-1.2,1.1-2.9h0l-.2-.7v-.1l-.3-1.1h0l-.3-1.1-.3-.4-.3-.4Z"/>
  <path id="CO" d="M276.93,280.7l-26.5-2.8-.1-.1-18.4-2.2-15.2-2,3.3-23v-2.2l3.5-24.1,4.1-29.6,11.6,1.6,30.2,3.6,18.3,1.9,13.1,1.1,15.7,1.2,13.7.9L329,224.9l-1.4,22.7-2.3,37-14.9-1.1-20.8-1.6Z"/>
  <path id="MD" d="M724.93,236.2l-.8.2ZM711,212.6h-.1l-.1-.1v.1l.9.9,1.9,1.2,1,2.2-1.1,1,.1,1.3.3,1.4-.8,1.6.7.7.9,3.8,2.5,2.3-.3,2,.9-.2.1,1.5,1.3,1.4.4,1.8-2.6-.7-2.1-1.8-3.2.2-1.4-2.2.6,2-2.3-1.4-1-1.8-2.6,2.3-1.4-2.2.2-1.5,1.3-1.9.9-2.5-.1-.8,1.5-2.4-1.7-1.1-.7-.5-.9,1.4L702,220l-.2-.8-3.3-.3-1.3-1.2.7-1.7-1.9-1.3-2.3.1-3.4-4.1.5-1.1-2.4.6-1.7-1.3-1.2-.1-1,1.8-1.4-.2-1.2,2.7-2.9.2-2.1-1.4-2,4-2.2-.3-.7,2-1.2.8-2.9,3.6-1.7-10.2,16.8-3,12.9-2.5h.1l3.6-.7,14.3-3,6.3-1.3.4-.1.3,1.4,6.4,22.8,9.6-1.9-.6,7.3-.4,1.5-5.6,1.9-.5,1H728l-1.5,1.3-.4-3,.6-1.3-2,.3v-1l1.4-.7-2-.3-1-1.1-.1,1.4-1.9.3-3.5-4.3,1-.4-.7-2h4l-5.5-3,.6-1.8,1.3.2-1-2.1-1.8,2.3.3-3.9,1.8,1,.3-2.6-1.3.3-.9-.9.7-3.6,1.9-1.8.3-3.5-1.5.6-.4,1,1,.8-2,2.3-.8-1.8-.2,1.7-1.1-.3.7,2.7-1.2,1.5Zm12.3,21.1-.6-.5.3-1.7,1.2,2.4Zm-7.8-12.1Zm-11,5.2-.4.2Zm-1,.9Zm-.2,1-.1.6.1-.3ZM703,231l.1.2Zm.2.4.1.3Zm.3.7.3.2Zm.4.5.1.1Zm.4.2Zm.4-.1h0Zm1.1-.5Zm.2-.4.1-.1Zm.1-.1.6-.1Zm.7-.1Zm.1-.1.1-.1Zm.2-.5.1-.1Zm.1-.2h0Zm.4.2.2.1Zm.3.2.1.5Zm0,1.3Zm.5.4.1.1Zm.8.6v0Zm.1.2-.1.2Zm.8.6.6.4Zm1.2.5Zm.7-.2.6-.1Zm2.5-.2h0Zm1.8,1.3.1.1Zm.7.8.1.1Zm2.2.9.5.1Zm.8.2,1.1.4Zm1.4.6.1.1Z"/>
  <path id="VT" d="M731.63,91.1l6.7-1.8,7.3-1.5,10.8-3,.6,1.9-1,3.5,1.4,1.7.5,2.9-2.4,3.6-2.8,1.4-.3,1.1,1.5,3.6-.8,1.9L753,111l-1,1.8-.4,2.5.7,6.4,1.1,4.7-.9,1.4.6,2.9,1.5,1.2-.8.2-10.5,2.3-.7-1-.4-2.8-2.5-11.8-1.1-1.2-1.7.2.4-2.9-2.5-5V107l.7-1.9-.8-1.8-.2-2.5L733,99.3l-.3-4.3-.8-.5Z"/>
  <path id="KS" d="M440.63,256.5l.2,23.6.1,7.2-18.2.2h-3.3l-24.9-.2-10.9-.2-19.4-.6-18.5-.8-20.4-1.1,2.3-37,1.4-22.7,23.6,1.3,9.8.4,16.3.6,13.3.3,11.7.2,12.1.1h13.9l1.6,1.8,2.6.8,1.6-.4.8,1.5-1.4,2.4-.8.4-1.3,2.6,2.6,2.9h.8l-.2,1.9,1.9,1.9,2.9.9-.3.8.1,5.3Z"/>
  <path id="SD" d="M307.43,124h.3l1.5-18.6,14.5,1.2,11.7.8,14.9.9,17.5.8,19.9.8,14.9.3h9.1l-.3,2.3-1.3,1.7-2.3,1.7-.2.8,2.4,3.9,2.6,1,.5,1.1-.1,28.7v6.9h-2.1l1,2.1-.7,3.1,1.4.3.6,2.1-1.1,1.3.1,1.9-2,4.3,1.5,1.6,1.3,3.3-2.3-.3-1.5-2,.3-.7-4.2-2.4-2.1-.2-1.3-1.5-1.3-.5-5.4.5-2.1-.6-1.7,1.9-.9.1-3.5-2.3-3-1.5-.4-1-22-.8-22.9-1.1-14.2-1-20.4-1.6Z"/>
  <path id="MA" d="M773.63,124.8l1.5-1.5,1.6-.1,1.5,3.2h2.7l-.8,1.5-2.5,1.7.6.4-1.3,1.9.5,1.6-.2.2v-.1l-.4.4v.3l.4.2,1.5-.3,1.9.7,1.9,2,.8.6.3,2.5,1.7.2.8,2.1,1.2.8,2.7-.2,3.5-2.1-.9-2.6-.3,1-.9-2.4.7-.3,2.5,3.6.7,2.2-4.1,2.5-1.3.2-1.8,2.2-2.3.8-.3-3.1-1.5-.4-.2,2-1.9,1-.1,2.2-2.3.9-.9-3-1.1-.2-.1-.1-.4-.3-1.8-1-.8-2.2-.5.2-.7-2.4-1.1.3-2,.7-2.7.8h-1.3l-12.3,2.9-.1.7-.7-.6-4.5,1-5.1,1.1-.5-.6.4-13.5,10.5-2.3.8-.2,5.3-1.1,11.1-2.5,1.3-1.2.5-1.8Zm18.9,26.2,2.8-.6.5-1.6,1.3,1.5-.5,1-1.5.3Zm-7.5,3.1Zm-.6-1.8.9-.2,1.6-3.2,2.9,2-3.6,1.1-.7,1.1Zm-1.3-4.9Z"/>
  <path id="WV" d="M623.83,245.6l-.1-.8.8.2,3.2-1.4.1-2.5,1.6-.7-1.2-3.6,1-1.3.5-2.7,1.1-1.3,1.8,1.6.1,1.2,1.7-3.1-.8-.7.9-.9-.4-1.6,1-2.1,1.5-.2v-1.3l1.3-1.6,1.2,1.1,2.4-1.2,3.5-5.2.8-.2.4-2-.7-.8,1.1-3.1-.2-3.4,1.3-5.1-.4-3-1.4-1.8.4-1,1.6-.6.5,3.1,2.4,14.8,7.1-1.1,8.3-1.5,1.7,10.2,2.9-3.6,1.2-.8.7-2,2.2.3,2-4,2.1,1.4,2.9-.2,1.2-2.7,1.4.2,1-1.8,1.2.1,1.7,1.3,2.4-.6-.5,1.1,3.4,4.1-.9,4-8.9-5,.5,2.3-.8,2,.5,1.7-1.7,2.5-.5,2-2.5,2.1-.8,2.6-2.1-1.4-.6,1.3-1.5,5.7-1.2,2.4-2.6-.4-1.2-1.7-1.9-.5v3.3l-1.4,2.8.4.6-1.4,1.8-.1,1.7-1.5,3.4-2.3,4.1-.4,1.6,1.3,1.1-1.4,1.5.6,1-2.4,2.2-.8-1.1-3.6,2.8-1.5-.9.4,1.6-1.4,1.3-2.3.6L648,265l-2.4-1.7-.7,1.4-2,1.6-1.8.4-1.9-1.3h-1l-2.8-3.4.3-1.2h-2.6l-.1-.7-2.8-1.3-.4-1.7-3.4-2.9.4-.6-3-3.2.6-2.6Z"/>
  <path id="AK" d="M28.92,557.77Zm.8-.3.2.4h-.4Zm1.5-2.5.4-.2v.6Zm-.5,1.4Zm.8.1Zm-6.3-5.3H26l.3.5-.3.4h-.6l-.3-.3Zm20.3,6.2Zm-1.3,1.1.7.2-.7.1Zm-24.3-10Zm22.7,8.7h.7l.1.5-.3.1-.2.5-.4-.3Zm2.6,1.5Zm6.2,1,1,.4h.8l1,.7.9.2.7.3-1.9-.1-.9-.5-1.3-.4Zm-5.4-1,1.4.2.5-.2.2.2,1.2.1.1-.3,1.2.1.3-.3-.4-.4.3-.4.7-.1.4.4.1.7-.4.3-.6.1.3.6h-.9l-.2-.3-.5.5-.3-.3h-1l-.9-.5-.3.1Zm-25.1-6.8,1,.6.8,1.8.8.7-.8-.3-.6-.9-.2-.7-.6-.5Zm13.1,3.6.5-.1.7.3.2.7.8.3h-.7l-1,1-.4-.9.6.1ZM19.92,550Zm1.2-.5.5.4-.5.1Zm14.6,7.9.6.1,1.6-.1.3-.7.6.4-.6.4-.1.6-.7.1-.4-.5Zm2.7,1.5.7-.5.1-.5.4.1.5-.9.4.2.5-.1-.5.5.1.5,1.2.2-.3.8-.7-.3-.9.4-.2-.3-.6.3-.1-.5-.4.5Zm-1.2-2.5Zm4.7,2.3.2-.2h1v.5l-.7-.1-.3.3Zm-25.8-10.9.7-.2.7.1.6-.7.4.4-.9.5-.1.4-.5-.4-.6.4Zm27.3,10.3.6.1v.6Zm19.8,2.4.5.1-.2.3Zm.9-.4Zm1.3.2.1-.2.9-.2.2.2-.3.4-.8.3Zm-58.7-23.5Zm-.4-.4Zm64.2,21.8Zm-.1.7Zm1.6,1.8Zm-2.8-1.2,1-.1.4.3-.3.5-.5-.3h-.6Zm-67.8-27.1.9-.1,1.7,1,.5.8.2.7-.6-.1-.1-.3-.4.2-.7-.3h-.4l-.3-.7.1-.3-.3-.5ZM68.82,559l.5.1-.3.3Zm-62.7-22.9Zm62.1,24.1.2-.4.4.2Zm10.4-1.8.7-.4,1.1-.2.4.2.8-.5.3.1-.1-.6.6-.1.2-.5H83l.1.5.4-.5-1-.3-.3-.6.6-.7,1.2-.3.4.1-.1.6.3.4.5-.1.4-.6.5.6-1.6,1v.2l1.9-.6-.1.5-.8.5-1.1.2-.3.7h-.6l-.2.4-.8-.2h-.7l-.9.5h-.5l-.3.3h-.6Zm7.5-3.2Zm2.6,0Zm.4-.1Zm2.6-.5Zm-1.5.5,1.2-.1-.6.4Zm-3.5-.9.6-.5.4.1.7,1-1.6.1Zm1.8-.5.3-.2.8.7-.7.6-.3-.2.3-.6Zm-15.4,6.6h.4l.6-.8.5-.4.1-.6.8-.5,1,.3-.2-.6.6-.8.6-.3.8-.1.8.5-.4.9-.9.4-1,.2-1.2,1.2h-.4l-.7.3-1.7.5Zm-15.5,0,.8-.4.5.6-.5.2-.9-.1Zm-45.2-17.9Zm-9.4-5h.8l.5-.1.6.2-.5.3-.2.6-.4-.6Zm210.1-.8Zm10.3.2Zm-1.3.9.1-.8-.3-.2-.1-.7.8.3.5.8v.5Zm-122.5,9.6Zm11.9,2Zm-7.2.8.3-.4,1,.6-.7.3Zm8,1.2Zm108.2-15.4.1-.4.8.5.1,1.3-.5-.4Zm-7.3,1.7v-.7l.4-.1.2.6.5-1,.6.1-.1.6-.4.3.3.3-.5.6.1.5-.5-.3v-.9Zm-100.1,12.8.3.2.3-.5-.1,1.4-.5-.1Zm-7.9-.9.6-.3-.1.4Zm1,.1h.4l-.1.4Zm2.3-.5.7-.5.2.4.3-.2.5.4.4-.2-.1.8-.8-.7.2,1-.2.5-.6-.7-.4.5ZM215,537.27Zm-104.4,11.3.8-.1v.4Zm105.1-18.5.2-.5.3.3Zm-1.4,1.6v-.4l.9.9-.6-.1Zm-.4-.8.3-.9.7-.2.6.3.1.8-.7.5Zm1.8-1.7Zm-.6.3.3-.6v.8Zm-14.6-13.8Zm-128.7-10.2.7-.6-.1.7.7,1.1.6.1.5.7-1.6-.7-.4-1Zm.3-1.4Zm36.8-12.5.5-.3.5.1v.6l-.8-.1Zm-14.3-12.2Zm-1.2-5.8Zm-12,12.7.5-.7.2-.8.2.2v.6l.6.5,1.3.8,1.4-.5.6.2.4.6v.9l.5.4.6.3.2.4,1.6.6.9.6-.8.8-.5-.3-1-.1-.7.4-.5.9-.3-1.1-.8-.9-.4-.1-.1-.8-.5-.6L84,488l-.7-.3-1.3.5-.7-.6-.1-.5Zm8.4,25.8H91l.6.4.8-.7.4.1.4-.4.4.3.8-.4.1.8h.7l.6.4-.2.4.1,2.3-1.6.1-.7.6-.6-.8-.7-.1-1.1-1.2-.3-.1-.7-.7Zm52.4,13.4Zm-1,.1.2-.3.5.1Zm15.2-6.9v-.6l.6-1,.9-.9.5-1,.1-.7.3-.2.5.4.1.4-.7.8-.5.8-.1.5-.4.4.4.3-.7.2-.9.7ZM140,517Zm3.4,7Zm-.5-.2Zm-6-1.4.5-.2.3.4-.6.2Zm7.2,1.5Zm2.6-1.4.3-.6.2.4-.3.5Zm17-8.7Zm-7.7,1.7.4-1.6.7-.8-.1,1.5-.3,1.5Zm1.5-.2Zm4.9-1.5.9-.1-.2.3Zm-20.5,1.9.3-.5.1-.7.4.2-.4.8Zm5.9-5.8Zm9.9,1,.8-.1-.2.3Zm-.5,1.7.3-.7.4.5-.6.4Zm-1.7-.4.5.2-.2.3Zm-80.7,18,.1-.2h.9l-.6.6Zm134.2-4.6Zm-67.3,10.6Zm62-12.4.6-.1,1,1.6-.2.3-.7.2-.7-.4-1.4-.5-.4.3.6.3.2.6-.3,1-.7-.1-1.2-1-.4.1-.2-.6-.7-.8-.9-.5-.2-1,.5-.7-.3-.8.4-.1.3.6.3-.4h.6l.5-.8.2.3,1,.2-.3,1.1.3.2.2-1.1h1.3l.6.1.3.4-.1.7-.5.2.8.3Zm-127.5,10.7,1,.3-.4.4Zm60.6,5.1Zm65.3-11.5-.2-.7.3-.1,1.1.6.4-.2-.3.7-.1,1-.8.3-.1-.6.3-.4Zm.9-8.7,1.1.7.3.7.4-.4.8.1.6-.3.1.6.5.3,1.1,1.2.5,1.1-.6-.5-.4-.6-.7-.3.5.5-.1.3,1.1.8.6.9h-.3l.4.7-.5.4-.2.9-.8,1.5-.4.1-.6-1.2.3-.7-.4-.5.5-.1-.8-.6-.8-1.3-.2-.7-.8-1.7-.7-.7Zm10.3,17v-.6l.4.3Zm-.3-.3Zm-98.5,10.6.3-.4.2.3Zm14.1.2.7-.6-.1,1.1-.5-.1Zm-12.1-.6Zm-1-.4Zm96.1-11.1.3-.2.2.5Zm-1.5.5.9-.3-.4.7Zm-85.3,10,.3-.4v.7Zm-4.3-2.3Zm4.2,1.2Zm83.7-11.1.1.8-.7-.3-1.5-1.7.2-.5-.5.2-.4-.5-1-.4-.4.1-.4-.5.6-.1-.3-.6.2-.6-.6-.3.2-1.2-.7.3-.7-.7.3-.7-.1-.4.3-.5.6.4.3-.1.7.3.8-.2.2.4-.4.4.5.3,1.2,2.1.8,1.7.2,1.1Zm-.4-3.9.4-.8.8-.1.6.6.6-.2-.4-.1-.4-.7-.6-.3.4-.7h2.2l.8-.3.5.3.5.7.5.1.4.4,1,.6-.8,1-1.2.1-.1.6h-.8l-.3.5-.5.1-.4-.7-.3.5.4.7-.3.1.2.4-.1,1,.1.7-.5.1v.6l-.6-.6-.6-1.5V531H209Zm-85.2,12.6.3-.3.9.3Zm9.5,1,.4-.6.7-.5.5.3-.9.5-.4.5Zm2.5-1.8.4-.2.1.3Zm-.8,1.1.3-.4.7-.2.2.5.7-.1-.3.4-1.1.1Zm-1.5-5.7.3-.1.3-.9,1.5-1.1.9.1v.7l.3.3.3-.6-.2-.4.7-.1-1-.3v-.7l.8-.6.6.4v.8h.3v-.8l.6-.1-.8-.5.3-.3.6.5.7.2-.6-.6,1.4.1.5-.4-.6,1,.2.2,1.5-1.1.4.4-.5.2.6,1-.5-.2-.1.6.4.1-.4.5,1.2-.2-.5.7-.2.7h-.6l-.9-.5-.6.2.6.1.6.5-.4.7-.4.1-.7-.5.2.6-.8.5h.8l.3.2-1.3.6-.3.5-.4-.6.5-.6-.3-.1-.5.8-.3-.1.1.6-.6.5.1.4-.5.2-.6.7h-.7l.3-.7.9-.7-.5-.1.6-1.4-.6.6-.4.7-.8.9-.1-.5-.8-.5v-1.5l-.3-.5-.7-.1Zm70.1-17.7ZM143,530.27Zm57.4-9.8Zm-1.3.9Zm-.6-2.1Zm-88.4,7.3.1-.8,1.4-.7-.8,1.6-.7.1Zm2.8-.5Zm-.5,0Zm25.1,5.4.4-.5.5.4-.2-.6.2-.3h.6l-.4-.3.2-.4.4.2.6-.6-.4-.2,1-.6-.2-.6,1.2-.5-.2.7-.5.8.1.5.5-.1V529l.6.4.4-.1-.2.5.6-.3v.9l-.3.4-.5-.1-.1-.5-.3.2.2.6h-.8l-.2.3-.2-.6-.2.8-1.1.6ZM100,554.07l.1-.3,1.8,1-.5.3-.9-.6-.3.2Zm122.9-16,.7-.6.4.5-.4.5ZM113.22,553l.3.5h-.4Zm102-11.8Zm-113.1,9.9.4-.4.4.2-.1.5-.4.4Zm10.2,1.8Zm2-.3Zm103.2-12.9Zm4.9-1.4Zm-108.6,13.9.1-.8.4.1v.5Zm-3.1-.2.7-.8-.4-.4.6-.6.4.2.5-.5-.3.6h.3l-.2.5-1.1.7-.5.8Zm27.3-25.9h-.3l-.3,1-.9.7h-.7l-.1.6-.5.2.2.8-.6.4.2.2-.4,1-.4.4-.5-.4v.6l-.4.2-.3-.3-.4.4-.5-.1-.8.5.1.6-.9.2.2.5-.4.3-.7-.5-.2.9-.4.1v.6l-1.1-.1v.8l-.7-.2-1.3,1.2.8-.3v1.1l-.8.9-.1.4-.8.1-.3.5-.1-.5-1.3,1.3-.6-.7-.4.2.2.5-.6.4.4.6h-.8l-.2-.5-.7.2-.7.6.7-.1.3.4-.2.3-.9-.4-.1.4-.7-.2-.7.7v.3l1,.4-.5.4h.8l-1.4.9.2.5-.4.3-.5-.9v1l-.8-.4-.2.5-1.9.3-.1.5-.3-.5-.3,1.3-.4.5-.4.1.2-.6.3-1.1-.6-.3-.2.4h-.7l-.2.5-.9.4-.5-.2v.5l-.6.8-.1-.7-.8.2.5.1-.1.4h-.5l-.2-.5-.7.6-.9.4-.4-.2H106l.3-.9.5-.7-.9-.2-.5.7v.8l-1,1.2-.6-.2.3.9-.4.2-.4-.6-.3.8-1-.3v-1.4l-.5-.3-.3.4.5.7-.2.2.1.9-.3-.2-.9.4-.4-.6-.3-.8-.6.4.6.8-.8.5-.7.3.2.3.6-.1.4.9-.7-.2-.4-.6-.4.6-.7.2-.6-.2-1.3-.1-1.1.4-.2.5-1.2.3-.8-.3-.2-1.2,1-.4.9-1.4.5-.3.3.4,1.3-.4.6-.4,1.5.2.3,1,.3.2.2-.5.1-1.1.9-.3.8.1v-.4l.7-.4.5-.5.2.3.3-.2-.3-.5,1.5-1.4,1.9-1.2,2.7-.6,1.2.1-.1.8h-.4l-.1.6.4.6h.6l-.3-.3-.1-.7,1.1.2.1.5.7.3.3-.5-1.2-.8-.2-.3.5-.6.6-1.4.9-.7.8-.5.5-.4,1.2-.5,2-1.1.3-.3.3.5h.7l.1-1.3,1.2-1.7.6-.5.6-.2.6-.8.9-.6.4.4-.1-.7h-.3v-.8l.3-1,.3-1.7.7-.3-.5-.8.1-.8.3-.7.3-.2.7-.9.5-.3.5-1.8-.7.7-1.6.7-2.1.9-.7-.4v-.5l-.7-.5.3-1.4-.5.6-.5.3-.1.7-.4.4.5,1.5-.7.6-.6-.2-1-2.5-.4-.4-.4-.2.2-.4-.5-.2-.3.8-.4.2-.5-.8-.3.1-.6-.7.3-.2-.2-.6-1.6,1-.3.5-.2-.4-1.7.8-.2.5-1.4.6-.4-.6h-.7l-.4-.2.7-.2.2.3.7-.8.1-1.3-.6-1.4-.1-.8.4-.7,1-.7-.5-1.1v-.7l-.5-1v-.5l-.7-1.6-.5.1-.1,1h-.7l-.4.3-1.1.4-1.6.1-1.3-.2-.6-.3-.2-.8.1-.5-.6-.5-.3-.9-.5-.7-.5-.2-.8-1,.7-.6-.3-.1-.5.2-.5-.1L97,511l.5-.1,1.2-.8-.1-.5.2-.6-.5-.5.3-.5h.5l-.5-.4-.1-.5-.4-.2-.3.5-.6-.1-.1-.6.1-.8-.6-.2-.2-.9.7-.4-.5-.5-.8.1.2-.8h1.1l-.6-.5-.1-.7,1.4.1-.1-.9.1-.7.3-.4,2.3-2.3.4-.8.6-.2-.1-.7.5-1.1.8-.6-.2-.3.8-.7.9-.2,1.2.5.3.6.8.8.9-.1,1.2-.9,1.6-1.7.1-.3.6.4v.3h1l.3.2,1.4-.3,1.3-1.7.1-.4-.4-1.8v-1l-.7-1.3-.7-.2.5-.7.4.3h.6l.7-.7.2-.7-1-1.5-.7.9-.5.1-.4-.3-.7.5-.8.1-.3.4-.9.5-.4.9-.6.4v-1.2l-.8-1.1-.5.3.8.9-.5.4-.2-.5-.9-.8-.7-.1-1.7-.1-1.3.5h-.6l-1.1-.7-2.3-1-.4-.4-.1-.7.4-.9-.7-.9.1-.4-.5-.8.7.3.6-.3.5-.6-.5-.6-.7-.1-.6-.4-1.2-.5-.6-.7-.9-.7.1-.8,1.8-.6,2.2-1.1,3.2-1.4,1.2-.4,2-.5.9-.1,1.6.1v1l-.4.4v.8l-.8.5h.5l.3,1,.8-.1.9.3H111l.3.3.8.2.5-.3.8.5.5-.5.5-.9h.6l.4.3.5-.1-.3-.7-1-.5-.5-.1-.6.3.2-1.1-.9-1.6-.5-.1-.3-.9.5-.6.4.1.4,1,.3.2-.3.9.7,1.1.5.5.7-.2.1-.3-1-.8-.4-.7.3-1.1.4-.5h.5l-.8-.7-1.9.3-.8-.5h-.4l-2-1,.1-.9-.1-1.1-.4-1.2-1-1.2-2.1-2.6-.9-.5-.7-1.3-1.1-.7v-.2l.9-.2.5-.9.4-1.4.1-.7,1.3.4.8.2,2.8-.1.7-.2,1.3-.9.8-.9.4-1.1.1-1.1.6-1.3.8-.9,1.1-1.4,1.2-.8,1.4.4,1.1-.4,1.6-1.1,1.4-1.5,1.2-.4.4.5.7.1,1.5-.2,1.2-.7.6-.7,1.1-1.5.6-.4.1.4,2.1.9.1.6-.7.8h-.4l.1.8.7.1.3-.2v-.6l.8-.5-.2-.3.5-.5,1,.8.1,1.3h.5l.4.4.6-.8h1l.5-.2.8.2h.7l.9.4-.5.9.1.6.8.3h.9l-.4.8h.7l1,.3.5-.5,1.2-.1.2.3,1.2-.6.8-.2.7.1,1,.5.4-.1.6.7.4-.3.9.4.4.5,1.3.1.6-.2,1.4-.1.5.1.5-.2,1.2.8,1.2.3.7-.1.4-.5,1.9-1.1.8-.2,1.3.6,2.1,1.1.7.1.8.5,1,.2,12.5,63,1.8.3.1-.7,1.7.6.8-1.3,1.9-.6.1,1.9.6.5,1.3.4.5.8,4.3,2.7,1.1,2.1.5-.8,1.2-1.4.8-.3.2-.9-.3-1.2.5-.1.1-.7-.5-.2,1.2-.8,1.4-1.3,1,.4.9.7.4,1.1.4.7h.9l.7.6.3-.1.5.5.1.5.7.6,1.7.4.7.7,1.5.8-.2.4,1.5,1.2.7.9,1,.8,1.9,1.9,1,.8.7.7-.2.9,1.2-.1.2,1.2,1,.2v.4l.6.9.9-.4.6.3,1.6.4,1.2-.1.8.4h.7l.4.6h.7l.5-.3.5.5.3.7-.2,1.1.6,1.2,1.2,1.7-.2.7v1l-.2,1.1-.8,1.8-.6-.5-.1.4h-.3l-.9-1.2-.1-.7-.6-.5.3-.9.2-.1-.5-.8v-.7l-.8-1.4-1.5-1.1-.1.2,1,.6.7.8.4.7v.7l.5.8-.5-.3.3.8-.3.7-.7-.1.1-1.1-.3.2.2.6-.4.5-.4-.5-.2.3-.7-.2-.7-.4-.2-.5.6-.7-.4-.2-.4-1.7-.5.3.3.4.2,1-.4.5.2.7-1-.3-.4-.7v-.7l.2-.3-.1-.9-.3-.5.2-.6v-.5l-.6,1.2.4.5-.5.4v.6l-.3-.1-.8-1.1-.4.2-.4-.3-.3-.6.4-.3v-.8l.7-.2-.5-.9h.7l-1.7-.7-.2-.9-.9-.2-.9-.9.3-.4-.3-.2-.4.4-2.1-.3-.2-.9.7-.1v-.3h-.7l-.5-.8v-.5l-.3.1-.5-.3-.1-.6,1.9.2-1.7-.7-.3-.5-.3.5-.8-.7-.9-.7-.4-.7-.1-.7.2-.3-.3-.6-.3.8.2.7-.3.2h-1.4l-.8-.8-.3-.6-1-1.1h.2l-.4-1v.7l-.7-.6-.6-1.5-1.1-1.2-.5-.1.8.6.4.7-.8-.7-.6-.1,1.2.9.1.6,1.6,2.3-.1.3.6.9.6,1.6-.8-.1-.9-1h-.7l-.9.6-.1-.4-.4-.1.3-.4-.3-.7-.9-1.1-.1-.7-.5-.3.4.7v.8l-.3.1-1-.4-.4-.8-.1.6-1-.2-.1.4,1.3.1,1.2.9.4-.1.2.6.5.3.4.9-.6.6-.5-.2.1.4-.6.1v.7l-.4.1-.2-.5h-.5l-.5-.5-.5.2-2.4-1.1-.1-.2-1-.6-.2-.6-.6-.5-.9-.4-1.3-.3-1.2-.5-1.9-.5-1.7-.8.3-.8.5.2.1-.8-.3.1-.4-1.1.3-.9-.2-.3-.1.7-.3.2-.1.7-1.6,1.3-2,.1-2-.6-.3-.3.6-.2.1-.4-.6-.7-.6-.3.8.9-.7.5-.5.1-.6-.2-2.2-.1-1.3.2-.5.2-2.1.6-.6.4-.5-.2-.6.3-1.1,1.6.4-1.1.6-.8.6-.1-.3-.4-.6-.1-.2.3-.4-.4-.7-.2h-.9l.5-.4-.8-.2.4-1-.7.4-.2.7h-.4l-1.8-.9-.7.2.7-.9-1.3.9-.8.2.1.3.7-.2.2.4-1,.4-.7.7-.3-.3.5-.6-.6.2.3-1,.5.1,2.1-1.2-.4-.1-.1-.7-.7.7-.4-.1.6-.7-1,.2-.4.4H160l-.2-.3,1.2-.5.5-.5-1.2.4-.5-.3-.3-.6.4-.9,1.1-.2-.1-.2-1,.1-1.1,1.4-.4-1.2-.3,1.3-.2-.3-.4.8-.4-.5-.2.3v-1.1l-.3.7.2.7-.6-.3.2.7-1.4.3.5-2,.5-.8v-.6l-1,1.9-.5.7-.2,1,.1.6.2-.5h.6v.6l-.5.5-.1.8.7-.9.6,1-.2,1.2-.4-.3-.6.5.7.1,1.2,1.2-.2.4-.5.5-.8.1-.4-1.4-.2,1.3-.3-.3-.4.6-.4-.3h-1.3l-.1-.3-.3,1.1-.5.1.3-.8-.3-1H151v1.4l-.3.1-.1.7.3.7-.4-.2-.2-1.4-.3-.1.2,2.2-.4-.7-.7-.3.4.8-1.4,1.8-.3.1.4-1.2-.7.9-.1-.9-.3.5.2.6h-.5l-.9,1.5-.1-.5-.2.5-.7.1-.4-.4-.6.8h-.6l-.8-.6-.1-.4.4-.8,1.2-.4.9-.8.9-1.4-.4.1-1.3,1-.5-.1-.7-.4-.1-.4.5-1.8.9-1.3.1-1,.3-.2v-1.1l-.5-1.2.6-.4.5-.1,1.2-1.1,1-.8.7.9.7.3.3-.7.4-.1,1.4.4.8.1-.3-.4-.4.1-1.4-.5-.4-.4-.8-.5.5-.4.6-1.3.9-.5-.6-.3-.8.8-.1.9-.2.2-.8-.1-.8.1-.6-.3-.2.3-1.1.6-.4.9-1,.3-1,1.1.3.8-.5.1-.6.4-.2.5-.7.7-.1.4.4.3-.5.7-.8.6-.4-.1v.4l.6.7-.5,1.1-.3.3-1.4.1-.2.3.9-.1-.1,1-.6.4h-.7l.2-.7-.3-.4v.7l-.5.9-.6.1.1.8-1.3.4-.1,1.1-.4.5.3.1v.7l.4-.3,1.1.1.9.4Zm74,8.2.5-1.6-.5-.2-.2-.6.3-.4,1.6-.3.9,1.1.7.6.2-.1.9.4.9.7.3.6.4.1.5.6.8.4-1.7-.3-.1.7.7-.4,1.2.7.5,1,.2-.6.4.5-.2,1.5.5-.5.7,1.5-.1.7-1.1.3-.4-.4-.5.2.5-.7-1.3-.4v-.9l-.3-.4-.5.4.4.5-.2.4-.7-.1v-.6l-.4-.5h-.8l.7.7.9,1.3.5-.5.5.3.3.7-.6-.1.6.8-.8.1-1.6-1.3-.6-.8-.3-.9-.7.3-.3-.7.4-.3.3.3.1-.7.4-.3-.6-.4-.1-.6-.3.2-.8-.3-.1-.7h-.4v.5l-.8-.4.4-.5.6.1.3-.3-.3-.3-.6.1-.1-.9-.6,1.1Z"/>
  <path id="WI" d="M536.53,166l1.1,1.4-.4,2.8.4,3h0l-1.4.1-11.6.9-4.1.3-5.9.3-14.8.8-3.1.2-1.3-2.6-3.4-.7-1.7-1.2-.6-2.6-.6-.4-.7-4.5,1.5-2.4-2.3-2.1-.2-2.7-.8-2.2.2-3.2-.7-1.4-2.3-2.9-2.1-.4-4-3.1-1.1-2.8-1.8-1.2-2.4-.7-1.9-2.2-2.7-.2-3.8-3.5.4-2.1v-3.2l-.6-.8.8-1.2-.1-3.4,1.2-2.9-1.8-2.5-1.5-.1.1-2.8,3-4.3,3.9-1.8.7-1.2-.4-11.6,1.1.3.3-1.3,1.3-.7,1,.8,2.7.2,4.1-1.5,3.7-2.3,2.5-.6.9-1.1,1.8-.4,1.2,1.3-1.6,2.7.5,1.1-1.3,2,.7.3,1.9-1.4.2-.9,2.2,1.7,2.3.5.4.7,2.2.3,1.7,3.3,14.3,2.9,4.4,2.1,2.3.4,1.5-.7,5.8,1.5-.4,1.9,1.1.7,2.5.3,1.5,1.5-.6,2.2.7,1.1-1.1,3.1h1.9l.7-.9.8.9-1,3.3,2.2,1.4-.4,2.4-2.5.8-.1,1.1-1.8,3.6-.6,3.1,1.6.5.8-1.5,1.3-.8,1.9-4.1,2.7-1.5,1.6-3.7.2-1.7,1.6-.6.1-1.3,1.6-1-.5,1.5v2.7l-1.7,2.5-.1,1.9-1.2,1.5-2,6-.5,3.7.6,2.9-1.7,1.6-.8,4.5.7,4-1,2.4.1,1.3-.8,2.1-.5,2.9.4,1.1.4,3.8.8,2v.2Zm-43.1-76.4Zm.7-2.5Zm-2.5,1.7,1.7-1-.3,1.1Zm-1.2-.7Zm-.6-1.2,1.7-.7,1.4,1.1-1.6,1Zm-2.7.9Zm2.8,3.8,2.3-1.9.6.5-1.1,1.3Zm.4-1Zm48.6,28.7Zm5.5-3.5.1-1.4,1.6.2-.8,2.2Z"/>
  <path id="NC" d="M715.43,309.5l-2.8,3.9-1,2.5-1,6.4-1-.5h-2.7l-3.2.8-2.3,1.5-10.1-7.2L680,308.7l-14.1,2.1-3.7.6-.1-2.4-1.1-1.1-1.9-1.8-1.5,1.5-.2-2.1-16.1,1.7-4.8.6-.5-.3-3.5,1.9-2.2,1.8-.3-.3-4.9,2.4-8.1,1.3-11.2,1.4v-4.7l.8-1,2.2.1,1-1.2-.3-2.1.9-1.2,2.7-2.3,1.7-.4,2.6-.2,3.6-3.8,2.4-1.5,1.4.1,1-3.6,1.3.3.5-1.7,2-1.5,1.5,2,1.4-1.3.6-1.6,2.8-1.9,2.2.8.7-.5,1.5-3.8,1.6-1.5,1.4.3-.8-1.4.6-1.3-.1-2.3,13.1-1.5,12.6-1.7,2.1-.4,16.9-3,15.8-3,13.1-2.6,5.7-1.3,6.5-1.4,3.9-.8,1.5,3.6,2.6,4.4,4.2,5.7-2.4-2.8-1.4-.7-1.2-2.8-2.5-4.8-1-1.2h-2.3l2.4,2.3,2.9,4.6-1.1-.1-1.3-2.1-1.2,1.5-2.2-1.6h-.8l2.5,2.4-2.2,1.6-4.1-.9,2.8,1.1-1.6.8-.6,1.2-1.7.7-1.7-.4-1.1-1.9-.1-2.6-.4,2.7,2.1,3.9,2.2-.6,1.8-1.2.8.7,2.6-1.6,1.8-.4,1,1.2-.4,1.5,1,3.7.5-.3-.4-4.5.2-1.3,1.5-.7,1.2.6,1.3,2.2.7,2.2-.4,2.5-1.9.5-1.3,3.6-1.5,2-5.5.3-2.1-2.4,1.6-.4.2-.8-2.6,1.3,1.3,2.3-2.9-.1-4.5-1,1.2,1.3,1.2-.1,3.9.9h2.6l.8,1.1-1.3,4.1-2.7,2.7-3.3-1.3.4,1.1,3.7.9,1.7-1.7,2-.8.2-1.3,1.6,1.6,1.5-1,.5,1.3-1.8,1.9-1,3.9h-2.5l2.6.6.9-2.4,4.5-7.3.6.2-4.4,6.5-1.5,4.3-.5-1.1-3.7-.3-3.9,1.5-2.6,1.7Zm21.2-17.1.2-1.1,6.4-4.5-.5-6.5h.3l.5,7.2-3.6,1.9Zm.8-17.8,1.1.1,1,2Z"/>
  <path id="NH" d="M760.53,77.7l3.8,11.4,2.5,7.8,2.8,9.3,1.9,5,.6,3.4,2.7,1.6.5,2.1,2,.8-.6,4.1-1.6.1-1.5,1.5-.8.5-.5,1.8-1.3,1.2-11.1,2.5-5.3,1.1-1.5-1.2-.6-2.9.9-1.4-1.1-4.7-.7-6.4.4-2.5,1-1.8.1-4.6.8-1.9-1.5-3.6.3-1.1,2.8-1.4,2.4-3.6-.5-2.9L756,90.2l1-3.5-.6-1.9.5-4.7,1-1.6,1,.8,1.3-.3Z"/>
  <path id="OK" d="M404.23,347.9l-.1.1-2.5,2.9v1.5l-1.6-.7.2-2.7-1.2.7-1.2-.5-.7,1.3-1.5-.5-.6-1.5-1.4.3-1.1-1.8-3.6,2.8-1.7-1,.6-1.8-2.2-.3-.5-1.4.5-1.1-1.3.2-3.1-.9-2.1,1.8-1.4-1.7-1.8.2-2.8-.4-1.4-1.3-3.9-.1-.1-2.5L365,337l-.4,1.7-2.9-1-.4.9-1.5-.2-3.5-4-1.3.2,1.7-38.5-7.8-.3-21-1.2-18.3-1.2.8-9.9,14.9,1.1,20.4,1.1,18.5.8,19.4.6,10.9.2,24.9.2h3.3l18.2-.2.2,10,3.3,21.9-.1,6.6-.2,28.3-1.3.2-1-1-1.8-.2-2.3-1.1-1.6-2.2-1.3-.1-1.3-1.4-1.4-.5-1,1.7-2.6.2-3-.8-2.1.3-1.2,1.2-1.6-1-2,.9H417l-.4,1.4-1.9-.1-1.1,1.7-1.2-1.8-3.2-1.5.7-.7-1.4-.5-.3,1.2-3.1-.3Z"/>
  <path id="DE" d="M724.13,202.8Zm1.2,1.9Zm0,0-.1-.5Zm-.1-.6Zm0-.1-.1-.1Zm.1-.7Zm-.1-.2Zm-.1-.1-.3-.1Zm-.4-.1-.1-.1Zm-.2-.1.2-1.1Zm.2-1.2.1-.1Zm.1-.3v0Zm0-.3-1.1,2,.9.6v2l2.8,2.4,1.2,2,.6,2.8,1.4,1.1.4,1.2,2.3,1.9,1.5-.1,2.1,6.6-9.6,1.9-6.4-22.8-.3-1.4,1.3-2.3,1.5-.7,2.3.2.2.1Z"/>
  <path id="PA" d="M731.13,192.2l-.7.8-1.2,1.6.2,1.2-3.4,2.3-.3.3-2.3-.2-1.5.7-1.3,2.3-.4.1-6.3,1.3-14.3,3-3.6.7h-.1L683,208.8l-16.8,3-8.3,1.5-7.1,1.1-2.4-14.8-.5-3.1-.9-5.2-.3-1.7-1.1-6.8-2.1-12.6,2.6-1.6,2.2-1.9.4-1.1,1.8-.5.2-.2.5-.6.4-.2h0l.7-.6.6-.5.5-.3h0l.9,5.3,12.7-2.3,18.1-3.4,16.2-3.3,13.1-2.8,2.7-.6,1.1.7,1,1.7,2.1-.1,1.2,1.6.7,2.5,1.5,2.5,3.5.3,1.2,1.1-1.7,2.1-.2,2-1.2,2-1.6,2.7,1.6,1.8-.4,1.8-.8.4.1,2,.2,1.4,2.2.8.6,2.4,1.5.1.6,1,3.4,2.5.6.5Z"/>
  <path id="AZ" d="M177.93,381.5l-10.2-1.5-31.6-18.3-25.6-15.4.6-2.4,1.8-1.7,1.7.2,1.6-.3,1.6-2.7-.5-2.6-2.4-.6-.3-1.1,1.1-3.4-.7-.8.6-2.1,1.6-.2,2.1-2,.3-2.3.7-.4.3-4.5,1.9-1.6.2-1.1,3.3-1.3,2.3-2.2-2.6-3.5-1.1-5.5-1.1-1.3-.9-2.6.5-2.2.3-1.9,1.4-1.1.2-3.1-.6-3.8.8-2.1-.4-.8.5-3.9.8-.4-.8-2.2.3-1.8,2-1.2,4,.8,1.5,2.9,1.4.1,2.4-3,2.9-15.8,18.7,3.5,21.8,3.7,14.2,2.2.3.2,21.9,3.2-4.9,35.9-7.5,54-3,21.5Z"/>
  <path id="TX" d="M244.23,381.3l-1.2-1-.4-1.6.6-1.8,10.3,1.1,12.4,1.3,19,1.7,17.1,1.4.2-1.7.6-8.6.7-9.5,2-22,.9-12.5,2.6-34.8.6.1,18.3,1.2,21,1.2,7.8.3L355,334.6l1.3-.2,3.5,4,1.5.2.4-.9,2.9,1,.4-1.7,2.7,2.5.1,2.5,3.9.1,1.4,1.3,2.8.4,1.8-.2,1.4,1.7,2.1-1.8,3.1.9,1.3-.2-.5,1.1.5,1.4,2.2.3-.6,1.8,1.7,1,3.6-2.8,1.1,1.8,1.4-.3.6,1.5,1.5.5.7-1.3,1.2.5,1.2-.7-.2,2.7,1.6.7v-1.5l2.5-2.9.1-.1.9,1.8,3.1.3.3-1.2,1.4.5-.7.7,3.2,1.5,1.2,1.8,1.1-1.7,1.9.1.4-1.4h1.6l2-.9,1.6,1,1.2-1.2,2.1-.3,3,.8,2.6-.2,1-1.7,1.4.5,1.3,1.4,1.3.1,1.6,2.2,2.3,1.1,1.8.2,1,1,1.3-.2,1.6,1.8,3.3-1,2.3.8.2,10.5.2,6.5.2,13.7,2,1.7,2.3,4.1-.7,2.1.9,1.4,1.3.2.5,4,1.5,1.6v1l1.1-.2-.4,1.8.9,1.2-.6,4-1,1.5-1,3.3-1,1.1.7,1.9-.7.8-.4,1.4,1.1.8.3,3-2.7,5.4-1.1,1,1.5,2.5-2.8.2-2.3.7-7.8,3.7-2.3,2-.6-.5,1.6-1.7,2.7-1.3-.2-.1-.4-.5H444l-.9.4H443l-1,.3h-.1l-1.2.3h-.1l-.2-.1h-.1l-.2-.4,1.4-1.5.2-2.6h-2.1l-.9,1.7-1.6-.5-.8,1.4v1.8h0l1.6.8h.2l.3,3.7-1,.4-2.5,2.3-1-.3.2,1.9,2.4-1.8,3.3-3.4,1.4.4-5,3.7-5.6,4.9-2.7,1.5-5.3,3.2-7,3.4-3,2.1-.9,1.3-3.3,1.8-4.5,3.8-2,2.3-4,6.5-1.3,2.9-1.1,3.8-.4,5.1.4,3.5,2.6,9.6.6,4.4-2.1-9.1-1.8-5-.1-6.2.8-4.6,1.6-4.4,2.7-4.3.7-2.3,1.1-.6,2.5-3.6,2.5-1.2,2.4-2,2.7-.9-.2-1.5-2.9,1.9-1.1.1-.4-1.8h-1.2l-.4,3.6-2.4,1.9-1.8-1.2-3.1,1.9,1.4.6,1.9-1.1-.4,1.8-2.5,3.9-1.1-1.1H394l-.4,1,1.7-.3.1,1.9,2,.9-1.3,2.7-1.4,4.5-1.9,1v-1.7l-2.1,2.3,1.9.3,1.8-.5-.5,5.3-.7,3.5,1.1,6.4h.6l1.7,4.1-.6.8.4,2.5,2.4.9.1,2-1.1-.1-3,1v1.3l-2.6-.9-2.2-2.4-2.8-1.1-2.9.1-4.2-.3-1.9-1-2.4-2.3-2.4-.7-1.4.4-1.5-1.9-3.2-1.3-2.7-.1-.1-1.6-1.3-1.2-.7-3.7-.9-2.4-3-3.6.4-3-.2-1.5-1.6-1.3.5-.4.6-2.8-.5-1.7-1.4-1.5-2.2-.6-2.5-2.6-.9-3.7-1-.3-1.5-3-2.2-1.2-1.4-1.6-.8-2.5-.7-3.6-1.7-1.6-.7-3.3-1.7-2.4-.2-3.1-1.7-1.5-.3-1.5-3.4-2.5-.9-1.9-3.3-1.7-.1-1.8-1.6-.8-1.4-2.5-1.3.4-3-.2-2.4-1-2.2-.3-1.2.5-2.2-1.3-2.7-.7-.9,2-2.1-.5-2.7.6-.5,1.3-2.2,2.9-.8,3.2-1.2,2,.5.6-2.3.8-1.9,2.1-.4,1.5-2.3-.1-2.9-1.5-2.1-2.4-2.8-.9-.9-1.5-3.2-.9-2.8-2-1.8-2.7-1.3-.2-2.6-2.6-1.2-3.5-1.3-2.6.1-5.9-1.5-2.2L269,408l-1.1-.9-.5-1.6-.9-.1-2.4-2.6-2.9-1.2-.2-.9-2.3-2.1-1.2-2.6-2-1.2-2.6-4.2-2-.9-2.2-1.9-1.7-4.3Zm190.3,54.6.3-.2v.1Zm0,0,.4-.3Zm.4-.3-.1.1Zm-.1.1v0Zm0-.1v0Z"/>
  <path id="RI" d="M775.83,152.4Zm-.5-4Zm4.2,2.2-.8,1.1-1.2-3.2.5,2.8-1.7,1,.4-3.4.7-1.6.1.1,1.1.2Zm-9.4-8,2-.7,1.1-.3.7,2.4.5-.2.8,2.2,1.8,1-.9.3-1.7-1.2.7,3.8-.6.4,1,1.9-.4,2.2-5.1,2.4.4-2.1-1.1-4.6-1.9-6.7Zm4.2,16.4.2-1.5.7,1.4Z"/>
  <path id="NM" d="M201.33,385l3-21.5,7.5-54,4.9-35.9,15.2,2,18.4,2.2.1.1,26.5,2.8,12.7,1.2,20.8,1.6-.8,9.9-.6-.1-2.6,34.8-.9,12.5-2,22-.7,9.5-.6,8.6-.2,1.7-17.1-1.4-19-1.7-12.4-1.3-10.3-1.1-.6,1.8.4,1.6,1.2,1-14.8-1.7-13-1.6-1.1,8.8Z"/>
  <path id="UT" d="M180.33,268l-21.8-3.7-18.7-3.5,2.2-11.6,9.6-49.2,3.3-17.3,3.8-19.3,3.2.7,23.3,3.9.5.2,15.9,2.6-3.2,19.6,7.9,1.3,21.3,3-4.1,29.6L220,248.4v2.2l-3.3,23-21.9-3.2-.3-.2Z"/>
  <path id="CT" d="M760.13,160.4H760l-.6.1h0l-.4.2h-.1l-.2.1h0l-.2.3-.2.2h-.1l-.7.3h0l-2,.4v-.2l.1-.1h-.1l-.2-.2h0l-.3-.1-.2.1h.1l.1.3h0l-.4.3-.4.8-.1.3H754l-1.8,1.4-2.7,1.8v.9l-1.5.6-2.1,1.8h0l-1.5-2,.4-.4,2.6-2.6-1.4-1.4-.3-1.6-.5-2.9-1.8-10.3,5.1-1.1,4.5-1,.7.6.1-.7,12.3-2.9h1.3l1.9,6.7,1.1,4.6-.4,2.1h-1.3l-5.9,3-2.3.8Z"/>
  <path id="MT" d="M314.23,45.8l-1.8,22.1-1.7,19.8-1.5,17.7-1.5,18.6h-.3l-7.4-.7-18.3-1.8-.2.1-9.6-1.1-26.1-3.2-8.1-1.3-22.1-2.9-4.8-1-1.6,10.2-2.1-2.3.3-.9-1.1-2.3-.9-.6-2.3,2.6-.1,1.3-2.5-.8-1.8.7-.5-1.2-3.3.3-2.5-1.4-.9.5-.8,1.6-1.1-.8-4.2-.8-1.4,2.3-1.8-2.2.2-1.5-.6-4.2-1.7-2.2-1.4.5-1.3-1.8-.2-1.7,1-1.8-1.5-2-1.1-2.9-.6-2.9.4-3.5-1.5-2.6-5.3,3.3-1.1.2-2-2.6-.6.2.4-1.6.9-.4-.5-2.2,1-1.2,1.8-.5V85.1l-1-1.3.6-.6-.2-2.1.9.2v-2l2.1-3,1.4-3.9-3.9-.6.1-1.4L165,67.3l.3-1.8-1.4-1.2-.8-2.8L162,60.2l-.8-2.4-2.4-1.2v-1l-2.3-2.3,1.5-.1-1.1-2.1,1-.6v-2l-1.1-1.4-2-4.9,4.1-19.5,10.8,2.3,19.4,3.8,10.6,1.9,16.8,3,18.1,2.8,15.2,2.2L270,41.3l12.5,1.4,14.2,1.5Z"/>
  <path id="NY" d="M767,162.1Zm-1.4-1.4Zm2.2-2Zm-17.6,17.8-3.7,1.1-2.6,1.6v-.5l-1.1-.1-.7-1-.2-.9.2-2.3.1-.4.2-1.4.1-.7v-1.7l-5.6-1.6-7.5-2.7-1.2-1.1-3.5-.3-1.5-2.5-.7-2.5-1.2-1.6-2.1.1-1-1.7-1.1-.7-2.7.6-13.1,2.8-16.2,3.3L667,165.7l-12.7,2.3-.9-5.3h0l4.2-3.9.9-1.4,2.8-2.2.8-2.5,1.7-1.3.6-1.4-.9-1.5-.1-.3-1.8-1.4-1.1-2.7-.7-2.5,5.8-3,1.9-.7,5.4-1,2.8-.2h1.5l1.4.1,2.8,1.3,2.1-1.3,3.6-1,2.3-.1,3.3-2.1.7-1.6,3.1-2.9,1.9-.5-.1-3-.9-2.3-1.1-.5,2.1-1.6-1.4-1.3-2.6-.6.2-3.4,1.9-1.2-.1-.8,3-2.4,1.4-3.3,4.9-7.6,5.7-4.8,2.1-.2,7.3-1.5,10.8-3,.3,3.4.8.5.3,4.3,1.5,1.5.2,2.5.8,1.8-.7,1.9v2.9l2.5,5-.4,2.9,1.7-.2,1.1,1.2,2.5,11.8.4,2.8.7,1-.4,13.5.5.6,1.8,10.3.5,2.9.3,1.6,1.4,1.4-2.6,2.6-.4.4,1.5,2h0l-1.1,2.4.1,1.5.7-1.5,4.1-2.7,2,.2,1.8-.6-.1-.8,5.3-1.3,1.9-.8,1.9-1.9,1.3-2.1,1.8,1.5,1.4-.6,1.3,1,1.5-2h1.3l-6.5,5.5-9.7,6.9-2.6.9Zm-8.7,1,.5.9-.9,1.7-1.6,1,.4-2-.2-.8Zm-46.4-55.1Zm-1.2-.1Z"/>
</svg>
