<svg fill="none" height="97" viewBox="0 0 300 97" width="300" xmlns="http://www.w3.org/2000/svg"><g fill="#fff"><path d="m68.131 51.5536 5.1524-2.6748v-40.37667h-3.8962l-9.5171 12.58847h-1.0752l.6068-14.03201h41.2623l.596 14.03201h-1.129l-9.3251-12.58847h-3.9921v40.29167l5.1844 2.7279v1.3693h-23.8672z"/><path d="m105.401 49.7702v-44.74966l-4.003-1.59214v-.83852l14.468-2.58988h1.522v21.1754l.404-.3396c3.205-2.7916 7.804-4.5854 12.402-4.5854 6.335 0 9.134 3.5664 9.134 10.2109v23.3089l3.386 1.8363v1.3586h-18.917v-1.348l3.395-1.8469v-23.3938c0-3.6513-1.596-5.116-4.598-5.116-2.002 0-3.726.6262-5.004 1.6452v26.9177l3.332 1.8363v1.2949h-18.927v-1.2843z"/><path d="m153.732 36.0252c.393 7.3981 3.715 13.1192 11.592 13.1192 3.811 0 6.515-1.7619 9.06-3.0993v1.4541c-1.97 2.6854-6.962 6.4535-13.914 6.4535-12.21 0-18.449-6.7613-18.449-18.4794 0-11.4528 6.824-18.5856 17.853-18.5856 10.369 0 15.755 5.1691 15.755 18.7766v.3503h-21.897zm-.203-1.6983 10.742-.6581c0-9.1601-1.576-15.242-4.727-15.242-3.343 0-6.015 7.0584-6.015 15.9001z"/><path d="m0 70.8074c0-19.4771 12.9343-26.4082 27.3376-26.4082 6.1105 0 11.8803.9765 15.1059 2.3139l.2768 13.5968h-1.3733l-8.4525-13.151c-1.4478-.6157-2.821-.8598-5.3546-.8598-7.6541 0-11.5717 8.8205-11.4546 23.2877.1491 17.3012 3.1617 25.1558 10.1877 25.1558 1.8311 0 3.2363-.276 4.2156-.7006v-18.5431l-4.6414-2.6535v-1.5497h22.4194v1.6558l-4.5669 2.5474v18.2884c-3.7898 1.4754-10.1877 2.8765-16.937 2.8765-16.3727 0-26.7627-7.568-26.7627-25.8564z"/><path d="m47.4785 61.7224v-1.1251l15.074-2.6536 1.6501.138v29.6138c0 3.5663 1.7245 4.6702 4.6094 4.6702 1.863 0 3.545-.7005 4.8863-2.3033v-26.5568l-4.1304-1.7832v-1.1676l15.074-2.6536 1.5116.138v33.9444l4.0666 1.6983v1.0826l-14.8717 1.8257-1.5117-.138v-4.458h-.4152c-2.7571 2.5368-6.6108 4.734-11.2948 4.734-7.2283 0-10.539-4.2563-10.539-10.7098v-22.5128z"/><path d="m142.767 57.88 1.235.138v10.9645h.34c1.608-8.035 5.163-11.0388 9.496-11.0388.692 0 1.448.0637 1.863.276v11.2192c-.692-.2016-1.927-.2759-3.098-.2759-3.438 0-5.972.6156-8.197 1.6346v21.6743l3.428 1.8999v1.4011h-19.545v-1.3905l3.524-1.8999v-29.582l-4.131-1.2312v-1.0084z"/><path d="m180.622 58.8037v-11.5695l-4.131-1.4435v-.9235l15.213-2.7915 1.447.2017v49.6853l4.205 1.5178v1.2843l-15.01 2.0167-1.171-.1379v-4.1078h-.34c-2.204 2.1972-5.238 4.1821-9.986 4.1821-8.197 0-14.18-6.2412-14.18-19.0102 0-13.4588 6.952-20.0715 17.491-20.0715 3.013 0 5.291.5519 6.462 1.1675zm-.032 31.811v-29.6987c-.969-.6156-1.661-1.3799-4.163-1.295-4.066.138-6.578 6.2731-6.578 17.1845 0 9.8182 1.809 15.3058 7.228 15.1253 1.522-.053 2.757-.5944 3.513-1.3161z"/><path d="m214.07 57.8479 1.309.1379v34.4751l3.439 1.9v1.4011h-19.545v-1.3905l3.513-1.8999v-29.0406l-4.205-1.6453v-1.1463zm1.384-9.3087c0 3.6406-3.098 6.3791-6.675 6.3791-3.715 0-6.611-2.7491-6.611-6.3791 0-3.6407 2.896-6.4535 6.611-6.4535 3.577 0 6.675 2.8128 6.675 6.4535z"/><path d="m261.453 92.4714v-29.359l-4.131-1.4436v-1.4223l15.01-2.7915 1.512.138v4.3943h.415c3.236-2.8871 8.059-4.734 12.807-4.734 6.536 0 9.432 3.0887 9.432 9.9562v25.1982l3.502 1.953v1.4011h-19.545v-1.3904l3.513-1.9v-24.572c0-3.7787-1.65-5.2859-4.748-5.2859-2.001 0-3.641.5095-5.163 1.6346v28.2127l3.438 1.8999v1.4011h-19.555v-1.3904z"/><path d="m239.768 74.0236v-4.925c0-7.4194-1.618-9.8501-6.217-9.8501-.543 0-1.011.0637-1.554.138l-8.186 11.0601h-1.15v-10.1791c3.513-1.0827 7.91-2.3564 13.733-2.3564 10.006 0 15.829 2.7704 15.829 11.1238v24.0094l3.588.9447v.9447c-1.416.8809-4.258 1.6876-7.377 1.6876-4.94 0-7.303-1.6134-8.389-4.32h-.341c-2.097 2.834-5.067 4.4474-9.74 4.4474-5.951 0-10.007-3.7044-10.007-10.1154 0-6.2093 3.854-9.5741 11.699-11.06zm0 16.59v-14.8387l-2.501.2017c-3.929.3396-5.344 2.834-5.344 8.364 0 5.9971 1.958 7.5574 4.737 7.5574 1.554-.0106 2.438-.4777 3.108-1.2844z"/><path d="m110.202 74.0236v-4.925c0-7.4194-1.618-9.8501-6.227-9.8501-.543 0-1.012.0637-1.555.138l-8.186 11.0601h-1.1497v-10.1791c3.513-1.0827 7.9097-2.3564 13.7327-2.3564 10.007 0 15.83 2.7704 15.83 11.1238v24.0094l3.587.9447v.9447c-1.416.8809-4.258 1.6876-7.377 1.6876-4.94 0-7.303-1.6134-8.389-4.32h-.34c-2.097 2.834-5.078 4.4474-9.741 4.4474-5.9507 0-10.0066-3.7044-10.0066-10.1154 0-6.2093 3.8536-9.5741 11.6996-11.06zm0 16.59v-14.8387l-2.501.2017c-3.929.3396-5.344 2.834-5.344 8.364 0 5.9971 1.958 7.5574 4.737 7.5574 1.543-.0106 2.427-.4777 3.108-1.2844z"/></g></svg>
