<svg xmlns="http://www.w3.org/2000/svg" fill="#707070" viewBox="0 0 1007.36 735.92">
  <g id="cartogram">
    <polygon id="WI02" points="579.42 220.72 588.61 226.03 588.61 236.64 579.42 241.94 570.23 236.64 570.23 226.03 579.42 220.72"/>
    <polygon id="WI01" points="616.18 220.72 625.37 226.03 625.37 236.64 616.18 241.94 606.99 236.64 606.99 226.03 616.18 220.72"/>
    <polygon id="WI08" points="597.8 188.89 606.99 194.2 606.99 204.81 597.8 210.11 588.61 204.81 588.61 194.2 597.8 188.89"/>
    <polygon id="WI07" points="579.42 188.89 588.61 194.2 588.61 204.81 579.42 210.11 570.23 204.81 570.23 194.2 579.42 188.89"/>
    <polygon id="WI10" points="561.04 188.89 570.23 194.2 570.23 204.81 561.04 210.11 551.85 204.81 551.85 194.2 561.04 188.89"/>
    <polygon id="WI09" points="570.23 172.97 579.42 178.28 579.42 188.89 570.23 194.2 561.04 188.89 561.04 178.28 570.23 172.97"/>
    <polygon id="WI06" points="588.61 204.81 597.8 210.11 597.8 220.72 588.61 226.03 579.42 220.72 579.42 210.11 588.61 204.81"/>
    <polygon id="WI05" points="597.8 220.72 606.99 226.03 606.99 236.64 597.8 241.94 588.61 236.64 588.61 226.03 597.8 220.72"/>
    <polygon id="WI04" points="606.99 204.81 616.18 210.11 616.18 220.72 606.99 226.03 597.8 220.72 597.8 210.11 606.99 204.81"/>
    <polygon id="WI03" points="570.23 204.81 579.42 210.11 579.42 220.72 570.23 226.03 561.04 220.72 561.04 210.11 570.23 204.81"/>
    <polygon id="WY03" points="331.31 268.47 340.5 273.78 340.5 284.39 331.31 289.69 322.12 284.39 322.12 273.78 331.31 268.47"/>
    <polygon id="WY02" points="312.93 268.47 322.12 273.78 322.12 284.39 312.93 289.69 303.74 284.39 303.74 273.78 312.93 268.47"/>
    <polygon id="WY01" points="294.55 268.47 303.74 273.78 303.74 284.39 294.55 289.69 285.37 284.39 285.37 273.78 294.55 268.47"/>
    <polygon id="HI04" points="285.37 698.21 294.55 703.51 294.55 714.12 285.37 719.43 276.18 714.12 276.18 703.51 285.37 698.21"/>
    <polygon id="HI03" points="276.18 682.29 285.37 687.6 285.37 698.21 276.18 703.51 266.99 698.21 266.99 687.6 276.18 682.29"/>
    <polygon id="HI02" points="266.99 666.37 276.18 671.68 276.18 682.29 266.99 687.6 257.8 682.29 257.8 671.68 266.99 666.37"/>
    <polygon id="HI01" points="257.8 650.46 266.99 655.76 266.99 666.37 257.8 671.68 248.61 666.37 248.61 655.76 257.8 650.46"/>
    <polygon id="AK03" points="119.96 634.54 129.15 639.85 129.15 650.46 119.96 655.76 110.77 650.46 110.77 639.85 119.96 634.54"/>
    <polygon id="AK02" points="110.77 650.46 119.96 655.76 119.96 666.37 110.77 671.68 101.58 666.37 101.58 655.76 110.77 650.46"/>
    <polygon id="AK01" points="101.58 634.59 110.77 639.9 110.77 650.51 101.58 655.82 92.39 650.51 92.39 639.9 101.58 634.59"/>
    <polygon id="MN08" points="505.9 188.89 515.1 194.2 515.1 204.81 505.9 210.11 496.72 204.81 496.72 194.2 505.9 188.89"/>
    <polygon id="MN10" points="524.28 188.89 533.47 194.2 533.47 204.81 524.28 210.11 515.1 204.81 515.1 194.2 524.28 188.89"/>
    <polygon id="MN07" points="478.34 204.81 487.53 210.11 487.53 220.72 478.34 226.03 469.15 220.72 469.15 210.11 478.34 204.81"/>
    <polygon id="MN06" points="487.53 188.89 496.72 194.2 496.72 204.81 487.53 210.11 478.34 204.81 478.34 194.2 487.53 188.89"/>
    <polygon id="MN09" points="469.15 188.89 478.34 194.2 478.34 204.81 469.15 210.11 459.96 204.81 459.96 194.2 469.15 188.89"/>
    <polygon id="MN05" points="487.53 220.72 496.72 226.03 496.72 236.64 487.53 241.94 478.34 236.64 478.34 226.03 487.53 220.72"/>
    <polygon id="MN04" points="515.1 204.81 524.28 210.11 524.28 220.72 515.1 226.03 505.9 220.72 505.9 210.11 515.1 204.81"/>
    <polygon id="MN03" points="496.72 204.81 505.9 210.11 505.9 220.72 496.72 226.03 487.53 220.72 487.53 210.11 496.72 204.81"/>
    <polygon id="MN02" points="524.28 220.72 533.47 226.03 533.47 236.64 524.28 241.94 515.1 236.64 515.1 226.03 524.28 220.72"/>
    <polygon id="MN01" points="505.9 220.72 515.1 226.03 515.1 236.64 505.9 241.94 496.72 236.64 496.72 226.03 505.9 220.72"/>
    <polygon id="MT01" points="312.93 172.97 322.12 178.28 322.12 188.89 312.93 194.2 303.74 188.89 303.74 178.28 312.93 172.97"/>
    <polygon id="MT03" points="303.74 188.89 312.93 194.2 312.93 204.81 303.74 210.11 294.55 204.81 294.55 194.2 303.74 188.89"/>
    <polygon id="MT02" points="331.31 172.97 340.5 178.28 340.5 188.89 331.31 194.2 322.12 188.89 322.12 178.28 331.31 172.97"/>
    <polygon id="MT04" points="322.12 188.89 331.31 194.2 331.31 204.81 322.12 210.11 312.93 204.81 312.93 194.2 322.12 188.89"/>
    <polygon id="SD03" points="423.2 268.47 432.39 273.78 432.39 284.39 423.2 289.69 414.01 284.39 414.01 273.78 423.2 268.47"/>
    <polygon id="SD02" points="414.01 252.56 423.2 257.86 423.2 268.47 414.01 273.78 404.82 268.47 404.82 257.86 414.01 252.56"/>
    <polygon id="SD01" points="432.39 252.56 441.58 257.86 441.58 268.47 432.39 273.78 423.2 268.47 423.2 257.86 432.39 252.56"/>
    <polygon id="ND03" points="404.82 172.97 414.01 178.28 414.01 188.89 404.82 194.2 395.63 188.89 395.63 178.28 404.82 172.97"/>
    <polygon id="ND02" points="395.63 188.89 404.82 194.2 404.82 204.81 395.63 210.11 386.45 204.81 386.45 194.2 395.63 188.89"/>
    <polygon id="ND01" points="414.01 188.89 423.2 194.2 423.2 204.81 414.01 210.11 404.82 204.81 404.82 194.2 414.01 188.89"/>
    <polygon id="IA04" points="542.66 316.22 551.85 321.52 551.85 332.13 542.66 337.44 533.47 332.13 533.47 321.52 542.66 316.22"/>
    <polygon id="IA03" points="551.85 332.13 561.04 337.44 561.04 348.05 551.85 353.36 542.66 348.05 542.66 337.44 551.85 332.13"/>
    <polygon id="IA06" points="524.28 316.22 533.47 321.52 533.47 332.13 524.28 337.44 515.1 332.13 515.1 321.52 524.28 316.22"/>
    <polygon id="IA05" points="533.47 332.13 542.66 337.44 542.66 348.05 533.47 353.36 524.28 348.05 524.28 337.44 533.47 332.13"/>
    <polygon id="IA02" points="561.04 316.22 570.23 321.52 570.23 332.13 561.04 337.44 551.85 332.13 551.85 321.52 561.04 316.22"/>
    <polygon id="IA01" points="570.23 332.13 579.42 337.44 579.42 348.05 570.23 353.36 561.04 348.05 561.04 337.44 570.23 332.13"/>
    <polygon id="NE03" points="395.63 316.22 404.82 321.52 404.82 332.13 395.63 337.44 386.45 332.13 386.45 321.52 395.63 316.22"/>
    <polygon id="NE02" points="432.39 316.22 441.58 321.52 441.58 332.13 432.39 337.44 423.2 332.13 423.2 321.52 432.39 316.22"/>
    <polygon id="NE01" points="414.01 316.22 423.2 321.52 423.2 332.13 414.01 337.44 404.82 332.13 404.82 321.52 414.01 316.22"/>
    <polygon id="NE05" points="441.58 332.13 450.77 337.44 450.77 348.05 441.58 353.36 432.39 348.05 432.39 337.44 441.58 332.13"/>
    <polygon id="NE04" points="423.2 332.13 432.39 337.44 432.39 348.05 423.2 353.36 414.01 348.05 414.01 337.44 423.2 332.13"/>
    <polygon id="MO03" points="579.42 411.72 588.61 417.02 588.61 427.63 579.42 432.94 570.23 427.63 570.23 417.02 579.42 411.72"/>
    <polygon id="MO02" points="597.8 411.72 606.99 417.02 606.99 427.63 597.8 432.94 588.61 427.63 588.61 417.02 597.8 411.72"/>
    <polygon id="MO01" points="616.18 411.72 625.37 417.02 625.37 427.63 616.18 432.94 606.99 427.63 606.99 417.02 616.18 411.72"/>
    <polygon id="MO04" points="570.23 427.63 579.42 432.94 579.42 443.55 570.23 448.85 561.04 443.55 561.04 432.94 570.23 427.63"/>
    <polygon id="MO08" points="606.99 427.63 616.18 432.94 616.18 443.55 606.99 448.85 597.8 443.55 597.8 432.94 606.99 427.63"/>
    <polygon id="MO07" points="588.61 427.63 597.8 432.94 597.8 443.55 588.61 448.85 579.42 443.55 579.42 432.94 588.61 427.63"/>
    <polygon id="MO06" points="570.23 395.8 579.42 401.11 579.42 411.72 570.23 417.02 561.04 411.72 561.04 401.11 570.23 395.8"/>
    <polygon id="MO09" points="588.61 395.8 597.8 401.11 597.8 411.72 588.61 417.02 579.42 411.72 579.42 401.11 588.61 395.8"/>
    <polygon id="MO10" points="606.99 395.8 616.18 401.11 616.18 411.72 606.99 417.02 597.8 411.72 597.8 401.11 606.99 395.8"/>
    <polygon id="MO05" points="561.04 411.72 570.23 417.02 570.23 427.63 561.04 432.94 551.85 427.63 551.85 417.02 561.04 411.72"/>
    <polygon id="KS04" points="450.77 411.72 459.96 417.02 459.96 427.63 450.77 432.94 441.58 427.63 441.58 417.02 450.77 411.72"/>
    <polygon id="KS03" points="487.53 411.72 496.72 417.02 496.72 427.63 487.53 432.94 478.34 427.63 478.34 417.02 487.53 411.72"/>
    <polygon id="KS02" points="469.15 411.72 478.34 417.02 478.34 427.63 469.15 432.94 459.96 427.63 459.96 417.02 469.15 411.72"/>
    <polygon id="KS06" points="441.58 395.8 450.77 401.11 450.77 411.72 441.58 417.02 432.39 411.72 432.39 401.11 441.58 395.8"/>
    <polygon id="KS05" points="459.96 395.8 469.15 401.11 469.15 411.72 459.96 417.02 450.77 411.72 450.77 401.11 459.96 395.8"/>
    <polygon id="KS01" points="432.39 411.72 441.58 417.02 441.58 427.63 432.39 432.94 423.2 427.63 423.2 417.02 432.39 411.72"/>
    <polygon id="OK05" points="469.15 507.21 478.34 512.52 478.34 523.13 469.15 528.43 459.96 523.13 459.96 512.52 469.15 507.21"/>
    <polygon id="OK04" points="459.96 523.13 469.15 528.43 469.15 539.04 459.96 544.35 450.77 539.04 450.77 528.43 459.96 523.13"/>
    <polygon id="OK03" points="450.77 507.21 459.96 512.52 459.96 523.13 450.77 528.43 441.58 523.13 441.58 512.52 450.77 507.21"/>
    <polygon id="OK07" points="441.58 491.3 450.77 496.6 450.77 507.21 441.58 512.52 432.39 507.21 432.39 496.6 441.58 491.3"/>
    <polygon id="OK06" points="459.96 491.3 469.15 496.6 469.15 507.21 459.96 512.52 450.77 507.21 450.77 496.6 459.96 491.3"/>
    <polygon id="OK02" points="478.34 523.13 487.53 528.43 487.53 539.04 478.34 544.35 469.15 539.04 469.15 528.43 478.34 523.13"/>
    <polygon id="OK01" points="423.2 491.3 432.39 496.6 432.39 507.21 423.2 512.52 414.01 507.21 414.01 496.6 423.2 491.3"/>
    <polygon id="AR01" points="579.42 507.21 588.61 512.52 588.61 523.13 579.42 528.43 570.23 523.13 570.23 512.52 579.42 507.21"/>
    <polygon id="AR04" points="551.85 523.13 561.04 528.43 561.04 539.04 551.85 544.35 542.66 539.04 542.66 528.43 551.85 523.13"/>
    <polygon id="AR03" points="561.04 507.21 570.23 512.52 570.23 523.13 561.04 528.43 551.85 523.13 551.85 512.52 561.04 507.21"/>
    <polygon id="AR02" points="570.23 523.13 579.42 528.43 579.42 539.04 570.23 544.35 561.04 539.04 561.04 528.43 570.23 523.13"/>
    <polygon id="AR06" points="597.8 507.21 606.99 512.52 606.99 523.13 597.8 528.43 588.61 523.13 588.61 512.52 597.8 507.21"/>
    <polygon id="AR05" points="588.61 523.13 597.8 528.43 597.8 539.04 588.61 544.35 579.42 539.04 579.42 528.43 588.61 523.13"/>
    <polygon id="CO08" points="322.12 379.88 331.31 385.19 331.31 395.8 322.12 401.11 312.93 395.8 312.93 385.19 322.12 379.88"/>
    <polygon id="CO07" points="322.12 411.72 331.31 417.02 331.31 427.63 322.12 432.94 312.93 427.63 312.93 417.02 322.12 411.72"/>
    <polygon id="CO06" points="349.69 395.8 358.88 401.11 358.88 411.72 349.69 417.02 340.5 411.72 340.5 401.11 349.69 395.8"/>
    <polygon id="CO09" points="358.88 379.88 368.07 385.19 368.07 395.8 358.88 401.11 349.69 395.8 349.69 385.19 358.88 379.88"/>
    <polygon id="CO10" points="349.69 363.97 358.88 369.27 358.88 379.88 349.69 385.19 340.5 379.88 340.5 369.27 349.69 363.97"/>
    <polygon id="CO05" points="331.31 395.8 340.5 401.11 340.5 411.72 331.31 417.02 322.12 411.72 322.12 401.11 331.31 395.8"/>
    <polygon id="CO04" points="340.5 411.72 349.69 417.02 349.69 427.63 340.5 432.94 331.31 427.63 331.31 417.02 340.5 411.72"/>
    <polygon id="CO03" points="303.74 411.72 312.93 417.02 312.93 427.63 303.74 432.94 294.55 427.63 294.55 417.02 303.74 411.72"/>
    <polygon id="CO02" points="312.93 395.8 322.12 401.11 322.12 411.72 312.93 417.02 303.74 411.72 303.74 401.11 312.93 395.8"/>
    <polygon id="CO01" points="340.5 379.88 349.69 385.19 349.69 395.8 340.5 401.11 331.31 395.8 331.31 385.19 340.5 379.88"/>
    <polygon id="UT04" points="221.04 363.97 230.23 369.27 230.23 379.88 221.04 385.19 211.85 379.88 211.85 369.27 221.04 363.97"/>
    <polygon id="UT06" points="239.42 363.97 248.61 369.27 248.61 379.88 239.42 385.19 230.23 379.88 230.23 369.27 239.42 363.97"/>
    <polygon id="UT05" points="202.66 363.97 211.85 369.27 211.85 379.88 202.66 385.19 193.47 379.88 193.47 369.27 202.66 363.97"/>
    <polygon id="UT03" points="230.23 379.88 239.42 385.19 239.42 395.8 230.23 401.11 221.04 395.8 221.04 385.19 230.23 379.88"/>
    <polygon id="UT02" points="211.85 379.88 221.04 385.19 221.04 395.8 211.85 401.11 202.66 395.8 202.66 385.19 211.85 379.88"/>
    <polygon id="UT01" points="211.85 348.05 221.04 353.36 221.04 363.97 211.85 369.27 202.66 363.97 202.66 353.36 211.85 348.05"/>
    <polygon id="ID02" points="202.66 172.97 211.85 178.28 211.85 188.88 202.66 194.19 193.47 188.88 193.47 178.28 202.66 172.97"/>
    <polygon id="ID01" points="193.47 157.05 202.66 162.36 202.66 172.97 193.47 178.28 184.28 172.97 184.28 162.36 193.47 157.05"/>
    <polygon id="ID04" points="211.85 188.88 221.03 194.19 221.03 204.8 211.85 210.11 202.66 204.8 202.66 194.19 211.85 188.88"/>
    <polygon id="ID03" points="193.47 188.88 202.66 194.19 202.66 204.8 193.47 210.11 184.28 204.8 184.28 194.19 193.47 188.88"/>
    <polygon id="NV04" points="110.77 300.3 119.96 305.61 119.96 316.22 110.77 321.52 101.58 316.22 101.58 305.61 110.77 300.3"/>
    <polygon id="NV03" points="119.96 316.22 129.15 321.52 129.15 332.13 119.96 337.44 110.77 332.13 110.77 321.52 119.96 316.22"/>
    <polygon id="NV02" points="129.15 300.3 138.34 305.61 138.34 316.22 129.15 321.52 119.96 316.22 119.96 305.61 129.15 300.3"/>
    <polygon id="NV05" points="138.34 316.22 147.53 321.52 147.53 332.13 138.34 337.44 129.15 332.13 129.15 321.52 138.34 316.22"/>
    <polygon id="NV06" points="147.53 332.13 156.72 337.44 156.72 348.05 147.53 353.35 138.34 348.05 138.34 337.44 147.53 332.13"/>
    <polygon id="NV01" points="129.15 332.13 138.34 337.44 138.34 348.05 129.15 353.35 119.96 348.05 119.96 337.44 129.15 332.13"/>
    <polygon id="WA12" points="129.15 141.14 138.34 146.45 138.34 157.06 129.15 162.36 119.96 157.06 119.96 146.45 129.15 141.14"/>
    <polygon id="WA11" points="110.77 141.14 119.96 146.45 119.96 157.06 110.77 162.36 101.58 157.06 101.58 146.45 110.77 141.14"/>
    <polygon id="WA10" points="74.01 141.14 83.2 146.45 83.2 157.06 74.01 162.36 64.82 157.06 64.82 146.45 74.01 141.14"/>
    <polygon id="WA09" points="101.58 125.23 110.77 130.53 110.77 141.14 101.58 146.45 92.39 141.14 92.39 130.53 101.58 125.23"/>
    <polygon id="WA08" points="119.96 125.23 129.15 130.53 129.15 141.14 119.96 146.45 110.77 141.14 110.77 130.53 119.96 125.23"/>
    <polygon id="WA07" points="83.2 125.23 92.39 130.53 92.39 141.14 83.2 146.45 74.01 141.14 74.01 130.53 83.2 125.23"/>
    <polygon id="WA06" points="74.01 109.31 83.2 114.61 83.2 125.23 74.01 130.53 64.82 125.23 64.82 114.61 74.01 109.31"/>
    <polygon id="WA05" points="129.15 109.31 138.34 114.61 138.34 125.23 129.15 130.53 119.96 125.23 119.96 114.61 129.15 109.31"/>
    <polygon id="WA04" points="110.77 109.31 119.96 114.61 119.96 125.23 110.77 130.53 101.58 125.23 101.58 114.61 110.77 109.31"/>
    <polygon id="WA03" points="92.39 141.14 101.58 146.45 101.58 157.06 92.39 162.36 83.2 157.06 83.2 146.45 92.39 141.14"/>
    <polygon id="WA02" points="101.58 93.39 110.77 98.7 110.77 109.31 101.58 114.61 92.39 109.31 92.39 98.7 101.58 93.39"/>
    <polygon id="WA01" points="92.39 109.31 101.58 114.61 101.58 125.23 92.39 130.53 83.2 125.23 83.2 114.61 92.39 109.31"/>
    <polygon id="OR03" points="64.82 220.72 74.01 226.03 74.01 236.64 64.82 241.94 55.63 236.64 55.63 226.03 64.82 220.72"/>
    <polygon id="OR06" points="46.45 220.72 55.63 226.03 55.63 236.64 46.45 241.94 37.26 236.64 37.26 226.03 46.45 220.72"/>
    <polygon id="OR05" points="74.01 236.64 83.2 241.94 83.2 252.56 74.01 257.86 64.82 252.56 64.82 241.94 74.01 236.64"/>
    <polygon id="OR04" points="37.26 236.64 46.45 241.94 46.45 252.56 37.26 257.86 28.07 252.56 28.07 241.94 37.26 236.64"/>
    <polygon id="OR08" points="92.39 204.81 101.58 210.11 101.58 220.72 92.39 226.03 83.2 220.72 83.2 210.11 92.39 204.81"/>
    <polygon id="OR07" points="55.63 236.64 64.82 241.94 64.82 252.56 55.63 257.86 46.45 252.56 46.45 241.94 55.63 236.64"/>
    <polygon id="OR02" points="83.2 220.72 92.39 226.03 92.39 236.64 83.2 241.94 74.01 236.64 74.01 226.03 83.2 220.72"/>
    <polygon id="OR01" points="55.63 204.81 64.82 210.11 64.82 220.72 55.63 226.03 46.45 220.72 46.45 210.11 55.63 204.81"/>
    <polygon id="AZ10" points="193.47 475.38 202.66 480.69 202.66 491.3 193.47 496.6 184.28 491.3 184.28 480.69 193.47 475.38"/>
    <polygon id="AZ09" points="175.09 539.04 184.28 544.35 184.28 554.96 175.09 560.27 165.91 554.96 165.91 544.35 175.09 539.04"/>
    <polygon id="AZ11" points="193.47 539.04 202.66 544.35 202.66 554.96 193.47 560.27 184.28 554.96 184.28 544.35 193.47 539.04"/>
    <polygon id="AZ08" points="184.28 491.3 193.47 496.6 193.47 507.21 184.28 512.52 175.09 507.21 175.09 496.6 184.28 491.3"/>
    <polygon id="AZ07" points="184.28 523.13 193.47 528.43 193.47 539.04 184.28 544.35 175.09 539.04 175.09 528.43 184.28 523.13"/>
    <polygon id="AZ06" points="202.66 523.13 211.85 528.43 211.85 539.04 202.66 544.35 193.47 539.04 193.47 528.43 202.66 523.13"/>
    <polygon id="AZ05" points="211.85 507.21 221.04 512.52 221.04 523.13 211.85 528.43 202.66 523.13 202.66 512.52 211.85 507.21"/>
    <polygon id="AZ04" points="193.47 507.21 202.66 512.52 202.66 523.13 193.47 528.43 184.28 523.13 184.28 512.52 193.47 507.21"/>
    <polygon id="AZ03" points="175.09 507.21 184.28 512.52 184.28 523.13 175.09 528.43 165.91 523.13 165.91 512.52 175.09 507.21"/>
    <polygon id="AZ02" points="211.85 475.38 221.04 480.69 221.04 491.3 211.85 496.6 202.66 491.3 202.66 480.69 211.85 475.38"/>
    <polygon id="AZ01" points="202.66 491.3 211.85 496.6 211.85 507.21 202.66 512.52 193.47 507.21 193.47 496.6 202.66 491.3"/>
    <polygon id="NM03" points="340.5 507.21 349.69 512.52 349.69 523.13 340.5 528.43 331.31 523.13 331.31 512.52 340.5 507.21"/>
    <polygon id="NM02" points="322.12 539.04 331.31 544.35 331.31 554.96 322.12 560.27 312.93 554.96 312.93 544.35 322.12 539.04"/>
    <polygon id="NM04" points="312.93 523.13 322.12 528.43 322.12 539.04 312.93 544.35 303.74 539.04 303.74 528.43 312.93 523.13"/>
    <polygon id="NM05" points="322.12 507.21 331.31 512.52 331.31 523.13 322.12 528.43 312.93 523.13 312.93 512.52 322.12 507.21"/>
    <polygon id="NM01" points="331.31 523.13 340.5 528.43 340.5 539.04 331.31 544.35 322.12 539.04 322.12 528.43 331.31 523.13"/>
    <polygon id="LA06" points="542.66 570.88 551.85 576.18 551.85 586.79 542.66 592.1 533.47 586.79 533.47 576.18 542.66 570.88"/>
    <polygon id="LA05" points="551.85 554.96 561.04 560.27 561.04 570.88 551.85 576.18 542.66 570.88 542.66 560.27 551.85 554.96"/>
    <polygon id="LA04" points="533.47 554.96 542.66 560.27 542.66 570.88 533.47 576.18 524.28 570.88 524.28 560.27 533.47 554.96"/>
    <polygon id="LA03" points="524.28 570.88 533.47 576.18 533.47 586.79 524.28 592.1 515.1 586.79 515.1 576.18 524.28 570.88"/>
    <polygon id="LA01" points="570.23 586.79 579.42 592.1 579.42 602.71 570.23 608.01 561.04 602.71 561.04 592.1 570.23 586.79"/>
    <polygon id="LA07" points="551.85 586.79 561.04 592.1 561.04 602.71 551.85 608.01 542.66 602.71 542.66 592.1 551.85 586.79"/>
    <polygon id="LA08" points="533.47 586.79 542.66 592.1 542.66 602.71 533.47 608.01 524.28 602.71 524.28 592.1 533.47 586.79"/>
    <polygon id="LA02" points="561.04 570.88 570.23 576.18 570.23 586.79 561.04 592.1 551.85 586.79 551.85 576.18 561.04 570.88"/>
    <polygon id="MS04" points="606.99 586.79 616.18 592.1 616.18 602.71 606.99 608.01 597.8 602.71 597.8 592.1 606.99 586.79"/>
    <polygon id="MS03" points="616.18 570.88 625.37 576.18 625.37 586.79 616.18 592.1 606.99 586.79 606.99 576.18 616.18 570.88"/>
    <polygon id="MS02" points="597.8 570.88 606.99 576.18 606.99 586.79 597.8 592.1 588.61 586.79 588.61 576.18 597.8 570.88"/>
    <polygon id="MS01" points="606.99 554.96 616.18 560.27 616.18 570.88 606.99 576.18 597.8 570.88 597.8 560.27 606.99 554.96"/>
    <polygon id="MS05" points="588.61 554.96 597.8 560.27 597.8 570.88 588.61 576.18 579.42 570.88 579.42 560.27 588.61 554.96"/>
    <polygon id="MS06" points="625.37 586.79 634.55 592.1 634.55 602.71 625.37 608.01 616.18 602.71 616.18 592.1 625.37 586.79"/>
    <polygon id="AL07" points="662.12 523.13 671.31 528.43 671.31 539.04 662.12 544.35 652.93 539.04 652.93 528.43 662.12 523.13"/>
    <polygon id="AL06" points="680.5 523.13 689.69 528.43 689.69 539.04 680.5 544.35 671.31 539.04 671.31 528.43 680.5 523.13"/>
    <polygon id="AL05" points="662.12 491.3 671.31 496.6 671.31 507.21 662.12 512.52 652.93 507.21 652.93 496.6 662.12 491.3"/>
    <polygon id="AL04" points="652.93 507.21 662.12 512.52 662.12 523.13 652.93 528.43 643.74 523.13 643.74 512.52 652.93 507.21"/>
    <polygon id="AL08" points="643.74 491.3 652.93 496.6 652.93 507.21 643.74 512.52 634.55 507.21 634.55 496.6 643.74 491.3"/>
    <polygon id="AL03" points="671.31 507.21 680.5 512.52 680.5 523.13 671.31 528.43 662.12 523.13 662.12 512.52 671.31 507.21"/>
    <polygon id="AL02" points="689.69 539.04 698.88 544.35 698.88 554.96 689.69 560.27 680.5 554.96 680.5 544.35 689.69 539.04"/>
    <polygon id="AL01" points="671.31 539.04 680.5 544.35 680.5 554.96 671.31 560.27 662.12 554.96 662.12 544.35 671.31 539.04"/>
    <polygon id="AL09" points="680.5 554.96 689.69 560.27 689.69 570.88 680.5 576.18 671.31 570.88 671.31 560.27 680.5 554.96"/>
    <polygon id="SC02" points="845.9 554.96 855.1 560.27 855.1 570.88 845.9 576.18 836.72 570.88 836.72 560.27 845.9 554.96"/>
    <polygon id="SC07" points="855.1 539.04 864.28 544.35 864.28 554.96 855.1 560.27 845.9 554.96 845.9 544.35 855.1 539.04"/>
    <polygon id="SC08" points="864.28 554.96 873.47 560.27 873.47 570.88 864.28 576.18 855.1 570.88 855.1 560.27 864.28 554.96"/>
    <polygon id="SC09" points="873.47 570.88 882.66 576.18 882.66 586.79 873.47 592.1 864.28 586.79 864.28 576.18 873.47 570.88"/>
    <polygon id="SC06" points="836.72 570.88 845.9 576.18 845.9 586.79 836.72 592.1 827.53 586.79 827.53 576.18 836.72 570.88"/>
    <polygon id="SC05" points="836.72 539.04 845.9 544.35 845.9 554.96 836.72 560.27 827.53 554.96 827.53 544.35 836.72 539.04"/>
    <polygon id="SC04" points="818.34 539.04 827.53 544.35 827.53 554.96 818.34 560.27 809.15 554.96 809.15 544.35 818.34 539.04"/>
    <polygon id="SC03" points="827.53 554.96 836.72 560.27 836.72 570.88 827.53 576.18 818.34 570.88 818.34 560.27 827.53 554.96"/>
    <polygon id="SC01" points="855.1 570.88 864.28 576.18 864.28 586.79 855.1 592.1 845.9 586.79 845.9 576.18 855.1 570.88"/>
    <polygon id="RI02" points="956.18 141.14 965.37 146.45 965.37 157.06 956.18 162.36 946.99 157.06 946.99 146.45 956.18 141.14"/>
    <polygon id="RI01" points="965.37 125.23 974.55 130.53 974.55 141.14 965.37 146.45 956.18 141.14 956.18 130.53 965.37 125.23"/>
    <polygon id="RI03" points="974.55 141.14 983.74 146.45 983.74 157.06 974.55 162.36 965.37 157.06 965.37 146.45 974.55 141.14"/>
    <polygon id="RI04" points="983.74 125.23 992.93 130.53 992.93 141.14 983.74 146.45 974.55 141.14 974.55 130.53 983.74 125.23"/>
    <polygon id="ME02" points="919.42 13.81 928.61 19.12 928.61 29.73 919.42 35.03 910.23 29.73 910.23 19.12 919.42 13.81"/>
    <polygon id="ME01" points="928.61 29.73 937.8 35.03 937.8 45.65 928.61 50.95 919.42 45.65 919.42 35.03 928.61 29.73"/>
    <polygon id="ME03" points="937.8 13.81 946.99 19.12 946.99 29.73 937.8 35.03 928.61 29.73 928.61 19.12 937.8 13.81"/>
    <polygon id="ME04" points="946.99 29.73 956.18 35.03 956.18 45.65 946.99 50.95 937.8 45.65 937.8 35.03 946.99 29.73"/>
    <polygon id="NH04" points="873.47 29.73 882.66 35.03 882.66 45.65 873.47 50.95 864.28 45.65 864.28 35.03 873.47 29.73"/>
    <polygon id="NH03" points="882.66 45.65 891.85 50.95 891.85 61.56 882.66 66.87 873.47 61.56 873.47 50.95 882.66 45.65"/>
    <polygon id="NH02" points="882.66 13.81 891.85 19.12 891.85 29.73 882.66 35.03 873.47 29.73 873.47 19.12 882.66 13.81"/>
    <polygon id="NH01" points="891.85 29.73 901.04 35.03 901.04 45.65 891.85 50.95 882.66 45.65 882.66 35.03 891.85 29.73"/>
    <polygon id="VT03" points="836.72 61.61 845.9 66.92 845.9 77.53 836.72 82.83 827.53 77.53 827.53 66.92 836.72 61.61"/>
    <polygon id="VT02" points="827.53 77.48 836.72 82.78 836.72 93.39 827.53 98.7 818.34 93.39 818.34 82.78 827.53 77.48"/>
    <polygon id="VT01" points="818.34 61.61 827.53 66.92 827.53 77.53 818.34 82.83 809.15 77.53 809.15 66.92 818.34 61.61"/>
    <polygon id="KY06" points="689.69 443.55 698.88 448.85 698.88 459.46 689.69 464.77 680.5 459.46 680.5 448.85 689.69 443.55"/>
    <polygon id="KY05" points="671.31 443.55 680.5 448.85 680.5 459.46 671.31 464.77 662.12 459.46 662.12 448.85 671.31 443.55"/>
    <polygon id="KY04" points="680.5 427.63 689.69 432.94 689.69 443.55 680.5 448.85 671.31 443.55 671.31 432.94 680.5 427.63"/>
    <polygon id="KY07" points="698.88 427.63 708.07 432.94 708.07 443.55 698.88 448.85 689.69 443.55 689.69 432.94 698.88 427.63"/>
    <polygon id="KY08" points="689.69 411.72 698.88 417.02 698.88 427.63 689.69 432.94 680.5 427.63 680.5 417.02 689.69 411.72"/>
    <polygon id="KY03" points="662.12 427.63 671.31 432.94 671.31 443.55 662.12 448.85 652.93 443.55 652.93 432.94 662.12 427.63"/>
    <polygon id="KY02" points="708.07 443.55 717.26 448.85 717.26 459.46 708.07 464.77 698.88 459.46 698.88 448.85 708.07 443.55"/>
    <polygon id="KY01" points="652.93 443.55 662.12 448.85 662.12 459.46 652.93 464.77 643.74 459.46 643.74 448.85 652.93 443.55"/>
    <polygon id="WV02" points="809.15 363.96 818.34 369.27 818.34 379.88 809.15 385.18 799.96 379.88 799.96 369.27 809.15 363.96"/>
    <polygon id="WV03" points="790.77 363.96 799.96 369.27 799.96 379.88 790.77 385.18 781.58 379.88 781.58 369.27 790.77 363.96"/>
    <polygon id="WV04" points="799.96 379.88 809.15 385.18 809.15 395.8 799.96 401.1 790.77 395.8 790.77 385.18 799.96 379.88"/>
    <polygon id="WV01" points="818.34 379.88 827.53 385.18 827.53 395.8 818.34 401.1 809.15 395.8 809.15 385.18 818.34 379.88"/>
    <polygon id="MD02" points="882.66 332.13 891.85 337.44 891.85 348.05 882.66 353.36 873.47 348.05 873.47 337.44 882.66 332.13"/>
    <polygon id="MD01" points="919.42 363.97 928.61 369.27 928.61 379.88 919.42 385.19 910.23 379.88 910.23 369.27 919.42 363.97"/>
    <polygon id="MD08" points="873.47 348.05 882.66 353.36 882.66 363.97 873.47 369.27 864.28 363.97 864.28 353.36 873.47 348.05"/>
    <polygon id="MD09" points="901.04 363.97 910.23 369.27 910.23 379.88 901.04 385.19 891.85 379.88 891.85 369.27 901.04 363.97"/>
    <polygon id="MD10" points="928.61 348.05 937.8 353.36 937.8 363.97 928.61 369.27 919.42 363.97 919.42 353.36 928.61 348.05"/>
    <polygon id="MD07" points="901.04 332.13 910.23 337.44 910.23 348.05 901.04 353.36 891.85 348.05 891.85 337.44 901.04 332.13"/>
    <polygon id="MD06" points="864.28 332.13 873.47 337.44 873.47 348.05 864.28 353.36 855.1 348.05 855.1 337.44 864.28 332.13"/>
    <polygon id="MD05" points="882.66 363.97 891.85 369.27 891.85 379.88 882.66 385.19 873.47 379.88 873.47 369.27 882.66 363.97"/>
    <polygon id="MD04" points="891.85 348.05 901.04 353.36 901.04 363.97 891.85 369.27 882.66 363.97 882.66 353.36 891.85 348.05"/>
    <polygon id="MD03" points="910.23 348.05 919.42 353.36 919.42 363.97 910.23 369.27 901.04 363.97 901.04 353.36 910.23 348.05"/>
    <polygon id="DE03" points="873.47 284.39 882.66 289.69 882.66 300.3 873.47 305.61 864.28 300.3 864.28 289.69 873.47 284.39"/>
    <polygon id="DE02" points="891.85 284.39 901.04 289.69 901.04 300.3 891.85 305.61 882.66 300.3 882.66 289.69 891.85 284.39"/>
    <polygon id="DE01" points="882.66 300.3 891.85 305.61 891.85 316.22 882.66 321.52 873.47 316.22 873.47 305.61 882.66 300.3"/>
    <polygon id="IN10" points="744.82 379.88 754.01 385.19 754.01 395.8 744.82 401.11 735.63 395.8 735.63 385.19 744.82 379.88"/>
    <polygon id="IN11" points="717.26 395.8 726.45 401.11 726.45 411.72 717.26 417.02 708.07 411.72 708.07 401.11 717.26 395.8"/>
    <polygon id="IN09" points="735.63 395.8 744.82 401.11 744.82 411.72 735.63 417.02 726.45 411.72 726.45 401.11 735.63 395.8"/>
    <polygon id="IN08" points="726.45 379.88 735.63 385.19 735.63 395.8 726.45 401.11 717.26 395.8 717.26 385.19 726.45 379.88"/>
    <polygon id="IN07" points="708.07 379.88 717.26 385.19 717.26 395.8 708.07 401.11 698.88 395.8 698.88 385.19 708.07 379.88"/>
    <polygon id="IN06" points="735.63 363.97 744.82 369.27 744.82 379.88 735.63 385.19 726.45 379.88 726.45 369.27 735.63 363.97"/>
    <polygon id="IN05" points="717.26 363.97 726.45 369.27 726.45 379.88 717.26 385.19 708.07 379.88 708.07 369.27 717.26 363.97"/>
    <polygon id="IN04" points="698.88 363.97 708.07 369.27 708.07 379.88 698.88 385.19 689.69 379.88 689.69 369.27 698.88 363.97"/>
    <polygon id="IN03" points="726.45 348.05 735.63 353.36 735.63 363.97 726.45 369.27 717.26 363.97 717.26 353.36 726.45 348.05"/>
    <polygon id="IN02" points="708.07 348.05 717.26 353.36 717.26 363.97 708.07 369.27 698.88 363.97 698.88 353.36 708.07 348.05"/>
    <polygon id="IN01" points="689.69 348.05 698.88 353.36 698.88 363.97 689.69 369.27 680.5 363.97 680.5 353.36 689.69 348.05"/>
    <polygon id="CT05" points="891.85 125.23 901.04 130.53 901.04 141.14 891.85 146.45 882.66 141.14 882.66 130.53 891.85 125.23"/>
    <polygon id="CT06" points="873.47 125.23 882.66 130.53 882.66 141.14 873.47 146.45 864.28 141.14 864.28 130.53 873.47 125.23"/>
    <polygon id="CT07" points="882.66 109.31 891.85 114.61 891.85 125.23 882.66 130.53 873.47 125.23 873.47 114.61 882.66 109.31"/>
    <polygon id="CT04" points="882.66 141.14 891.85 146.45 891.85 157.06 882.66 162.36 873.47 157.06 873.47 146.45 882.66 141.14"/>
    <polygon id="CT03" points="901.04 141.14 910.23 146.45 910.23 157.06 901.04 162.36 891.85 157.06 891.85 146.45 901.04 141.14"/>
    <polygon id="CT02" points="910.23 125.23 919.42 130.53 919.42 141.14 910.23 146.45 901.04 141.14 901.04 130.53 910.23 125.23"/>
    <polygon id="CT01" points="901.04 109.31 910.23 114.61 910.23 125.23 901.04 130.53 891.85 125.23 891.85 114.61 901.04 109.31"/>
    <polygon id="OH10" points="726.45 316.22 735.63 321.52 735.63 332.13 726.45 337.44 717.26 332.13 717.26 321.52 726.45 316.22"/>
    <polygon id="OH09" points="717.26 268.47 726.45 273.78 726.45 284.39 717.26 289.69 708.07 284.39 708.07 273.78 717.26 268.47"/>
    <polygon id="OH08" points="708.07 284.39 717.26 289.69 717.26 300.3 708.07 305.61 698.88 300.3 698.88 289.69 708.07 284.39"/>
    <polygon id="OH07" points="744.82 284.39 754.01 289.69 754.01 300.3 744.82 305.61 735.63 300.3 735.63 289.69 744.82 284.39"/>
    <polygon id="OH06" points="772.39 300.3 781.58 305.61 781.58 316.22 772.39 321.52 763.2 316.22 763.2 305.61 772.39 300.3"/>
    <polygon id="OH05" points="735.63 268.47 744.82 273.78 744.82 284.39 735.63 289.69 726.45 284.39 726.45 273.78 735.63 268.47"/>
    <polygon id="OH15" points="717.26 300.3 726.45 305.61 726.45 316.22 717.26 321.52 708.07 316.22 708.07 305.61 717.26 300.3"/>
    <polygon id="OH16" points="781.58 316.22 790.77 321.52 790.77 332.13 781.58 337.44 772.39 332.13 772.39 321.52 781.58 316.22"/>
    <polygon id="OH17" points="781.58 284.39 790.77 289.69 790.77 300.3 781.58 305.61 772.39 300.3 772.39 289.69 781.58 284.39"/>
    <polygon id="OH04" points="726.45 284.39 735.63 289.69 735.63 300.3 726.45 305.61 717.26 300.3 717.26 289.69 726.45 284.39"/>
    <polygon id="OH03" points="735.63 300.3 744.82 305.61 744.82 316.22 735.63 321.52 726.45 316.22 726.45 305.61 735.63 300.3"/>
    <polygon id="OH14" points="772.39 268.47 781.58 273.78 781.58 284.39 772.39 289.69 763.2 284.39 763.2 273.78 772.39 268.47"/>
    <polygon id="OH13" points="763.2 284.39 772.39 289.69 772.39 300.3 763.2 305.61 754.01 300.3 754.01 289.69 763.2 284.39"/>
    <polygon id="OH02" points="763.2 316.22 772.39 321.52 772.39 332.13 763.2 337.44 754.01 332.13 754.01 321.52 763.2 316.22"/>
    <polygon id="OH01" points="744.82 316.22 754.01 321.52 754.01 332.13 744.82 337.44 735.63 332.13 735.63 321.52 744.82 316.22"/>
    <polygon id="OH12" points="754.01 300.3 763.2 305.61 763.2 316.22 754.01 321.52 744.82 316.22 744.82 305.61 754.01 300.3"/>
    <polygon id="OH11" points="754.01 268.47 763.2 273.78 763.2 284.39 754.01 289.69 744.82 284.39 744.82 273.78 754.01 268.47"/>
    <polygon id="VA10" points="901.04 395.8 910.23 401.11 910.23 411.72 901.04 417.02 891.85 411.72 891.85 401.11 901.04 395.8"/>
    <polygon id="VA09" points="864.28 427.63 873.47 432.94 873.47 443.55 864.28 448.85 855.1 443.55 855.1 432.94 864.28 427.63"/>
    <polygon id="VA08" points="910.23 411.72 919.42 417.02 919.42 427.63 910.23 432.94 901.04 427.63 901.04 417.02 910.23 411.72"/>
    <polygon id="VA07" points="882.66 395.8 891.85 401.11 891.85 411.72 882.66 417.02 873.47 411.72 873.47 401.11 882.66 395.8"/>
    <polygon id="VA06" points="873.47 411.72 882.66 417.02 882.66 427.63 873.47 432.94 864.28 427.63 864.28 417.02 873.47 411.72"/>
    <polygon id="VA05" points="882.66 427.63 891.85 432.94 891.85 443.55 882.66 448.85 873.47 443.55 873.47 432.94 882.66 427.63"/>
    <polygon id="VA04" points="901.04 427.63 910.23 432.94 910.23 443.55 901.04 448.85 891.85 443.55 891.85 432.94 901.04 427.63"/>
    <polygon id="VA03" points="937.8 427.63 946.99 432.94 946.99 443.55 937.8 448.85 928.61 443.55 928.61 432.94 937.8 427.63"/>
    <polygon id="VA02" points="937.8 395.75 946.99 401.06 946.99 411.67 937.8 416.97 928.61 411.67 928.61 401.06 937.8 395.75"/>
    <polygon id="VA01" points="919.42 427.63 928.61 432.94 928.61 443.55 919.42 448.85 910.23 443.55 910.23 432.94 919.42 427.63"/>
    <polygon id="VA13" points="891.85 411.72 901.04 417.02 901.04 427.63 891.85 432.94 882.66 427.63 882.66 417.02 891.85 411.72"/>
    <polygon id="VA12" points="928.61 411.72 937.8 417.02 937.8 427.63 928.61 432.94 919.42 427.63 919.42 417.02 928.61 411.72"/>
    <polygon id="VA11" points="919.42 395.8 928.61 401.11 928.61 411.72 919.42 417.02 910.23 411.72 910.23 401.11 919.42 395.8"/>
    <polygon id="MA09" points="983.74 93.39 992.93 98.7 992.93 109.31 983.74 114.61 974.55 109.31 974.55 98.7 983.74 93.39"/>
    <polygon id="MA10" points="965.37 93.39 974.55 98.7 974.55 109.31 965.37 114.61 956.18 109.31 956.18 98.7 965.37 93.39"/>
    <polygon id="MA11" points="928.61 93.39 937.8 98.7 937.8 109.31 928.61 114.61 919.42 109.31 919.42 98.7 928.61 93.39"/>
    <polygon id="MA08" points="974.55 77.48 983.74 82.78 983.74 93.39 974.55 98.7 965.37 93.39 965.37 82.78 974.55 77.48"/>
    <polygon id="MA07" points="965.37 61.56 974.55 66.87 974.55 77.48 965.37 82.78 956.18 77.48 956.18 66.87 965.37 61.56"/>
    <polygon id="MA06" points="946.99 61.56 956.18 66.87 956.18 77.48 946.99 82.78 937.8 77.48 937.8 66.87 946.99 61.56"/>
    <polygon id="MA05" points="956.18 77.48 965.37 82.78 965.37 93.39 956.18 98.7 946.99 93.39 946.99 82.78 956.18 77.48"/>
    <polygon id="MA04" points="946.99 93.39 956.18 98.7 956.18 109.31 946.99 114.61 937.8 109.31 937.8 98.7 946.99 93.39"/>
    <polygon id="MA03" points="937.8 77.48 946.99 82.78 946.99 93.39 937.8 98.7 928.61 93.39 928.61 82.78 937.8 77.48"/>
    <polygon id="MA02" points="928.61 61.56 937.8 66.87 937.8 77.48 928.61 82.78 919.42 77.48 919.42 66.87 928.61 61.56"/>
    <polygon id="MA01" points="919.42 77.48 928.61 82.78 928.61 93.39 919.42 98.7 910.23 93.39 910.23 82.78 919.42 77.48"/>
    <polygon id="TN09" points="754.01 459.46 763.2 464.77 763.2 475.38 754.01 480.69 744.82 475.38 744.82 464.77 754.01 459.46"/>
    <polygon id="TN10" points="744.82 443.55 754.01 448.85 754.01 459.46 744.82 464.77 735.63 459.46 735.63 448.85 744.82 443.55"/>
    <polygon id="TN11" points="827.53 459.46 836.72 464.77 836.72 475.38 827.53 480.69 818.34 475.38 818.34 464.77 827.53 459.46"/>
    <polygon id="TN08" points="763.2 443.55 772.39 448.85 772.39 459.46 763.2 464.77 754.01 459.46 754.01 448.85 763.2 443.55"/>
    <polygon id="TN07" points="781.58 443.55 790.77 448.85 790.77 459.46 781.58 464.77 772.39 459.46 772.39 448.85 781.58 443.55"/>
    <polygon id="TN06" points="799.96 443.55 809.15 448.85 809.15 459.46 799.96 464.77 790.77 459.46 790.77 448.85 799.96 443.55"/>
    <polygon id="TN05" points="772.39 459.46 781.58 464.77 781.58 475.38 772.39 480.69 763.2 475.38 763.2 464.77 772.39 459.46"/>
    <polygon id="TN04" points="790.77 459.46 799.96 464.77 799.96 475.38 790.77 480.69 781.58 475.38 781.58 464.77 790.77 459.46"/>
    <polygon id="TN03" points="809.15 459.46 818.34 464.77 818.34 475.38 809.15 480.69 799.96 475.38 799.96 464.77 809.15 459.46"/>
    <polygon id="TN02" points="818.34 443.55 827.53 448.85 827.53 459.46 818.34 464.77 809.15 459.46 809.15 448.85 818.34 443.55"/>
    <polygon id="TN01" points="836.72 443.55 845.9 448.85 845.9 459.46 836.72 464.77 827.53 459.46 827.53 448.85 836.72 443.55"/>
    <polygon id="NJ10" points="965.37 220.72 974.55 226.03 974.55 236.64 965.37 241.94 956.18 236.64 956.18 226.03 965.37 220.72"/>
    <polygon id="NJ09" points="928.61 220.72 937.8 226.03 937.8 236.64 928.61 241.94 919.42 236.64 919.42 226.03 928.61 220.72"/>
    <polygon id="NJ08" points="937.8 236.64 946.99 241.94 946.99 252.56 937.8 257.86 928.61 252.56 928.61 241.94 937.8 236.64"/>
    <polygon id="NJ07" points="956.18 236.64 965.37 241.94 965.37 252.56 956.18 257.86 946.99 252.56 946.99 241.94 956.18 236.64"/>
    <polygon id="NJ06" points="974.55 236.64 983.74 241.94 983.74 252.56 974.55 257.86 965.37 252.56 965.37 241.94 974.55 236.64"/>
    <polygon id="NJ05" points="919.42 236.64 928.61 241.94 928.61 252.56 919.42 257.86 910.23 252.56 910.23 241.94 919.42 236.64"/>
    <polygon id="NJ04" points="983.74 252.56 992.93 257.86 992.93 268.47 983.74 273.78 974.55 268.47 974.55 257.86 983.74 252.56"/>
    <polygon id="NJ03" points="974.55 268.47 983.74 273.78 983.74 284.39 974.55 289.69 965.37 284.39 965.37 273.78 974.55 268.47"/>
    <polygon id="NJ02" points="965.37 284.39 974.55 289.69 974.55 300.3 965.37 305.61 956.18 300.3 956.18 289.69 965.37 284.39"/>
    <polygon id="NJ12" points="965.37 252.56 974.55 257.86 974.55 268.47 965.37 273.78 956.18 268.47 956.18 257.86 965.37 252.56"/>
    <polygon id="NJ13" points="983.74 284.39 992.93 289.69 992.93 300.3 983.74 305.61 974.55 300.3 974.55 289.69 983.74 284.39"/>
    <polygon id="NJ14" points="992.93 268.47 1002.12 273.78 1002.12 284.39 992.93 289.69 983.74 284.39 983.74 273.78 992.93 268.47"/>
    <polygon id="NJ01" points="956.18 268.47 965.37 273.78 965.37 284.39 956.18 289.69 946.99 284.39 946.99 273.78 956.18 268.47"/>
    <polygon id="NJ11" points="946.99 220.72 956.18 226.03 956.18 236.64 946.99 241.94 937.8 236.64 937.8 226.03 946.99 220.72"/>
    <polygon id="MI10" points="680.5 172.97 689.69 178.28 689.69 188.89 680.5 194.2 671.31 188.89 671.31 178.28 680.5 172.97"/>
    <polygon id="MI09" points="671.31 157.06 680.5 162.36 680.5 172.97 671.31 178.28 662.12 172.97 662.12 162.36 671.31 157.06"/>
    <polygon id="MI08" points="652.93 157.06 662.12 162.36 662.12 172.97 652.93 178.28 643.74 172.97 643.74 162.36 652.93 157.06"/>
    <polygon id="MI07" points="634.55 157.06 643.74 162.36 643.74 172.97 634.55 178.28 625.37 172.97 625.37 162.36 634.55 157.06"/>
    <polygon id="MI06" points="662.12 204.81 671.31 210.11 671.31 220.72 662.12 226.03 652.93 220.72 652.93 210.11 662.12 204.81"/>
    <polygon id="MI05" points="652.93 188.89 662.12 194.2 662.12 204.81 652.93 210.11 643.74 204.81 643.74 194.2 652.93 188.89"/>
    <polygon id="MI04" points="643.74 172.97 652.93 178.28 652.93 188.89 643.74 194.2 634.55 188.89 634.55 178.28 643.74 172.97"/>
    <polygon id="MI03" points="625.37 141.14 634.55 146.45 634.55 157.06 625.37 162.36 616.18 157.06 616.18 146.45 625.37 141.14"/>
    <polygon id="MI13" points="689.69 188.89 698.88 194.2 698.88 204.81 689.69 210.11 680.5 204.81 680.5 194.2 689.69 188.89"/>
    <polygon id="MI14" points="680.5 204.81 689.69 210.11 689.69 220.72 680.5 226.03 671.31 220.72 671.31 210.11 680.5 204.81"/>
    <polygon id="MI15" points="698.88 204.81 708.07 210.11 708.07 220.72 698.88 226.03 689.69 220.72 689.69 210.11 698.88 204.81"/>
    <polygon id="MI02" points="643.74 141.14 652.93 146.45 652.93 157.06 643.74 162.36 634.55 157.06 634.55 146.45 643.74 141.14"/>
    <polygon id="MI12" points="671.31 188.89 680.5 194.2 680.5 204.81 671.31 210.11 662.12 204.81 662.12 194.2 671.31 188.89"/>
    <polygon id="MI01" points="662.12 141.14 671.31 146.45 671.31 157.06 662.12 162.36 652.93 157.06 652.93 146.45 662.12 141.14"/>
    <polygon id="MI11" points="662.12 172.97 671.31 178.28 671.31 188.89 662.12 194.2 652.93 188.89 652.93 178.28 662.12 172.97"/>
    <polygon id="GA10" points="763.2 539.04 772.39 544.35 772.39 554.96 763.2 560.27 754.01 554.96 754.01 544.35 763.2 539.04"/>
    <polygon id="GA09" points="754.01 491.3 763.2 496.6 763.2 507.21 754.01 512.52 744.82 507.21 744.82 496.6 754.01 491.3"/>
    <polygon id="GA08" points="772.39 554.96 781.58 560.27 781.58 570.88 772.39 576.18 763.2 570.88 763.2 560.27 772.39 554.96"/>
    <polygon id="GA07" points="744.82 507.21 754.01 512.52 754.01 523.13 744.82 528.43 735.63 523.13 735.63 512.52 744.82 507.21"/>
    <polygon id="GA06" points="735.63 491.3 744.82 496.6 744.82 507.21 735.63 512.52 726.45 507.21 726.45 496.6 735.63 491.3"/>
    <polygon id="GA05" points="708.07 507.21 717.26 512.52 717.26 523.13 708.07 528.43 698.88 523.13 698.88 512.52 708.07 507.21"/>
    <polygon id="GA04" points="754.01 523.13 763.2 528.43 763.2 539.04 754.01 544.35 744.82 539.04 744.82 528.43 754.01 523.13"/>
    <polygon id="GA14" points="717.26 491.3 726.45 496.6 726.45 507.21 717.26 512.52 708.07 507.21 708.07 496.6 717.26 491.3"/>
    <polygon id="GA15" points="763.2 507.21 772.39 512.52 772.39 523.13 763.2 528.43 754.01 523.13 754.01 512.52 763.2 507.21"/>
    <polygon id="GA16" points="772.39 523.13 781.58 528.43 781.58 539.04 772.39 544.35 763.2 539.04 763.2 528.43 772.39 523.13"/>
    <polygon id="GA11" points="726.45 507.21 735.63 512.52 735.63 523.13 726.45 528.43 717.26 523.13 717.26 512.52 726.45 507.21"/>
    <polygon id="GA03" points="744.82 539.04 754.01 544.35 754.01 554.96 744.82 560.27 735.63 554.96 735.63 544.35 744.82 539.04"/>
    <polygon id="GA13" points="735.63 523.13 744.82 528.43 744.82 539.04 735.63 544.35 726.45 539.04 726.45 528.43 735.63 523.13"/>
    <polygon id="GA02" points="754.01 554.96 763.2 560.27 763.2 570.88 754.01 576.18 744.82 570.88 744.82 560.27 754.01 554.96"/>
    <polygon id="GA12" points="781.58 539.04 790.77 544.35 790.77 554.96 781.58 560.27 772.39 554.96 772.39 544.35 781.58 539.04"/>
    <polygon id="GA01" points="790.77 554.96 799.96 560.27 799.96 570.88 790.77 576.18 781.58 570.88 781.58 560.27 790.77 554.96"/>
    <polygon id="NC10" points="864.28 491.3 873.47 496.6 873.47 507.21 864.28 512.52 855.1 507.21 855.1 496.6 864.28 491.3"/>
    <polygon id="NC14" points="891.85 507.21 901.04 512.52 901.04 523.13 891.85 528.43 882.66 523.13 882.66 512.52 891.85 507.21"/>
    <polygon id="NC15" points="873.47 507.21 882.66 512.52 882.66 523.13 873.47 528.43 864.28 523.13 864.28 512.52 873.47 507.21"/>
    <polygon id="NC16" points="855.1 507.21 864.28 512.52 864.28 523.13 855.1 528.43 845.9 523.13 845.9 512.52 855.1 507.21"/>
    <polygon id="NC09" points="901.04 491.3 910.23 496.6 910.23 507.21 901.04 512.52 891.85 507.21 891.85 496.6 901.04 491.3"/>
    <polygon id="NC08" points="882.66 491.3 891.85 496.6 891.85 507.21 882.66 512.52 873.47 507.21 873.47 496.6 882.66 491.3"/>
    <polygon id="NC07" points="928.61 507.21 937.8 512.52 937.8 523.13 928.61 528.43 919.42 523.13 919.42 512.52 928.61 507.21"/>
    <polygon id="NC06" points="873.47 475.38 882.66 480.69 882.66 491.3 873.47 496.6 864.28 491.3 864.28 480.69 873.47 475.38"/>
    <polygon id="NC05" points="855.1 475.38 864.28 480.69 864.28 491.3 855.1 496.6 845.9 491.3 845.9 480.69 855.1 475.38"/>
    <polygon id="NC04" points="891.85 475.38 901.04 480.69 901.04 491.3 891.85 496.6 882.66 491.3 882.66 480.69 891.85 475.38"/>
    <polygon id="NC03" points="937.8 491.3 946.99 496.6 946.99 507.21 937.8 512.52 928.61 507.21 928.61 496.6 937.8 491.3"/>
    <polygon id="NC02" points="910.23 475.38 919.42 480.69 919.42 491.3 910.23 496.6 901.04 491.3 901.04 480.69 910.23 475.38"/>
    <polygon id="NC13" points="919.42 491.3 928.61 496.6 928.61 507.21 919.42 512.52 910.23 507.21 910.23 496.6 919.42 491.3"/>
    <polygon id="NC12" points="910.23 507.21 919.42 512.52 919.42 523.13 910.23 528.43 901.04 523.13 901.04 512.52 910.23 507.21"/>
    <polygon id="NC01" points="928.61 475.38 937.8 480.69 937.8 491.3 928.61 496.6 919.42 491.3 919.42 480.69 928.61 475.38"/>
    <polygon id="NC11" points="845.9 491.3 855.1 496.6 855.1 507.21 845.9 512.52 836.72 507.21 836.72 496.6 845.9 491.3"/>
    <polygon id="IL10" points="643.74 268.47 652.93 273.78 652.93 284.39 643.74 289.69 634.55 284.39 634.55 273.78 643.74 268.47"/>
    <polygon id="IL09" points="625.37 268.47 634.55 273.78 634.55 284.39 625.37 289.69 616.18 284.39 616.18 273.78 625.37 268.47"/>
    <polygon id="IL08" points="606.99 268.47 616.18 273.78 616.18 284.39 606.99 289.69 597.8 284.39 597.8 273.78 606.99 268.47"/>
    <polygon id="IL07" points="634.55 284.39 643.74 289.69 643.74 300.3 634.55 305.61 625.37 300.3 625.37 289.69 634.55 284.39"/>
    <polygon id="IL17" points="625.37 332.13 634.55 337.44 634.55 348.05 625.37 353.36 616.18 348.05 616.18 337.44 625.37 332.13"/>
    <polygon id="IL18" points="616.18 348.05 625.37 353.36 625.37 363.97 616.18 369.27 606.99 363.97 606.99 353.36 616.18 348.05"/>
    <polygon id="IL19" points="625.37 363.97 634.55 369.27 634.55 379.88 625.37 385.19 616.18 379.88 616.18 369.27 625.37 363.97"/>
    <polygon id="IL06" points="625.37 300.3 634.55 305.61 634.55 316.22 625.37 321.52 616.18 316.22 616.18 305.61 625.37 300.3"/>
    <polygon id="IL16" points="643.74 332.13 652.93 337.44 652.93 348.05 643.74 353.36 634.55 348.05 634.55 337.44 643.74 332.13"/>
    <polygon id="IL05" points="616.18 284.39 625.37 289.69 625.37 300.3 616.18 305.61 606.99 300.3 606.99 289.69 616.18 284.39"/>
    <polygon id="IL15" points="634.55 348.05 643.74 353.36 643.74 363.97 634.55 369.27 625.37 363.97 625.37 353.36 634.55 348.05"/>
    <polygon id="IL04" points="643.74 300.3 652.93 305.61 652.93 316.22 643.74 321.52 634.55 316.22 634.55 305.61 643.74 300.3"/>
    <polygon id="IL14" points="634.55 316.22 643.74 321.52 643.74 332.13 634.55 337.44 625.37 332.13 625.37 321.52 634.55 316.22"/>
    <polygon id="IL03" points="606.99 300.3 616.18 305.61 616.18 316.22 606.99 321.52 597.8 316.22 597.8 305.61 606.99 300.3"/>
    <polygon id="IL13" points="652.93 348.05 662.12 353.36 662.12 363.97 652.93 369.27 643.74 363.97 643.74 353.36 652.93 348.05"/>
    <polygon id="IL02" points="662.12 332.13 671.31 337.44 671.31 348.05 662.12 353.36 652.93 348.05 652.93 337.44 662.12 332.13"/>
    <polygon id="IL12" points="643.74 363.97 652.93 369.27 652.93 379.88 643.74 385.19 634.55 379.88 634.55 369.27 643.74 363.97"/>
    <polygon id="IL01" points="652.93 316.22 662.12 321.52 662.12 332.13 652.93 337.44 643.74 332.13 643.74 321.52 652.93 316.22"/>
    <polygon id="IL11" points="597.8 284.39 606.99 289.69 606.99 300.3 597.8 305.61 588.61 300.3 588.61 289.69 597.8 284.39"/>
    <polygon id="PA05" points="809.15 236.64 818.34 241.94 818.34 252.56 809.15 257.86 799.96 252.56 799.96 241.94 809.15 236.64"/>
    <polygon id="PA10" points="799.96 220.72 809.15 226.03 809.15 236.64 799.96 241.94 790.77 236.64 790.77 226.03 799.96 220.72"/>
    <polygon id="PA09" points="790.77 204.81 799.96 210.11 799.96 220.72 790.77 226.03 781.58 220.72 781.58 210.11 790.77 204.81"/>
    <polygon id="PA08" points="809.15 204.81 818.34 210.11 818.34 220.72 809.15 226.03 799.96 220.72 799.96 210.11 809.15 204.81"/>
    <polygon id="PA07" points="827.53 204.81 836.72 210.11 836.72 220.72 827.53 226.03 818.34 220.72 818.34 210.11 827.53 204.81"/>
    <polygon id="PA06" points="781.58 220.72 790.77 226.03 790.77 236.64 781.58 241.94 772.39 236.64 772.39 226.03 781.58 220.72"/>
    <polygon id="PA17" points="744.82 220.72 754.01 226.03 754.01 236.64 744.82 241.94 735.63 236.64 735.63 226.03 744.82 220.72"/>
    <polygon id="PA18" points="735.63 204.81 744.82 210.11 744.82 220.72 735.63 226.03 726.45 220.72 726.45 210.11 735.63 204.81"/>
    <polygon id="PA19" points="744.82 188.89 754.01 194.2 754.01 204.81 744.82 210.11 735.63 204.81 735.63 194.2 744.82 188.89"/>
    <polygon id="PA16" points="754.01 204.81 763.2 210.11 763.2 220.72 754.01 226.03 744.82 220.72 744.82 210.11 754.01 204.81"/>
    <polygon id="PA04" points="818.34 220.72 827.53 226.03 827.53 236.64 818.34 241.94 809.15 236.64 809.15 226.03 818.34 220.72"/>
    <polygon id="PA15" points="772.39 204.81 781.58 210.11 781.58 220.72 772.39 226.03 763.2 220.72 763.2 210.11 772.39 204.81"/>
    <polygon id="PA03" points="827.53 236.64 836.72 241.94 836.72 252.56 827.53 257.86 818.34 252.56 818.34 241.94 827.53 236.64"/>
    <polygon id="PA14" points="754.01 236.64 763.2 241.94 763.2 252.56 754.01 257.86 744.82 252.56 744.82 241.94 754.01 236.64"/>
    <polygon id="PA02" points="845.9 236.64 855.1 241.94 855.1 252.56 845.9 257.86 836.72 252.56 836.72 241.94 845.9 236.64"/>
    <polygon id="PA13" points="772.39 236.64 781.58 241.94 781.58 252.56 772.39 257.86 763.2 252.56 763.2 241.94 772.39 236.64"/>
    <polygon id="PA01" points="836.72 220.72 845.9 226.03 845.9 236.64 836.72 241.94 827.53 236.64 827.53 226.03 836.72 220.72"/>
    <polygon id="PA12" points="763.2 220.72 772.39 226.03 772.39 236.64 763.2 241.94 754.01 236.64 754.01 226.03 763.2 220.72"/>
    <polygon id="PA11" points="790.77 236.64 799.96 241.94 799.96 252.56 790.77 257.86 781.58 252.56 781.58 241.94 790.77 236.64"/>
    <polygon id="NY19" points="836.72 157.06 845.9 162.36 845.9 172.97 836.72 178.28 827.53 172.97 827.53 162.36 836.72 157.06"/>
    <polygon id="NY18" points="855.1 157.06 864.28 162.36 864.28 172.97 855.1 178.28 845.9 172.97 845.9 162.36 855.1 157.06"/>
    <polygon id="NY17" points="845.9 141.14 855.1 146.45 855.1 157.06 845.9 162.36 836.72 157.06 836.72 146.45 845.9 141.14"/>
    <polygon id="NY16" points="827.53 172.97 836.72 178.28 836.72 188.89 827.53 194.2 818.34 188.89 818.34 178.28 827.53 172.97"/>
    <polygon id="NY15" points="809.15 172.97 818.34 178.28 818.34 188.89 809.15 194.2 799.96 188.89 799.96 178.28 809.15 172.97"/>
    <polygon id="NY14" points="882.66 172.97 891.85 178.28 891.85 188.89 882.66 194.2 873.47 188.89 873.47 178.28 882.66 172.97"/>
    <polygon id="NY13" points="790.77 172.97 799.96 178.28 799.96 188.89 790.77 194.2 781.58 188.89 781.58 178.28 790.77 172.97"/>
    <polygon id="NY12" points="864.28 172.97 873.47 178.28 873.47 188.89 864.28 194.2 855.1 188.89 855.1 178.28 864.28 172.97"/>
    <polygon id="NY11" points="901.04 172.97 910.23 178.28 910.23 188.89 901.04 194.2 891.85 188.89 891.85 178.28 901.04 172.97"/>
    <polygon id="NY10" points="845.9 172.97 855.1 178.28 855.1 188.89 845.9 194.2 836.72 188.89 836.72 178.28 845.9 172.97"/>
    <polygon id="NY09" points="873.47 188.89 882.66 194.2 882.66 204.81 873.47 210.11 864.28 204.81 864.28 194.2 873.47 188.89"/>
    <polygon id="NY08" points="928.61 188.89 937.8 194.2 937.8 204.81 928.61 210.11 919.42 204.81 919.42 194.2 928.61 188.89"/>
    <polygon id="NY07" points="910.23 188.89 919.42 194.2 919.42 204.81 910.23 210.11 901.04 204.81 901.04 194.2 910.23 188.89"/>
    <polygon id="NY06" points="891.85 188.89 901.04 194.2 901.04 204.81 891.85 210.11 882.66 204.81 882.66 194.2 891.85 188.89"/>
    <polygon id="NY05" points="855.1 188.89 864.28 194.2 864.28 204.81 855.1 210.11 845.9 204.81 845.9 194.2 855.1 188.89"/>
    <polygon id="NY29" points="919.42 172.97 928.61 178.28 928.61 188.89 919.42 194.2 910.23 188.89 910.23 178.28 919.42 172.97"/>
    <polygon id="NY30" points="772.39 172.97 781.58 178.28 781.58 188.89 772.39 194.2 763.2 188.89 763.2 178.28 772.39 172.97"/>
    <polygon id="NY04" points="781.58 157.06 790.77 162.36 790.77 172.97 781.58 178.28 772.39 172.97 772.39 162.36 781.58 157.06"/>
    <polygon id="NY26" points="799.96 157.06 809.15 162.36 809.15 172.97 799.96 178.28 790.77 172.97 790.77 162.36 799.96 157.06"/>
    <polygon id="NY03" points="790.77 141.14 799.96 146.45 799.96 157.06 790.77 162.36 781.58 157.06 781.58 146.45 790.77 141.14"/>
    <polygon id="NY25" points="809.15 141.14 818.34 146.45 818.34 157.06 809.15 162.36 799.96 157.06 799.96 146.45 809.15 141.14"/>
    <polygon id="NY02" points="809.15 109.31 818.34 114.61 818.34 125.23 809.15 130.53 799.96 125.23 799.96 114.61 809.15 109.31"/>
    <polygon id="NY24" points="818.34 125.23 827.53 130.53 827.53 141.14 818.34 146.45 809.15 141.14 809.15 130.53 818.34 125.23"/>
    <polygon id="NY21" points="827.53 109.31 836.72 114.61 836.72 125.23 827.53 130.53 818.34 125.23 818.34 114.61 827.53 109.31"/>
    <polygon id="NY20" points="836.72 125.23 845.9 130.53 845.9 141.14 836.72 146.45 827.53 141.14 827.53 130.53 836.72 125.23"/>
    <polygon id="NY01" points="799.96 125.23 809.15 130.53 809.15 141.14 799.96 146.45 790.77 141.14 790.77 130.53 799.96 125.23"/>
    <polygon id="NY23" points="818.34 157.06 827.53 162.36 827.53 172.97 818.34 178.28 809.15 172.97 809.15 162.36 818.34 157.06"/>
    <polygon id="NY22" points="827.53 141.14 836.72 146.45 836.72 157.06 827.53 162.36 818.34 157.06 818.34 146.45 827.53 141.14"/>
    <polygon id="FL21" points="845.9 650.46 855.1 655.76 855.1 666.37 845.9 671.68 836.72 666.37 836.72 655.76 845.9 650.46"/>
    <polygon id="FL20" points="836.72 666.37 845.9 671.68 845.9 682.29 836.72 687.6 827.53 682.29 827.53 671.68 836.72 666.37"/>
    <polygon id="FL19" points="809.15 682.29 818.34 687.6 818.34 698.21 809.15 703.51 799.96 698.21 799.96 687.6 809.15 682.29"/>
    <polygon id="FL18" points="818.34 666.37 827.53 671.68 827.53 682.29 818.34 687.6 809.15 682.29 809.15 671.68 818.34 666.37"/>
    <polygon id="FL17" points="799.96 666.37 809.15 671.68 809.15 682.29 799.96 687.6 790.77 682.29 790.77 671.68 799.96 666.37"/>
    <polygon id="FL16" points="809.15 650.46 818.34 655.76 818.34 666.37 809.15 671.68 799.96 666.37 799.96 655.76 809.15 650.46"/>
    <polygon id="FL15" points="818.34 634.54 827.53 639.85 827.53 650.46 818.34 655.76 809.15 650.46 809.15 639.85 818.34 634.54"/>
    <polygon id="FL14" points="717.26 586.79 726.45 592.1 726.45 602.71 717.26 608.01 708.07 602.71 708.07 592.1 717.26 586.79"/>
    <polygon id="FL13" points="799.96 634.54 809.15 639.85 809.15 650.46 799.96 655.76 790.77 650.46 790.77 639.85 799.96 634.54"/>
    <polygon id="FL12" points="781.58 602.71 790.77 608.01 790.77 618.63 781.58 623.93 772.39 618.63 772.39 608.01 781.58 602.71"/>
    <polygon id="FL11" points="790.77 618.63 799.96 623.93 799.96 634.54 790.77 639.85 781.58 634.54 781.58 623.93 790.77 618.63"/>
    <polygon id="FL10" points="809.15 618.63 818.34 623.93 818.34 634.54 809.15 639.85 799.96 634.54 799.96 623.93 809.15 618.63"/>
    <polygon id="FL09" points="827.53 650.46 836.72 655.76 836.72 666.37 827.53 671.68 818.34 666.37 818.34 655.76 827.53 650.46"/>
    <polygon id="FL08" points="836.72 634.54 845.9 639.85 845.9 650.46 836.72 655.76 827.53 650.46 827.53 639.85 836.72 634.54"/>
    <polygon id="FL07" points="827.53 618.63 836.72 623.93 836.72 634.54 827.53 639.85 818.34 634.54 818.34 623.93 827.53 618.63"/>
    <polygon id="FL28" points="827.53 714.12 836.72 719.43 836.72 730.04 827.53 735.34 818.34 730.04 818.34 719.43 827.53 714.12"/>
    <polygon id="FL29" points="781.58 634.54 790.77 639.85 790.77 650.46 781.58 655.76 772.39 650.46 772.39 639.85 781.58 634.54"/>
    <polygon id="FL30" points="735.64 586.79 744.83 592.1 744.83 602.71 735.64 608.01 726.45 602.71 726.45 592.1 735.64 586.79"/>
    <polygon id="FL06" points="799.96 602.71 809.15 608.01 809.15 618.63 799.96 623.93 790.77 618.63 790.77 608.01 799.96 602.71"/>
    <polygon id="FL27" points="836.72 698.21 845.9 703.51 845.9 714.12 836.72 719.43 827.53 714.12 827.53 703.51 836.72 698.21"/>
    <polygon id="FL05" points="818.34 602.71 827.53 608.01 827.53 618.63 818.34 623.93 809.15 618.63 809.15 608.01 818.34 602.71"/>
    <polygon id="FL26" points="827.53 682.29 836.72 687.6 836.72 698.21 827.53 703.51 818.34 698.21 818.34 687.6 827.53 682.29"/>
    <polygon id="FL04" points="809.15 586.79 818.34 592.1 818.34 602.71 809.15 608.01 799.96 602.71 799.96 592.1 809.15 586.79"/>
    <polygon id="FL25" points="845.9 682.29 855.1 687.6 855.1 698.21 845.9 703.51 836.72 698.21 836.72 687.6 845.9 682.29"/>
    <polygon id="FL03" points="790.77 586.79 799.96 592.1 799.96 602.71 790.77 608.01 781.58 602.71 781.58 592.1 790.77 586.79"/>
    <polygon id="FL24" points="855.1 698.21 864.28 703.51 864.28 714.12 855.1 719.43 845.9 714.12 845.9 703.51 855.1 698.21"/>
    <polygon id="FL02" points="772.39 586.79 781.58 592.1 781.58 602.71 772.39 608.01 763.2 602.71 763.2 592.1 772.39 586.79"/>
    <polygon id="FL01" points="754.01 586.79 763.2 592.1 763.2 602.71 754.01 608.01 744.82 602.71 744.82 592.1 754.01 586.79"/>
    <polygon id="FL23" points="864.28 682.29 873.47 687.6 873.47 698.21 864.28 703.51 855.1 698.21 855.1 687.6 864.28 682.29"/>
    <polygon id="FL22" points="855.1 666.37 864.28 671.68 864.28 682.29 855.1 687.6 845.9 682.29 845.9 671.68 855.1 666.37"/>
    <polygon id="TX21" points="395.63 634.54 404.82 639.85 404.82 650.46 395.63 655.76 386.45 650.46 386.45 639.85 395.63 634.54"/>
    <polygon id="TX20" points="423.2 650.46 432.39 655.76 432.39 666.37 423.2 671.68 414.01 666.37 414.01 655.76 423.2 650.46"/>
    <polygon id="TX19" points="395.63 570.88 404.82 576.18 404.82 586.79 395.63 592.1 386.45 586.79 386.45 576.18 395.63 570.88"/>
    <polygon id="TX18" points="478.34 618.63 487.53 623.93 487.53 634.54 478.34 639.85 469.15 634.54 469.15 623.93 478.34 618.63"/>
    <polygon id="TX17" points="450.77 602.71 459.96 608.01 459.96 618.63 450.77 623.93 441.58 618.63 441.58 608.01 450.77 602.71"/>
    <polygon id="TX38" points="432.39 634.54 441.58 639.85 441.58 650.46 432.39 655.76 423.2 650.46 423.2 639.85 432.39 634.54"/>
    <polygon id="TX40" points="487.53 634.54 496.72 639.85 496.72 650.46 487.53 655.76 478.34 650.46 478.34 639.85 487.53 634.54"/>
    <polygon id="TX39" points="487.53 602.71 496.72 608.01 496.72 618.63 487.53 623.93 478.34 618.63 478.34 608.01 487.53 602.71"/>
    <polygon id="TX16" points="358.88 602.71 368.07 608.01 368.07 618.63 358.88 623.93 349.69 618.63 349.69 608.01 358.88 602.71"/>
    <polygon id="TX37" points="414.01 634.54 423.2 639.85 423.2 650.46 414.01 655.76 404.82 650.46 404.82 639.85 414.01 634.54"/>
    <polygon id="TX15" points="450.77 698.21 459.96 703.51 459.96 714.12 450.77 719.43 441.58 714.12 441.58 703.51 450.77 698.21"/>
    <polygon id="TX36" points="459.96 618.63 469.15 623.93 469.15 634.54 459.96 639.85 450.77 634.54 450.77 623.93 459.96 618.63"/>
    <polygon id="TX14" points="478.34 650.46 487.53 655.76 487.53 666.37 478.34 671.68 469.15 666.37 469.15 655.76 478.34 650.46"/>
    <polygon id="TX35" points="441.58 650.46 450.77 655.76 450.77 666.37 441.58 671.68 432.39 666.37 432.39 655.76 441.58 650.46"/>
    <polygon id="TX13" points="404.82 554.96 414.01 560.27 414.01 570.88 404.82 576.18 395.63 570.88 395.63 560.27 404.82 554.96"/>
    <polygon id="TX12" points="404.82 586.79 414.01 592.1 414.01 602.71 404.82 608.01 395.63 602.71 395.63 592.1 404.82 586.79"/>
    <polygon id="TX34" points="441.58 682.29 450.77 687.6 450.77 698.21 441.58 703.51 432.39 698.21 432.39 687.6 441.58 682.29"/>
    <polygon id="TX33" points="414.01 602.71 423.2 608.01 423.2 618.63 414.01 623.93 404.82 618.63 404.82 608.01 414.01 602.71"/>
    <polygon id="TX11" points="386.45 586.79 395.63 592.1 395.63 602.71 386.45 608.01 377.26 602.71 377.26 592.1 386.45 586.79"/>
    <polygon id="TX32" points="441.58 586.79 450.77 592.1 450.77 602.71 441.58 608.01 432.39 602.71 432.39 592.1 441.58 586.79"/>
    <polygon id="TX10" points="423.2 618.63 432.39 623.93 432.39 634.54 423.2 639.85 414.01 634.54 414.01 623.93 423.2 618.63"/>
    <polygon id="TX31" points="404.82 618.63 414.01 623.93 414.01 634.54 404.82 639.85 395.63 634.54 395.63 623.93 404.82 618.63"/>
    <polygon id="TX30" points="395.63 602.71 404.82 608.01 404.82 618.63 395.63 623.93 386.45 618.63 386.45 608.01 395.63 602.71"/>
    <polygon id="TX09" points="469.15 666.37 478.34 671.68 478.34 682.29 469.15 687.6 459.96 682.29 459.96 671.68 469.15 666.37"/>
    <polygon id="TX08" points="441.58 618.63 450.77 623.93 450.77 634.54 441.58 639.85 432.39 634.54 432.39 623.93 441.58 618.63"/>
    <polygon id="TX29" points="469.15 634.54 478.34 639.85 478.34 650.46 469.15 655.76 459.96 650.46 459.96 639.85 469.15 634.54"/>
    <polygon id="TX07" points="459.96 650.46 469.15 655.76 469.15 666.37 459.96 671.68 450.77 666.37 450.77 655.76 459.96 650.46"/>
    <polygon id="TX28" points="459.96 682.29 469.15 687.6 469.15 698.21 459.96 703.51 450.77 698.21 450.77 687.6 459.96 682.29"/>
    <polygon id="TX06" points="432.39 602.71 441.58 608.01 441.58 618.63 432.39 623.93 423.2 618.63 423.2 608.01 432.39 602.71"/>
    <polygon id="TX05" points="478.34 586.79 487.53 592.1 487.53 602.71 478.34 608.01 469.15 602.71 469.15 592.1 478.34 586.79"/>
    <polygon id="TX27" points="432.39 666.37 441.58 671.68 441.58 682.29 432.39 687.6 423.2 682.29 423.2 671.68 432.39 666.37"/>
    <polygon id="TX26" points="414.01 570.88 423.2 576.18 423.2 586.79 414.01 592.1 404.82 586.79 404.82 576.18 414.01 570.88"/>
    <polygon id="TX04" points="432.39 570.88 441.58 576.18 441.58 586.79 432.39 592.1 423.2 586.79 423.2 576.18 432.39 570.88"/>
    <polygon id="TX03" points="459.96 586.79 469.15 592.1 469.15 602.71 459.96 608.01 450.77 602.71 450.77 592.1 459.96 586.79"/>
    <polygon id="TX25" points="377.26 602.71 386.45 608.01 386.45 618.63 377.26 623.93 368.07 618.63 368.07 608.01 377.26 602.71"/>
    <polygon id="TX02" points="450.77 634.54 459.96 639.85 459.96 650.46 450.77 655.76 441.58 650.46 441.58 639.85 450.77 634.54"/>
    <polygon id="TX24" points="423.2 586.79 432.39 592.1 432.39 602.71 423.2 608.01 414.01 602.71 414.01 592.1 423.2 586.79"/>
    <polygon id="TX01" points="469.15 602.71 478.34 608.01 478.34 618.63 469.15 623.93 459.96 618.63 459.96 608.01 469.15 602.71"/>
    <polygon id="TX23" points="386.45 618.63 395.63 623.93 395.63 634.54 386.45 639.85 377.26 634.54 377.26 623.93 386.45 618.63"/>
    <polygon id="TX22" points="450.77 666.37 459.96 671.68 459.96 682.29 450.77 687.6 441.58 682.29 441.58 671.68 450.77 666.37"/>
    <polygon id="CA27" points="64.82 379.88 74.01 385.19 74.01 395.8 64.82 401.11 55.63 395.8 55.63 385.19 64.82 379.88"/>
    <polygon id="CA26" points="46.45 379.88 55.63 385.19 55.63 395.8 46.45 401.11 37.26 395.8 37.26 385.19 46.45 379.88"/>
    <polygon id="CA25" points="101.58 411.72 110.77 417.02 110.77 427.63 101.58 432.94 92.39 427.63 92.39 417.02 101.58 411.72"/>
    <polygon id="CA24" points="28.07 379.88 37.26 385.19 37.26 395.8 28.07 401.11 18.88 395.8 18.88 385.19 28.07 379.88"/>
    <polygon id="CA23" points="83.2 379.88 92.39 385.19 92.39 395.8 83.2 401.11 74.01 395.8 74.01 385.19 83.2 379.88"/>
    <polygon id="CA22" points="55.63 363.97 64.82 369.27 64.82 379.88 55.63 385.19 46.45 379.88 46.45 369.27 55.63 363.97"/>
    <polygon id="CA21" points="37.26 363.97 46.45 369.27 46.45 379.88 37.26 385.19 28.07 379.88 28.07 369.27 37.26 363.97"/>
    <polygon id="CA20" points="74.01 363.97 83.2 369.27 83.2 379.88 74.01 385.19 64.82 379.88 64.82 369.27 74.01 363.97"/>
    <polygon id="CA19" points="18.88 332.13 28.07 337.44 28.07 348.05 18.88 353.36 9.69 348.05 9.69 337.44 18.88 332.13"/>
    <polygon id="CA08" points="28.07 284.39 37.26 289.69 37.26 300.3 28.07 305.61 18.88 300.3 18.88 289.69 28.07 284.39"/>
    <polygon id="CA07" points="55.63 300.3 64.82 305.61 64.82 316.22 55.63 321.52 46.45 316.22 46.45 305.61 55.63 300.3"/>
    <polygon id="CA06" points="46.45 284.39 55.63 289.69 55.63 300.3 46.45 305.61 37.26 300.3 37.26 289.69 46.45 284.39"/>
    <polygon id="CA49" points="83.2 475.38 92.39 480.69 92.39 491.3 83.2 496.6 74.01 491.3 74.01 480.69 83.2 475.38"/>
    <polygon id="CA05" points="64.82 348.05 74.01 353.36 74.01 363.97 64.82 369.27 55.63 363.97 55.63 353.36 64.82 348.05"/>
    <polygon id="CA48" points="129.15 491.3 138.34 496.6 138.34 507.21 129.15 512.52 119.96 507.21 119.96 496.6 129.15 491.3"/>
    <polygon id="CA04" points="9.69 284.39 18.88 289.69 18.88 300.3 9.69 305.61 0.5 300.3 0.5 289.69 9.69 284.39"/>
    <polygon id="CA47" points="74.01 459.46 83.2 464.77 83.2 475.38 74.01 480.69 64.82 475.38 64.82 464.77 74.01 459.46"/>
    <polygon id="CA03" points="55.63 332.13 64.82 337.44 64.82 348.05 55.63 353.36 46.45 348.05 46.45 337.44 55.63 332.13"/>
    <polygon id="CA46" points="64.82 443.55 74.01 448.85 74.01 459.46 64.82 464.77 55.63 459.46 55.63 448.85 64.82 443.55"/>
    <polygon id="CA02" points="83.2 348.05 92.39 353.36 92.39 363.97 83.2 369.27 74.01 363.97 74.01 353.36 83.2 348.05"/>
    <polygon id="CA45" points="110.77 427.63 119.96 432.94 119.96 443.55 110.77 448.85 101.58 443.55 101.58 432.94 110.77 427.63"/>
    <polygon id="CA01" points="74.01 332.13 83.2 337.44 83.2 348.05 74.01 353.36 64.82 348.05 64.82 337.44 74.01 332.13"/>
    <polygon id="CA44" points="92.39 427.63 101.58 432.94 101.58 443.55 92.39 448.85 83.2 443.55 83.2 432.94 92.39 427.63"/>
    <polygon id="CA43" points="74.01 427.63 83.2 432.94 83.2 443.55 74.01 448.85 64.82 443.55 64.82 432.94 74.01 427.63"/>
    <polygon id="CA42" points="92.39 395.8 101.58 401.11 101.58 411.72 92.39 417.02 83.2 411.72 83.2 401.11 92.39 395.8"/>
    <polygon id="CA41" points="101.58 443.55 110.77 448.85 110.77 459.46 101.58 464.77 92.39 459.46 92.39 448.85 101.58 443.55"/>
    <polygon id="CA40" points="83.2 443.55 92.39 448.85 92.39 459.46 83.2 464.77 74.01 459.46 74.01 448.85 83.2 443.55"/>
    <polygon id="CA39" points="110.77 459.46 119.96 464.77 119.96 475.38 110.77 480.69 101.58 475.38 101.58 464.77 110.77 459.46"/>
    <polygon id="CA38" points="119.96 475.38 129.15 480.69 129.15 491.3 119.96 496.6 110.77 491.3 110.77 480.69 119.96 475.38"/>
    <polygon id="CA37" points="46.45 411.72 55.63 417.02 55.63 427.63 46.45 432.94 37.26 427.63 37.26 417.02 46.45 411.72"/>
    <polygon id="CA36" points="55.63 427.63 64.82 432.94 64.82 443.55 55.63 448.85 46.45 443.55 46.45 432.94 55.63 427.63"/>
    <polygon id="CA28" points="83.2 411.72 92.39 417.02 92.39 427.63 83.2 432.94 74.01 427.63 74.01 417.02 83.2 411.72"/>
    <polygon id="CA35" points="119.96 443.55 129.15 448.85 129.15 459.46 119.96 464.77 110.77 459.46 110.77 448.85 119.96 443.55"/>
    <polygon id="CA34" points="64.82 411.72 74.01 417.02 74.01 427.63 64.82 432.94 55.63 427.63 55.63 417.02 64.82 411.72"/>
    <polygon id="CA33" points="129.15 459.46 138.34 464.77 138.34 475.38 129.15 480.69 119.96 475.38 119.96 464.77 129.15 459.46"/>
    <polygon id="CA32" points="37.26 395.8 46.45 401.11 46.45 411.72 37.26 417.02 28.07 411.72 28.07 401.11 37.26 395.8"/>
    <polygon id="CA31" points="92.39 459.46 101.58 464.77 101.58 475.38 92.39 480.69 83.2 475.38 83.2 464.77 92.39 459.46"/>
    <polygon id="CA30" points="74.01 395.8 83.2 401.11 83.2 411.72 74.01 417.02 64.82 411.72 64.82 401.11 74.01 395.8"/>
    <polygon id="CA29" points="55.63 395.8 64.82 401.11 64.82 411.72 55.63 417.02 46.45 411.72 46.45 401.11 55.63 395.8"/>
    <polygon id="CA18" points="28.07 348.05 37.26 353.36 37.26 363.97 28.07 369.27 18.88 363.97 18.88 353.36 28.07 348.05"/>
    <polygon id="CA17" points="37.26 332.13 46.45 337.44 46.45 348.05 37.26 353.36 28.07 348.05 28.07 337.44 37.26 332.13"/>
    <polygon id="CA16" points="9.69 316.22 18.88 321.52 18.88 332.13 9.69 337.44 0.5 332.13 0.5 321.52 9.69 316.22"/>
    <polygon id="CA15" points="28.07 316.22 37.26 321.52 37.26 332.13 28.07 337.44 18.88 332.13 18.88 321.52 28.07 316.22"/>
    <polygon id="CA14" points="46.45 316.22 55.63 321.52 55.63 332.13 46.45 337.44 37.26 332.13 37.26 321.52 46.45 316.22"/>
    <polygon id="CA13" points="46.45 348.05 55.63 353.36 55.63 363.97 46.45 369.27 37.26 363.97 37.26 353.36 46.45 348.05"/>
    <polygon id="CA12" points="18.88 300.3 28.07 305.61 28.07 316.22 18.88 321.52 9.69 316.22 9.69 305.61 18.88 300.3"/>
    <polygon id="CA11" points="92.39 363.97 101.58 369.27 101.58 379.88 92.39 385.19 83.2 379.88 83.2 369.27 92.39 363.97"/>
    <polygon id="CA10" points="37.26 300.3 46.45 305.61 46.45 316.22 37.26 321.52 28.07 316.22 28.07 305.61 37.26 300.3"/>
    <polygon id="CA52" points="110.77 491.3 119.96 496.6 119.96 507.21 110.77 512.52 101.58 507.21 101.58 496.6 110.77 491.3"/>
    <polygon id="CA53" points="101.58 507.21 110.77 512.52 110.77 523.13 101.58 528.43 92.39 523.13 92.39 512.52 101.58 507.21"/>
    <polygon id="CA54" points="119.96 507.21 129.15 512.52 129.15 523.13 119.96 528.43 110.77 523.13 110.77 512.52 119.96 507.21"/>
    <polygon id="CA51" points="92.39 491.3 101.58 496.6 101.58 507.21 92.39 512.52 83.2 507.21 83.2 496.6 92.39 491.3"/>
    <polygon id="CA50" points="101.58 475.38 110.77 480.69 110.77 491.3 101.58 496.6 92.39 491.3 92.39 480.69 101.58 475.38"/>
    <polygon id="CA09" points="64.82 316.22 74.01 321.52 74.01 332.13 64.82 337.44 55.63 332.13 55.63 321.52 64.82 316.22"/>
    <polygon id="DC03" points="836.72 284.39 845.9 289.69 845.9 300.3 836.72 305.61 827.53 300.3 827.53 289.69 836.72 284.39"/>
    <polygon id="DC02" points="827.53 300.3 836.72 305.61 836.72 316.22 827.53 321.52 818.34 316.22 818.34 305.61 827.53 300.3"/>
    <polygon id="DC01" points="845.9 300.3 855.1 305.61 855.1 316.22 845.9 321.52 836.72 316.22 836.72 305.61 845.9 300.3"/>
  </g>
</svg>
