<svg xmlns="http://www.w3.org/2000/svg" version="1.1"><path class="_path_1d6dn_1" d="M48.813,184.713L48.247,184.227L47.466,184.673L46.522,185.617L45.665,185.634L45.491,185.172L44.574,185.664L42.693,185.994L42.022,184.933L42.454,184.326L42.442,183.619L42.818,182.754L42.621,182.006L41.894,181.393L41.067,181.847L39.92,180.624L39.805,179.557L39.191,177.155L38.671,176.327L36.869,174.914L34.702,177.146L34.119,177.032L34.273,178.471L34.7,179.351L34.594,180.205L33.352,180.354L32.684,180.969L32.709,181.989L31.81,181.596L31.292,182.123L29.958,182.304L29.634,181.798L28.96,182.623L28.209,182.196L26.886,181.865L26.653,181.139L25.817,179.997L24.481,179.846L23.756,180.027L23.002,179.497L23.1,178.317L22.842,177.417L21.582,176.745L21.073,175.428L20.173,175.138L19.804,174.228L18.664,172.897L18.463,172.228L19.489,172.204L20.752,171.266L21.416,170.233L22.302,170.648L23.886,170.796L24.216,170.286L25.421,169.451L25.345,168.454L24.741,167.782L23.488,167.323L23.205,166.761L24.584,165.193L25.889,166.207L27.815,165.048L29.274,165.405L29.292,164.105L30.402,163.244L31.158,161.974L31.224,160.211L32.123,159.998L31.922,159.473L32.035,158.379L33.081,157.144L33.978,157.298L34.412,156.807L36.103,157.146L36.804,157.65L37.75,157.521L38.411,156.805L39.256,154.901L39.404,153.611L40.787,154.444L42.716,154.563L43.248,154.006L45.106,153.693L46.364,153.238L47.255,152.547L48.259,153.162L48.943,152.824L50.153,153.337L50.95,154.148L52.412,153.53L52.859,154.079L53.699,154.425L54.188,155.498L53.954,157.094L53.566,157.678L53.775,158.467L54.811,158.442L55.017,158.792L54.5,160.414L55.596,161.111L56.164,162.639L57.356,164.243L58.513,164.418L59.002,165.671L58.977,166.686L57.843,167.895L57.273,167.879L55.521,169.081L55.196,169.783L56.101,170.228L56.938,169.568L58.006,169.118L58.318,169.43L60.514,169.249L61.338,170.193L61.401,171.508L62.069,172.473L61.916,172.945L62.208,174.299L62.68,174.633L62.596,175.461L61.84,176.227L62.099,177.397L61.611,177.655L61.437,178.845L60.537,179.548L60.351,180.088L59.544,180.626L58.652,181.68L58.156,180.949L55.925,181.084L54.846,182.041L55.135,183.101L54.62,184.822L53.486,185.916L51.802,186.936L51.106,186.416L51.346,185.794L50.293,185.676L49.725,184.725ZM41.707,117.406L42.576,116.733L43.464,117.108L44.353,116.506L44.342,118.018L43.489,117.901L43.036,118.321L42.991,119.138L41.698,118.847ZM33.706,104.835L34.066,103.902L34.602,103.79L34.725,103.107L35.651,102.502L36.758,103.51L36.07,103.852L35.808,104.595L34.369,104.507ZM59.578,140.359L59.829,140.88L59.574,141.981L58.975,141.455ZM50.474,142.032L51.369,141.55L51,140.299L50.389,139.145L51.509,138.608L51.585,138.047L50.213,137.962L49.77,139.036L49.022,140.062L47.821,140.959L47.277,140.316L47.703,139.977L47.784,139.163L48.505,137.91L48.658,135.97L49.65,135.879L50.704,135.013L51.006,135.724L52.494,134.545L53.889,133.923L53.74,135.255L54.067,136.291L54.056,137.406L54.312,138.254L54.863,138.823L54.984,141.047L54.066,141.953L53.04,142.541L52.057,142.637L51.096,143.722L50.003,143.316ZM55.464,133.762L56.837,133.474L55.946,132.618L56.808,131.327L57.919,130.486L58.884,130.004L60.706,128.438L60.979,129.511L59.461,132.054L59.194,132.138L58.282,134.12L57.389,135.467L56.746,136.052L56.639,137.189L56.198,138.096L55.081,137.946L54.336,136.914L54.264,135.781L54.463,135.002ZM60.843,128.177L60.272,127.554L61.069,127.046L61.295,127.961ZM52.407,131.221L52.079,130.269L52.274,129.786L53.91,128.516L54.11,128.853L53.154,130.97ZM51.059,124.118L50.677,123.43L51.139,122.414L52.703,122.61L53.587,122.961L54.941,122.775L54.942,122.083L53.563,122.225L53.43,121.483L54.323,120.761L54.776,119.814L55.857,119.793L56.203,118.797L54.844,119.14L54.496,118.356L53.374,117.497L52.428,117.58L51.637,117.148L52.203,116.605L52.014,115.266L52.754,115.411L53.526,114.597L55.291,114.422L55.987,114.605L57.071,116.307L57.543,118.042L58.895,118.02L61.148,119.472L61.873,120.216L61.961,121.138L61.24,122.342L60.418,123.102L59.018,123.871L58.201,123.529L56.686,123.414L55.763,124.179L55.245,123.894L54.231,124.328L52.665,124.119L51.483,124.568ZM46.646,115.294L46.92,115.271L47.666,114.106L48.696,113.553L49.551,112.762L50.172,113.24L49.254,114.791L48.482,115.347L47.021,115.588ZM37.086,100.381L36.612,99.07L36.457,96.638L36.784,95.221L37.172,94.898L37.135,92.504L38.23,92.167L39.167,93.853L39.748,94.463L39.672,95.617L38.936,97.173L39.153,98.873L38.507,99.417L39.549,100.191L39.187,100.531L38.185,100.269ZM37.509,91.501L37.344,90.215L38.488,89.57L38.874,90.081L39.629,90.126L40.274,91.958L38.734,92.376L38.218,91.642ZM165.045,260.113L165.505,259.222L166.817,259.736L168.165,259.936L169.059,261.127L168.156,261.656L166.566,261.225ZM168.462,255.049L167.395,256.022L166.7,255.894L167.473,254.497L168.905,254.256ZM167.705,249.894L168.437,249.118L169.385,249.516L168.519,250.002ZM89.986,258.988L88.269,258.836L87.793,258.149L87.147,256.317L86.121,255.052L84.844,255.231L84.266,255.074L83.644,255.424L83.848,256.359L82.401,256.544L81.599,256.169L80.811,256.357L79.825,257.004L78.711,256.307L78.231,254.969L78.742,254.801L79.398,253.92L79.739,254.297L80.741,254.567L81.055,253.801L80.223,252.974L78.818,253.367L78.106,253.12L77.067,251.663L77.198,250.935L75.696,251.505L74.058,251.153L72.027,251.503L71.936,252.317L71.3,253.364L70.576,253.478L70.128,253.982L68.779,253.592L67.209,254.91L65.322,254.184L65.143,252.598L65.637,252.154L64.662,251.309L63.705,251.508L62.785,251.214L63.021,250.351L63.774,249.918L64.677,249.901L64.795,248.919L64.265,247.402L63.516,247.44L62.434,247.054L61.465,247.25L61.443,246.051L63.115,245.464L63.366,244.953L65.286,244.543L65.541,242.834L66.454,243.154L66.946,243.02L67.292,243.837L69.523,243.165L69.719,242.426L70.974,241.77L71.486,240.662L73.036,240.156L75.121,240.315L76.41,239.387L77.6,238.159L78.49,238.258L80.526,236.927L81.721,235.329L82.626,233.257L83.024,231.438L83.338,230.996L83.35,229.518L84.003,229.761L84.944,228.844L83.19,229.33L82.179,227.47L82.767,225.797L83.41,225.294L83.404,224.449L81.941,221.899L82.51,220.817L82.007,219.182L80.888,218.796L79.258,219.041L79.065,219.485L78.146,219.342L76.873,219.99L76.166,221.036L75.83,222.123L74.401,221.185L73.66,221.862L72.923,222.004L72.382,221.716L71.6,221.869L73.68,218.904L75.035,218.052L75.884,218.039L76.711,217.35L77.32,216.483L77.765,216.512L78.746,215.572L79.363,213.944L79.527,212.992L81.232,211.496L81.462,210.756L82.769,210.049L83.365,210.391L85.103,209.497L87.415,208.587L87.432,207.911L88.587,207.687L89.713,208.672L91.377,208.795L93.462,207.798L95.419,207.175L96.319,207.093L96.411,207.672L98.042,208.827L99.159,209.958L99.834,210.236L100.037,209.493L99.395,208.061L98.354,206.89L98.144,206.253L100.784,204.759L101.404,206.655L102.602,208.501L103.805,208.967L104.472,208.58L104.911,208.895L105.521,208.367L104.304,207.875L103.45,207.794L101.862,206.549L101.326,204.894L100.794,204.126L100.318,202.57L99.791,201.534L100.848,199.41L102.591,196.97L100.951,196.342L100.672,195.521L100.858,192.779L100.847,191.553L102.921,190.723L103.221,191.079L103.927,190.356L103.356,189.617L103.228,188.277L103.63,187.381L104.561,186.97L104.659,186L104.408,185.222L103.963,185.048L103.975,184.063L103.312,183.984L102.849,185.175L101.526,185.706L101.713,184.751L101.134,183.884L100.759,184.85L100.018,186.035L98.917,187.045L98.58,186.42L97.802,186.266L97.896,185.014L98.239,184.387L98.581,182.97L98.376,182.277L97.094,183.831L96.528,183.99L94.979,181.368L94.782,179.731L93.631,177.707L91.612,174.999L92.424,173.962L92.848,172.253L92.772,171.181L93.639,170.045L93.854,169.345L94.958,168.298L95.012,167.046L95.646,165.241L96.626,164.458L97.216,164.779L97.665,164.294L97.063,163.832L97.514,163.221L98.809,162.906L99.99,163.461L100.214,162.746L98.821,162.23L97.781,162.564L96.811,162.166L96.17,162.393L95.119,161.865L94.497,162.471L93.746,162.483L92.905,162.084L92.659,163.558L93.073,164.088L92.541,165.034L90.432,164.759L89.434,165.494L88.378,165.129L88.236,165.66L88.729,166.364L86.244,167.747L85.263,167.691L84.99,167.288L85.3,166.424L84.575,166.431L84.555,167.557L83.452,167.341L83.134,166.556L82.684,166.401L82.431,164.984L81.938,165.715L81.149,165.492L79.387,164.263L79.458,165.9L80.368,166.325L80.085,168.824L80.342,169.227L79.628,170.077L78.182,169.393L76.825,168.287L76.395,167.2L75.267,166.509L74.71,165.825L73.639,165.572L73.025,164.574L71.099,165.44L70.667,166.225L71.294,167.929L71.43,169.105L72.036,169.652L71.733,170.429L71.093,170.684L70.447,170.093L70.759,169.105L70.074,168.103L69.847,166.754L67.898,164.793L67.226,162.986L67.415,161.02L67.782,160.431L68.713,160.204L69.274,161.625L69.207,162.821L69.681,163.349L70.269,162.542L69.344,160.021L69.502,159.323L70.287,158.172L70.571,156.817L71.399,156.274L71.917,155.351L72.752,154.596L73.195,153.049L73.102,151.889L74.248,150.963L74.377,149.84L75.308,148.988L76.334,148.901L76.396,148.015L76.831,147.228L76.193,146.006L76.307,145.221L75.718,144.211L74.84,143.472L74.195,143.235L73.245,141.941L72.594,141.505L72.649,140.859L73.385,140.212L73.458,139.454L72.996,138.208L72.959,136.12L73.292,134.78L74.254,134.256L75.062,134.429L76.512,135.177L76.595,134.475L76.093,133.511L74.781,132.839L73.922,133.579L73.42,131.711L72.852,131.758L73.036,133.613L72.436,134.73L71.635,136.952L70.622,136.654L70.144,135.871L69.609,135.763L68.613,134.843L67.582,135.867L68.045,136.946L67.34,137.181L66.426,136.856L66.441,136.264L65.874,135.673L66.337,134.101L66.213,132.952L66.827,132.248L67.13,131.388L68.351,130.063L68.491,129.421L70.393,128.436L71.134,126.607L70.107,127.464L69.863,128.313L68.682,128.851L67.982,129.397L67.612,130.24L66.243,131.472L65.948,132.149L65.171,132.788L64.591,132.224L64.441,133.556L64.751,134.277L64.82,135.677L65.972,137.652L66.302,138.881L65.025,139.694L64.076,140.889L64.077,141.425L63.472,142.65L63.597,144.321L63.233,144.627L63.218,145.755L62.838,146.907L62.263,147.47L62.082,148.816L62.452,149.54L62.507,150.403L61.796,151.397L61.113,151.813L59.825,151.703L58.702,152.18L57.978,151.773L58.209,149.345L59.424,148.422L59.565,147.88L59.739,144.361L60.122,144.001L60.699,141.802L60.512,141.382L61.441,140.683L62.3,139.134L60.877,138.17L60.925,137.27L61.467,135.944L62.069,135.03L61.924,134.613L60.799,135.725L60.668,135.055L61.529,132.913L60.31,133.991L61.745,131.189L62.544,130.144L63.955,127.606L62.371,128.173L63.397,126.689L62.594,125.758L62.988,123.464L63.64,122.764L64.06,121.798L64.725,121.352L64.58,120.71L66.656,120.15L67.884,120.463L68.397,120.868L69.094,120.576L70.09,119.381L69.692,119.137L69.219,120.23L68.479,120.59L66.727,119.815L65.784,120.121L65.846,119.419L65.489,118.371L66.254,118.339L65.91,117.306L67.725,115.236L67.42,114.812L68.885,113.979L68.555,113.498L68.86,112.779L66.795,113.977L66.177,114.934L65.63,115.02L64.757,115.879L63.696,117.461L61.605,118.847L61.45,118.429L60.325,117.804L58.316,117.169L57.523,116.262L56.96,115.185L56.953,114.365L58.457,114.226L57.91,113.334L56.611,113.484L56.307,113.113L54.91,113.312L53.78,112.678L53.698,112.037L54.354,111.287L55.412,111.055L56.212,111.286L57.471,111.078L57.766,110.671L58.548,111.676L59.309,110.929L60.361,110.522L59.319,110.026L60.134,109.493L61.391,107.77L58.624,107.982L59.627,106.246L60.246,104.587L61.724,104.4L61.964,105.176L63.048,105.813L62.053,103.783L61.501,104.035L60.751,103.02L61.876,102.108L61.955,101.647L62.999,101.449L64.489,101.937L64.4,101.34L63.668,100.962L62.914,101.021L62.532,100.154L63.441,99.44L63.108,98.66L64.131,97.529L63.329,97.035L62.271,97.076L62.118,96.701L62.838,95.498L63.359,95.724L65.116,95.294L66.326,94.298L66.099,93.807L64.804,95.137L64.122,95.186L63.667,94.47L62.854,94.468L62.072,95.117L61.316,95.273L60.917,94.079L61.194,92.697L60.471,92.543L60.254,91.67L60.962,88.802L61.329,88.639L61.935,89.407L62.832,89.993L63.622,90.84L64.051,90.27L63.437,89.842L63.192,88.982L62.584,88.709L62.22,87.63L61.586,87.128L61.845,85.562L63.276,85.246L63.264,84.737L62.332,84.657L61.572,84.092L61.823,82.906L61.714,81.093L62.519,80.814L63.665,81.018L63.488,81.601L63.916,82.203L63.777,82.831L64.4,83.74L65.117,81.9L64.241,81.303L64.107,80.378L64.71,79.423L65.538,79.65L65.769,81.003L66.82,81.538L67.224,81.079L67.569,79.995L68.636,80.712L68.782,80.141L67.992,79.932L68.498,79.252L68.937,79.923L70.277,79.903L71.185,79.297L71.024,78.824L69.365,77.883L68.623,76.746L67.781,76.577L67.47,75.756L67.779,74.558L68.818,75.457L69.859,75.551L69.953,74.413L68.885,71.495L68.299,70.986L68.853,70.576L69.646,71.364L70.667,70.708L71.968,70.685L72.639,70.236L72.444,68.845L71.778,68.094L71.787,67.643L72.696,66.754L72.75,65.868L73.661,64.908L72.687,64.172L72.91,63.265L73.835,62.785L74.368,61.822L74.57,60.462L75.435,60.981L76.445,60.841L77.556,61.96L79.585,62.734L78.472,65.073L79.355,64.628L79.691,63.64L80.429,63.246L80.617,62.04L81.709,62.096L82.916,62.902L82.793,63.461L83.469,64.022L83.933,63.291L84.621,63.145L85.222,63.659L86.498,63.264L87.243,62.513L87.695,62.879L88.377,62.477L88.988,62.721L89.678,62.446L91.097,62.81L92.271,62.715L93.141,61.906L94.425,61.459L95.805,61.252L95.942,61.988L96.903,61.573L98.177,62.093L98.499,61.423L97.587,60.798L98.131,59.95L98.592,60.664L100.275,60.611L100.819,60.325L101.27,60.967L102.109,60.728L103.198,60.83L102.534,63.017L101.681,64.018L101.54,64.748L101.979,65.503L102.779,65.473L102.597,66.4L102.131,67.238L101.88,68.347L100.204,70.136L97.839,71.063L97.137,71.71L95.909,73.769L94.374,74.833L92.388,76.545L91.519,76.833L91.075,77.314L90.841,78.21L88.812,79.167L88.483,80.13L88.627,81.008L87.942,81.974L86.824,82.462L85.91,81.897L86.036,82.86L86.998,82.791L87.792,83.464L89.04,82.599L90.021,83.205L91.514,82.935L89.636,85.209L88.721,86.79L87.812,86.749L88.262,85.804L87.29,85.704L85.853,86.956L85.266,86.74L84.056,87.01L83.301,87.844L82.269,89.373L84.887,87.418L85.87,87.224L85.867,87.746L87.048,87.557L87.802,87.059L88.416,87.274L86.761,89.141L86.274,89.93L85.641,90.248L84.695,92.036L82.493,91.665L82.973,92.358L83.869,92.544L84.864,92.154L85.303,92.521L86.524,91.671L86.686,91.141L87.634,90.479L87.395,89.626L88.143,89.381L89.281,89.822L90.196,89.735L92.434,88.089L93.603,87.794L95.319,87.792L96.345,86.73L98.11,86.174L99.042,86.361L100.555,87.22L102.746,87.96L104.938,86.85L105.725,87.198L106.268,87.007L107.014,87.509L112.102,87.932L113.583,87.164L114.082,87.631L115.137,87.86L116.233,87.032L118.066,87.597L119.042,87.737L119.611,88.877L120.563,89.425L120.58,90.721L121.329,93.353L120.1,95.652L119.33,96.315L118.186,97.852L117.078,100.584L116.809,102.527L117.29,102.57L116.605,104.555L115.556,105.934L115.311,107.004L114.826,107.34L115.01,108.961L114.508,110.114L113.912,110.718L113.042,112.066L111.536,113.213L111.107,114.59L111.212,115.154L110.189,116.063L110.658,116.897L109.778,118.398L108.727,118.854L108.245,119.497L107.025,120.359L106.758,121.159L105.809,120.754L104.658,121.233L103.596,121.162L102.61,121.515L101.863,121.306L100.719,122.049L99.12,123.768L99.141,124.121L102.036,122.492L102.802,122.363L103.864,121.532L104.882,121.898L105.672,121.921L105.479,123.285L104.719,123.966L106.035,124.841L107.836,125.268L108.281,125.977L108.921,126.334L107.316,127.953L105.925,128.488L105.453,128.961L104.575,128.866L104.266,128.341L103.446,128.119L101.836,129.363L100.872,130.348L100.192,130.746L99.809,132.232L97.931,132.466L97.508,132.994L96.482,133.283L95.697,133.239L93.596,132.221L91.868,132.476L91.274,133.096L92.081,133.369L93.228,133.255L94.471,133.819L96.436,134.184L97.022,133.872L97.753,134.618L99.651,134.202L100.657,135.176L101.26,135.467L102.312,135.314L103.023,134.817L103.784,134.715L105.358,132.326L107.754,132.436L108.384,132.752L108.943,133.503L108.703,134.149L110.043,133.921L111.088,134.435L111.883,135.313L112.86,136.036L113.965,136.224L114.518,135.972L115.898,137.117L116.796,137.653L116.906,138.47L118.597,141.512L119.807,142.581L120.017,143.369L120.91,144.254L122.332,144.714L123.647,145.779L123.667,146.807L124.414,148.154L124.381,149.591L124.596,150.519L124.166,151.155L124.508,152.266L125.101,152.868L124.73,154.151L125.914,156.636L125.51,157.272L125.958,158.776L126.487,159.617L127.206,161.216L127.124,161.583L128.238,162.714L128.092,163.8L128.406,165.599L128.696,166.23L129.17,168.112L130.137,169.398L131.17,170.048L130.834,170.559L131.565,172.029L133.182,172.304L134.063,172.954L135.079,173.065L135.744,173.52L136.43,173.495L137.813,174.063L138.195,174.662L138.781,174.567L139.398,175.414L140.97,175.919L141.835,176.872L141.795,177.662L142.802,178.429L143.584,180.003L143.951,181.573L144.414,182.28L145.851,183.26L145.94,183.948L147.014,184.739L148.809,185.424L148.801,186.171L147.792,186.353L147.086,187.61L147.104,188.877L148.122,191.795L150.065,194.743L152.78,198.3L153.231,199.681L152.199,198.909L151.417,198.692L150,199.295L149.176,199.134L147.094,197.174L146.786,196.562L146.093,196.255L143.934,196.938L141.912,197.291L141.205,197.728L142.237,198.158L143.1,197.548L144.371,197.562L145.981,197.046L147.508,199.107L149.377,200.636L149.918,200.593L151.237,202.134L152.418,202.382L152.851,203.144L153.591,203.347L154.125,204.472L154.828,205.323L155.092,206.231L156.482,209.117L157.126,211.181L156.945,213.807L156.494,214.047L155.346,215.253L153.88,216.368L152.738,218.458L152.524,219.281L154.409,220.071L155.138,221.513L157.063,221.537L157.501,221.692L158.922,220.489L158.918,219.926L159.606,217.845L160.425,217.056L162.991,216.891L163.703,217.245L164.433,216.879L165.609,216.917L165.611,217.354L167.021,217.269L168.69,216.974L170.194,217.346L173.158,217.721L175.348,218.986L178.109,221.121L180.082,223.179L180.848,225.255L181.074,228.446L181.537,229.818L181.09,230.786L181.052,232.1L180.287,234.537L179.616,235.614L179.558,238.085L178.978,240.765L177.658,241.393L177.023,242.101L176.532,243.28L175.136,244.67L174.144,245.28L172.732,246.78L174.068,247.665L173.097,248.822L171.719,249.798L170.202,250.074L169.872,249.115L169.311,248.829L167.836,249.353L167.659,250.276L166.878,251.026L165.653,250.974L164.569,251.846L166.027,251.946L166.425,251.579L167.264,251.504L167.668,250.91L168.659,251.208L168.493,253.935L166.555,254.941L166.564,255.969L167.137,256.102L165.994,257.118L163.566,256.659L163.478,257.197L162.402,257.63L160.362,257.728L160.705,258.323L161.946,258.21L163.156,258.505L164.617,258.522L164.84,259.557L163.538,259.294L163.136,260.098L161.833,260.256L163.189,261.166L163.801,260.623L165.153,260.531L165.817,260.985L165.884,261.518L167.615,261.635L168.292,261.974L170.04,261.721L170.498,261.251L173.791,260.73L175.359,260.632L176.681,260.219L177.535,260.348L177.649,261.132L177.322,262.05L176.485,261.99L176.4,262.487L177.095,264.823L177.085,266.6L176.77,267.164L175.4,268.058L174.071,268.512L173.648,269.136L171.541,269.592L170.251,270.688L169.74,272.273L170.051,273.796L166.426,273.444L165.744,273.935L164.513,275.205L159.641,276.752L158.974,277.35L157.639,279.082L156.765,279.108L155.672,278.577L155.204,278.591L151.408,277.258L149.231,276.848L148.157,276.887L145.398,277.61L143.079,277.798L140.751,278.404L139.887,278.954L139.264,279.935L137.194,278.335L137.805,277.453L137.343,276.77L136.685,276.569L135.145,276.675L134.729,276.99L134.743,278.13L133.969,278.505L133.636,276.835L132.877,277.139L133.544,278.187L133.034,278.629L131.761,277.644L130.1,276.746L128.782,275.463L128.899,276.447L129.634,276.891L130.092,277.548L129.336,278.371L126.707,279.222L125.371,280.229L124.292,279.841L122.824,279.791L122.139,280.229L121.139,280.162L120,280.375L119.157,280.784L118.22,280.517L117.783,281.221L119.034,282.374L118.753,283.669L117.532,283.81L116.045,283.555L115.623,283.16L114.497,282.876L113.777,283.057L112.027,282.614L110.51,282.522L109.719,283.924L106.965,281.821L104.62,280.364L102.035,279.716L101.264,280.185L99.962,280.646L98.979,280.561L98.738,281.008L97.05,281.01L95.889,281.3L95.103,282.427L94.026,283.111L93.084,282.446L92.175,280.979L92.584,283.225L91.66,284.797L91.265,286.506L90.448,288.037L90.5,288.531L91.416,289.085L91.125,290.247L89.456,290.986L88.904,291.748L88.572,293.19L87.446,294.15L86.529,293.538L85.703,293.729L84.867,293.089L85.056,292.474L84.149,291.536L83.356,291.135L80.483,290.733L80.294,289.629L79.412,289.111L79.03,290.325L78.543,290.296L77.166,289.48L74.885,289.407L74.23,290.16L73.041,290.387L72.357,290.11L70.472,290.396L70.31,289.629L69.192,290.039L68.725,291.163L68.363,292.811L67.234,292.599L66.182,293.657L65.542,293.449L64.787,294.546L63.866,294.255L63.039,295.489L63.558,297.525L63.347,298.009L62.352,298.687L61.569,298.795L60.756,300L59.748,298.702L59.99,298.248L59.621,297.259L58.991,296.442L57.007,295.803L56.072,295.125L55.262,295.186L54.891,295.662L54.955,296.651L54.313,297.142L53.568,297.121L52.55,297.494L51.892,296.686L52.387,295.977L52.058,294.946L52.759,293.895L53.551,293.891L55.209,292.632L56.316,292.628L57.04,293.38L58.262,292.224L58.98,292.073L59.445,291.558L60.547,290.916L60.742,290.051L61.327,290.02L62.191,289.352L62.57,287.832L63.513,287.491L64.269,286.719L64.705,284.117L65.414,284.047L67.476,282.663L68.778,282.628L69.257,281.984L69.416,280.666L70.926,280.003L71.383,279.456L71.422,278.81L73.069,277.727L73.232,276.183L73.062,274.332L73.506,273.657L73.936,271.08L75.681,271.379L76.269,271.919L77.102,272.101L77.84,271.842L78.617,270.81L79.834,270.086L79.408,269.792L79.305,268.606L79.566,266.614L81.72,265.917L83.976,265.937L84.557,265.6L85.138,265.84L85.809,265.562L87.262,265.513L89.631,265.948L90.578,265.73L92.01,265.999L92.851,266.424L93.625,267.171L95.787,267.295L97.964,266.514L99.29,266.746L100.658,266.103L100.257,264.972L100.463,263.455L100.756,263.459L101.318,261.749L102.651,260.95L103.295,259.789L104.644,258.707L105.35,258.77L106.376,257.344L106.552,256.53L107.173,255.649L106.579,255.32L105.712,256.283L104.929,256.387L103.818,257.051L102.385,257.625L100.822,257.492L98.763,258.673L97.867,259.968L97.758,261.05L96.818,261.105L96.026,261.528L95.321,261.389L94.145,261.677L91.017,261.065ZM78.174,211.82L77.364,212.145L76.138,209.975L75.561,209.574L74.892,209.705L74.041,208.349L73.309,207.8L73.577,207.345L75.101,208.007L75.718,206.029L75.438,205.201L76.798,205.038L77.933,204.556L80.09,205.149L80.469,205.738L80.516,206.557L81.477,207.883L81.458,208.488L82.881,207.785L84.185,208.062L83.169,209.512L81.408,210.6L81.131,211.422L79.649,212.446L79.246,212.997L78.094,212.451ZM65.314,146.366L65.629,145.338L64.821,143.578L65.385,141.743L66.185,141.02L66.969,140.634L67.973,141.203L68.568,141.879L68.996,143.816L68.462,144.511L69.255,144.886L69.636,145.424L68.884,145.997L69.639,146.623L69.366,147.105L69.502,148.14L67.7,148.637L66.84,148.442L65.908,147.693L65.729,146.767ZM126.387,280.518L127.293,280.442L128.008,279.986L129.331,279.609L130.073,278.843L130.713,278.879L131.751,279.699L132.829,279.743L133.629,280.085L134.327,280.992L133.851,281.617L132.746,282.066L132.324,283.506L130.31,284.146L128.733,282.724L127.697,282.268L127.051,281.64L125.924,281.323ZM69.324,139.332L69.277,137.299L68.661,137.102L67.909,135.685L68.575,135.067L70.11,136.335L70.363,137.517L70.893,137.427L70.894,138.372L71.179,139.47L70.236,139.753ZM64.347,120.994L63.454,122.402L62.892,122.161L63.327,121.408ZM54.626,106.855L55.401,106.097L55.772,106.656L55.644,107.651L54.916,108.073L54.256,107.595ZM52.191,102.903L52.716,102.696L53.719,103.423L54,104.331L53.653,105.354L52.777,106.189L51.921,105.654L51.864,105.072L50.651,104.032ZM57.757,101.804L57.817,101.243L58.722,100.674L58.836,99.862L57.982,100.024L57.859,99.155L57.125,99.776L56.523,101.095L56.113,100.774L56.328,99.883L55.388,99.035L54.725,99.573L52.998,99.946L52.858,99.202L52.342,98.675L51.246,96.993L50.868,95.626L51.625,95.28L51.01,94.081L51.023,93.276L49.655,93.383L49.709,94.772L47.445,93.712L47.176,92.407L46.697,91.257L47.266,91.113L47.256,90.123L47.758,89.777L48.762,91.824L49.312,91.763L48.915,90.167L50.063,90.104L48.942,88.798L49.155,87.244L49.882,87.859L50.071,88.988L50.958,89.429L51.517,90.427L52.46,90.234L52.989,89.647L52.613,88.902L52.725,87.369L52.29,86.521L53.436,85.79L53.829,85.024L54.956,85.816L55.131,86.83L55.783,86.984L56.298,88.315L56.415,89.438L56.191,90.709L56.306,91.437L56.112,92.654L56.337,93.769L55.999,94.285L56.55,95.759L57.246,95.956L58.121,97.208L60.021,98.108L61.725,97.286L63.003,97.624L62.88,99.17L61.147,100.247L60.728,101.494L59.977,101.72L58.562,103.672L57.595,104.11L57.124,103.193L57.708,102.634ZM58.288,95.721L59.193,96.24L59.097,96.968L58.326,97.121L57.739,96.197ZM42.342,85.581L42.86,85.917L42.24,86.761L41.366,85.69L41.612,88.213L41.374,89.241L40.232,89.394L40.39,90.283L39.149,89.791L38.686,89.246L38.183,89.39L37.166,87.455L36.479,87.414L36.005,86.371L36.333,85.449L37.191,84.839L38.108,85.804L38.275,85.039L39.832,85.473L39.723,84.998L40.592,84.386L41.566,84.801L41.396,85.297ZM57.084,93.983L57,92.947L57.488,91.903L58.064,91.387L58.62,91.434L57.796,92.769L57.941,93.907L58.277,94.774L57.363,95.553L56.843,94.887ZM43.851,82.384L43.277,82.115L42.904,81.281L44.243,80.306L45.096,78.729L46.174,78.921L46.375,78.327L45.254,77.468L44.109,77.327L43.29,76.855L43.174,75.956L44.313,75.108L43.718,74.823L43.197,73.921L43.158,72.885L42.808,72.491L43.571,71.403L43.39,70.852L43.988,70.544L44.297,69.563L45.089,69.608L46.475,70.982L47.458,70.558L48.435,71.123L48.807,70.852L48.324,69.744L47.839,69.243L47.66,68.466L48.695,67.819L49.434,67.108L50.299,66.631L50.776,66.862L51.859,66.413L53.613,64.608L55.533,63.56L56.1,62.975L57.358,63.944L57.104,64.494L57.501,64.984L56.645,66.64L56.944,67.464L55.011,69.263L54.692,70.571L55.392,71.039L56.31,70.532L56.656,69.989L57.661,69.74L57.337,70.78L56.49,71.603L55.877,71.819L55.312,71.062L53.85,71.703L54.011,73.041L53.544,73.576L53.937,74.577L54.028,75.6L53.513,76.669L52.505,76.051L52.566,76.917L52.172,78.304L51.732,78.204L51.125,78.828L49.165,78.666L49.215,79.644L48.057,79.451L47.228,79.081L48.06,81.105L47.183,80.831L45.847,81.809L45.948,82.425L44.323,83.155ZM44.504,78.558L44.092,79.319L43.492,79.246L43.751,78.417ZM47.003,69.988L47.25,69.101L47.928,70.182ZM102.635,55.114L102.478,56.098L101.637,56.013L101.581,55.547ZM97.81,54.461L97.43,54.354L97.905,53.011L98.623,52.758L99.334,53.505L100.595,54.29L100.684,55.715L101.427,56.291L100.902,57.1L99.342,57.043L98.917,55.935ZM103.911,56.895L103.635,56.51L104.233,55.786L104.166,55.137L105.151,54.023L104.62,53.678L104.062,52.627L102.047,52.849L100.829,53.322L100.407,52.722L100.397,51.848L99.384,52.266L98.603,51.856L98.479,50.444L98.759,49.829L98.805,48.153L99.319,47.135L100.948,46.658L102.399,47.669L103.671,48.972L103.544,49.886L102.959,49.947L102.119,50.821L102.94,51.131L103.608,50.676L104.848,51.934L105.85,52.158L106.136,52.726L107.865,51.773L107.701,52.758L106.727,53.367L106.089,54.472L105.32,53.744L105.112,55.996L104.617,56.679L104.479,57.424L104.896,57.796L104.144,58.448L103.706,57.779ZM108.449,48.017L109.161,47.756L110.122,47.962L110.485,48.472L109.352,49.026L109.371,48.35ZM103.261,46.006L104.076,46.455L104.255,47.233L103.188,47.456L102.437,46.909L102.095,46.156L102.727,45.434ZM106.287,45.611L106.905,45.76L106.781,44.476L107.533,44.935L106.693,46.574ZM104.477,43.22L104.052,43.791L103.468,43.261L103.361,42.005L104.642,41.306ZM117.262,19.037L117.434,19.516L117.101,20.333L116.439,19.332ZM129.78,18.566L129.996,18.197L131.169,18.674L130.813,20.441L130.118,19.971L130.23,19.167ZM127.106,26.179L126.828,25.548L126.852,24.18L127.457,22.976L128.06,20.602L128.061,19.616L127.582,19.649L126.986,17.781L125.303,18.909L124.75,18.787L124.827,17.574L124.175,17.241L123.329,17.26L122.261,16.871L122.075,16.308L122.704,14.896L123.904,15.199L124.779,14.502L125.864,14.24L126.406,14.658L127.04,13.369L126.144,12.715L125.49,11.833L125.299,10.834L125.412,9.776L123.288,10.256L123.307,9.27L124.565,8.627L125.696,7.448L125.868,6.319L126.85,6.437L127.269,7.18L127.217,9.182L127.509,10.362L128.522,9.604L129.378,11.059L129.021,11.684L130.665,12.536L130.677,13.41L130.096,13.728L130.136,14.911L129.545,15.525L129.773,16.114L129.207,16.882L129.786,18.073L129.393,20.009L128.818,21.27L129.024,21.987L128.609,22.4L128.807,23.455L128.135,25.182L128.048,27.381L127.465,26.175ZM132.216,12.668L132.572,12.832L132.018,14.095L131.199,14.023L131.673,13.057ZM133.413,5.728L133.887,5.846L134.204,6.644L133.023,7.003L132.31,6.366ZM126.514,13.149L125.787,13.79L125.357,13.483L125.837,12.535ZM129.163,7.468L128.837,6.514L129.033,5.722L129.858,4.119L129.822,3.175L131.099,3.044L131.734,5.135L131.622,5.729L130.982,6.654L131.572,7.209L131.428,8.085L130.966,8.05L131.143,9.386L130.723,9.731L130.047,9.176L129.359,9.481L129.039,8.174ZM131.924,3.356L132.368,2.475L132.134,1.351L132.934,0.267L133.675,0L134.522,0.252L134.171,0.795L134.499,1.62L133.32,3.798L132.024,4.313Z"></path></svg>